<?xml version="1.0" encoding="UTF-8"?>
<svg width="354px" height="41px" viewBox="0 0 354 41" version="1.1" xmlns="http://www.w3.org/2000/svg" xmlns:xlink="http://www.w3.org/1999/xlink">
    <title>Group 7</title>
    <defs>
        <polygon id="path-1" points="0.0003 0.4839 353.546 0.4839 353.546 33.9999 0.0003 33.9999"></polygon>
    </defs>
    <g id="Page-1" stroke="none" stroke-width="1" fill="none" fill-rule="evenodd">
        <g id="Artboard" transform="translate(-1361.000000, -1074.000000)">
            <g id="Group-7" transform="translate(1361.000000, 1074.500000)">
                <polygon id="Fill-1" fill="#B87FBC" points="280.1484 39.2538 287.2564 39.2538 280.1484 20.0738"></polygon>
                <polygon id="Fill-2" fill="#8B57A1" points="267.9795 39.2538 278.4915 39.2538 278.4915 10.8948"></polygon>
                <polygon id="Fill-3" fill="#6A2F6C" points="280.5752 0.0003 251.9612 39.2543 266.0262 39.2543"></polygon>
                <g id="Group-6" transform="translate(0.000000, 5.863100)">
                    <mask id="mask-2" fill="white">
                        <use xlink:href="#path-1"></use>
                    </mask>
                    <g id="Clip-5"></g>
                    <path d="M28.0083,33.2139 L20.0913,21.6409 C22.1593,20.8689 23.8343,19.6579 25.1143,18.0069 C26.3953,16.3549 27.0363,14.2179 27.0363,11.5949 L27.0363,11.5019 C27.0363,8.1389 25.9643,5.5159 23.8183,3.6319 C21.6743,1.7489 18.6733,0.8079 14.8143,0.8079 L0.0003,0.8079 L0.0003,33.2139 L7.1303,33.2139 L7.1303,22.8449 L12.7303,22.8449 L19.6753,33.2139 L28.0083,33.2139 Z M207.9063,9.1019 C207.9063,8.3619 208.0683,7.6679 208.3923,7.0199 C208.7163,6.3709 209.1783,5.8079 209.7813,5.3449 C210.3833,4.8819 211.1083,4.5119 211.9573,4.2339 C212.8063,3.9569 213.7553,3.8179 214.8043,3.8179 C216.4713,3.8179 218.0683,4.0939 219.5953,4.6509 C221.1233,5.2059 222.6423,6.1009 224.1563,7.3359 L226.2853,4.5119 C224.6183,3.1989 222.8973,2.2129 221.1233,1.5559 C219.3483,0.8999 217.2733,0.5759 214.8963,0.5759 C213.3533,0.5759 211.9333,0.7999 210.6383,1.2479 C209.3413,1.6949 208.2153,2.3119 207.2583,3.1079 C206.3003,3.8949 205.5603,4.8279 205.0363,5.9079 C204.5103,6.9879 204.2493,8.1849 204.2493,9.4799 C204.2493,10.8379 204.4653,12.0109 204.8973,12.9979 C205.3303,13.9939 206.0013,14.8579 206.8953,15.5999 C207.7913,16.3389 208.9253,16.9719 210.3053,17.4969 C211.6783,18.0219 213.3003,18.4929 215.1513,18.8929 C216.8573,19.2629 218.2543,19.6489 219.3553,20.0509 C220.4513,20.4519 221.3083,20.8999 221.9253,21.3929 C222.5503,21.8879 222.9823,22.4349 223.2293,23.0369 C223.4763,23.6469 223.5993,24.3319 223.5993,25.1039 C223.5993,26.7709 222.9433,28.1129 221.6333,29.1399 C220.3203,30.1569 218.5693,30.6669 216.3783,30.6669 C214.1253,30.6669 212.1333,30.2889 210.4063,29.5329 C208.6773,28.7769 206.9653,27.6279 205.2683,26.0839 L202.9993,28.7699 C204.9443,30.5219 206.9883,31.8169 209.1333,32.6499 C211.2783,33.4909 213.6473,33.9079 216.2393,33.9079 C217.8433,33.9079 219.3253,33.6919 220.6833,33.2599 C222.0423,32.8279 223.1983,32.2099 224.1623,31.4009 C225.1273,30.5979 225.8843,29.6259 226.4313,28.4839 C226.9783,27.3419 227.2573,26.0679 227.2573,24.6809 C227.2573,22.1809 226.4003,20.2129 224.6873,18.7929 C222.9753,17.3729 220.3133,16.2539 216.7023,15.4519 C214.9123,15.0819 213.4463,14.6889 212.3043,14.2709 C211.1623,13.8549 210.2663,13.3919 209.6203,12.8829 C208.9713,12.3739 208.5243,11.8109 208.2773,11.1859 C208.0293,10.5679 207.9063,9.8739 207.9063,9.1019 L207.9063,9.1019 Z M246.2383,4.4179 L257.1173,4.4179 L257.1173,1.0389 L231.7023,1.0389 L231.7023,4.4179 L242.5813,4.4179 L242.5813,33.4449 L246.2383,33.4449 L246.2383,4.4179 Z M319.5663,28.3059 L317.1583,25.9449 C315.6153,27.4269 314.0423,28.5759 312.4363,29.3939 C310.8323,30.2119 308.9193,30.6209 306.6973,30.6209 C304.9073,30.6209 303.2473,30.2749 301.7193,29.5789 C300.1923,28.8849 298.8653,27.9359 297.7393,26.7329 C296.6123,25.5289 295.7323,24.1099 295.1003,22.4729 C294.4673,20.8379 294.1513,19.0779 294.1513,17.1959 C294.1513,15.3129 294.4673,13.5629 295.1003,11.9419 C295.7323,10.3209 296.6123,8.9089 297.7393,7.7059 C298.8653,6.5029 300.1923,5.5599 301.7193,4.8819 C303.2473,4.2029 304.9073,3.8629 306.6973,3.8629 C308.9193,3.8629 310.8243,4.2789 312.4133,5.1119 C314.0043,5.9459 315.4923,7.0109 316.8823,8.3079 L319.3823,5.6229 C318.5793,4.8509 317.7453,4.1499 316.8823,3.5159 C316.0173,2.8829 315.0763,2.3429 314.0573,1.8959 C313.0393,1.4489 311.9353,1.1009 310.7473,0.8539 C309.5593,0.6079 308.2243,0.4839 306.7433,0.4839 C304.3663,0.4839 302.1753,0.9239 300.1703,1.8029 C298.1633,2.6819 296.4343,3.8869 294.9853,5.4139 C293.5333,6.9419 292.3993,8.7239 291.5823,10.7609 C290.7633,12.7969 290.3553,14.9729 290.3553,17.2879 C290.3553,19.6349 290.7633,21.8239 291.5823,23.8619 C292.3993,25.8999 293.5333,27.6659 294.9853,29.1629 C296.4343,30.6599 298.1473,31.8399 300.1223,32.7049 C302.0973,33.5679 304.2583,33.9999 306.6033,33.9999 C308.0853,33.9999 309.4273,33.8609 310.6313,33.5839 C311.8353,33.3059 312.9623,32.9199 314.0103,32.4269 C315.0603,31.9339 316.0413,31.3389 316.9503,30.6449 C317.8603,29.9499 318.7333,29.1709 319.5663,28.3059 L319.5663,28.3059 Z M339.0553,15.2049 L352.9433,1.0389 L348.2213,1.0389 L329.6113,20.3909 L329.6113,1.0389 L325.9533,1.0389 L325.9533,33.4449 L329.6113,33.4449 L329.6113,24.7419 L336.5093,17.7509 L348.9623,33.4449 L353.5463,33.4449 L339.0553,15.2049 Z M199.8983,33.2139 L191.9813,21.6409 C194.0503,20.8689 195.7233,19.6579 197.0053,18.0069 C198.2853,16.3549 198.9253,14.2179 198.9253,11.5949 L198.9253,11.5019 C198.9253,8.1389 197.8533,5.5159 195.7083,3.6319 C193.5633,1.7489 190.5623,0.8079 186.7043,0.8079 L171.8903,0.8079 L171.8903,33.2139 L179.0193,33.2139 L179.0193,22.8449 L184.6203,22.8449 L191.5653,33.2139 L199.8983,33.2139 Z M191.7043,11.9649 C191.7043,13.3539 191.2333,14.4649 190.2923,15.2989 C189.3513,16.1319 188.0013,16.5479 186.2413,16.5479 L179.0193,16.5479 L179.0193,7.2439 L186.1023,7.2439 C187.8623,7.2439 189.2343,7.6299 190.2223,8.4019 C191.2113,9.1719 191.7043,10.3289 191.7043,11.8719 L191.7043,11.9649 Z M165.5013,33.2139 L165.5013,26.8719 L147.9093,26.8719 L147.9093,20.0669 L163.1873,20.0669 L163.1873,13.7239 L147.9093,13.7239 L147.9093,7.1509 L165.2693,7.1509 L165.2693,0.8079 L140.8723,0.8079 L140.8723,33.2139 L165.5013,33.2139 Z M134.5303,17.0109 L134.5303,16.9179 C134.5303,14.6349 134.1123,12.5129 133.2793,10.5529 C132.4463,8.5939 131.2663,6.8879 129.7383,5.4379 C128.2113,3.9859 126.3903,2.8529 124.2763,2.0349 C122.1623,1.2179 119.8393,0.8079 117.3093,0.8079 L104.6703,0.8079 L104.6703,33.2139 L117.3093,33.2139 C119.8393,33.2139 122.1623,32.7979 124.2763,31.9649 C126.3903,31.1309 128.2113,29.9879 129.7383,28.5379 C131.2663,27.0879 132.4463,25.3739 133.2793,23.3999 C134.1123,21.4249 134.5303,19.2939 134.5303,17.0109 L134.5303,17.0109 Z M127.0763,17.1049 C127.0763,18.5549 126.8373,19.8649 126.3603,21.0389 C125.8813,22.2119 125.2163,23.2309 124.3693,24.0939 C123.5203,24.9579 122.4933,25.6219 121.2903,26.0839 C120.0873,26.5479 118.7583,26.7779 117.3093,26.7779 L111.8003,26.7779 L111.8003,7.2439 L117.3093,7.2439 C118.7583,7.2439 120.0873,7.4829 121.2903,7.9599 C122.4933,8.4389 123.5203,9.1099 124.3693,9.9749 C125.2163,10.8379 125.8813,11.8719 126.3603,13.0769 C126.8373,14.2799 127.0763,15.5909 127.0763,17.0109 L127.0763,17.1049 Z M98.3283,17.0109 L98.3283,16.9179 C98.3283,14.6349 97.9103,12.5129 97.0773,10.5529 C96.2443,8.5939 95.0643,6.8879 93.5363,5.4379 C92.0093,3.9859 90.1873,2.8529 88.0733,2.0349 C85.9593,1.2179 83.6363,0.8079 81.1063,0.8079 L68.4673,0.8079 L68.4673,33.2139 L81.1063,33.2139 C83.6363,33.2139 85.9593,32.7979 88.0733,31.9649 C90.1873,31.1309 92.0093,29.9879 93.5363,28.5379 C95.0643,27.0879 96.2443,25.3739 97.0773,23.3999 C97.9103,21.4249 98.3283,19.2939 98.3283,17.0109 L98.3283,17.0109 Z M90.8743,17.1049 C90.8743,18.5549 90.6353,19.8649 90.1573,21.0389 C89.6783,22.2119 89.0143,23.2309 88.1673,24.0939 C87.3173,24.9579 86.2913,25.6219 85.0883,26.0839 C83.8843,26.5479 82.5563,26.7779 81.1063,26.7779 L75.5973,26.7779 L75.5973,7.2439 L81.1063,7.2439 C82.5563,7.2439 83.8843,7.4829 85.0883,7.9599 C86.2913,8.4389 87.3173,9.1099 88.1673,9.9749 C89.0143,10.8379 89.6783,11.8719 90.1573,13.0769 C90.6353,14.2799 90.8743,15.5909 90.8743,17.0109 L90.8743,17.1049 Z M61.2003,19.0949 L61.2003,0.8079 L54.0713,0.8079 L54.0713,19.3719 C54.0713,21.9649 53.4533,23.9089 52.2193,25.2049 C50.9853,26.5019 49.2713,27.1499 47.0813,27.1499 C44.8893,27.1499 43.1773,26.4779 41.9423,25.1359 C40.7073,23.7929 40.0913,21.7939 40.0913,19.1409 L40.0913,0.8079 L32.9613,0.8079 L32.9613,19.3259 C32.9613,24.1099 34.2113,27.7049 36.7113,30.1109 C39.2113,32.5199 42.6363,33.7239 46.9883,33.7239 C49.1483,33.7239 51.1093,33.4229 52.8673,32.8199 C54.6273,32.2199 56.1233,31.3089 57.3583,30.0889 C58.5923,28.8699 59.5413,27.3509 60.2053,25.5289 C60.8683,23.7079 61.2003,21.5639 61.2003,19.0949 L61.2003,19.0949 Z M19.8143,11.9649 C19.8143,13.3539 19.3433,14.4649 18.4023,15.2989 C17.4613,16.1319 16.1113,16.5479 14.3513,16.5479 L7.1303,16.5479 L7.1303,7.2439 L14.2123,7.2439 C15.9723,7.2439 17.3443,7.6299 18.3333,8.4019 C19.3203,9.1719 19.8143,10.3289 19.8143,11.8719 L19.8143,11.9649 Z" id="Fill-4" fill="#6A2F6C" mask="url(#mask-2)"></path>
                </g>
            </g>
        </g>
    </g>
</svg>