<?xml version="1.0" standalone="no"?>
<!DOCTYPE svg PUBLIC "-//W3C//DTD SVG 1.1//EN" "http://www.w3.org/Graphics/SVG/1.1/DTD/svg11.dtd" >
<svg>
<metadata>
Created by FontForge 20120731 at Wed Oct 23 18:27:04 2019
 By www
</metadata>
<defs>
<font id="dashicons" horiz-adv-x="512" >
  <font-face 
    font-family="dashicons"
    font-weight="400"
    font-stretch="normal"
    units-per-em="512"
    panose-1="2 0 5 3 0 0 0 0 0 0"
    ascent="512"
    descent="0"
    bbox="0 0 512.333 512"
    underline-thickness="0"
    underline-position="5"
    unicode-range="U+F100-F547"
  />
<missing-glyph 
d="M17 0v341h136v-341h-136zM34 17h102v307h-102v-307z" />
    <glyph glyph-name=".notdef" 
d="M17 0v341h136v-341h-136zM34 17h102v307h-102v-307z" />
    <glyph glyph-name=".null" horiz-adv-x="0" 
 />
    <glyph glyph-name="nonmarkingreturn" 
 />
    <glyph glyph-name="admin-appearance" unicode="&#xf100;" 
d="M371 229l-181 181l38 38q10 11 38.5 9t51.5 -17q13 -8 30 -22q22 -19 44 -32q30 -16 50 -21q30 -7 64 0zM353 211l-181 181l-46 -46q-7 -7 -7 -17.5t7 -18.5l27 -27q8 -7 8 -18t-8 -18q-10 -11 -38 -31l-18 -12q-17 -13 -26 -22q-29 -29 -40 -57q-13 -32 4.5 -50t50.5 -5
q28 11 57 40q9 9 22 26l11 16q20 29 32 41q7 7 17.5 7t18.5 -7l27 -28q8 -7 18.5 -7t17.5 7z" />
    <glyph glyph-name="admin-comments" unicode="&#xf101;" 
d="M128 461h230q22 0 37 -15t15 -36v-180q0 -21 -15 -36t-37 -15h-51l-128 -128v128h-51q-21 0 -36 15t-15 36v180q0 21 15 36t36 15z" />
    <glyph glyph-name="admin-home" unicode="&#xf102;" 
d="M410 294l39 -39l-27 -27l-166 166l-166 -166l-27 27l193 193l102 -102v51h52v-103zM256 357l154 -153v-153h-308v153zM307 77v128h-102v-128h102z" />
    <glyph glyph-name="admin-links" unicode="&#xf103;" 
d="M454 441q21 -21 28.5 -49.5t0 -57t-28.5 -49.5l-39 -39q-21 -21 -49.5 -28t-56.5 0l106 106q16 16 16 39t-16 39t-39 16t-39 -16l-106 -106q-7 28 0 56.5t28 49.5l39 39q21 21 49.5 28.5t57 0t49.5 -28.5zM220 168l137 137q8 8 8 19.5t-8.5 19.5t-20 7.5t-19.5 -7.5
l-136 -137q-8 -8 -8 -19.5t8 -19.5t19.5 -7.5t19.5 7.5zM200 110l106 106q8 -28 1 -56.5t-28 -49.5l-39 -39q-22 -22 -50 -29t-56.5 0t-50 28.5t-29 50t0 57t28.5 49.5l40 39q21 21 49 28t57 0l-106 -106q-17 -16 -17 -39t16.5 -39.5t39 -16.5t38.5 17z" />
    <glyph glyph-name="admin-media" unicode="&#xf104;" 
d="M333 230v180q0 10 -7.5 17.5t-18.5 7.5h-43l-34 51h-102l-34 -51h-43q-10 0 -17.5 -7.5t-7.5 -17.5v-180q0 -10 7.5 -17.5t17.5 -7.5h256q11 0 18.5 7.5t7.5 17.5zM179 397q27 0 45.5 -19t18.5 -45.5t-18.5 -45t-45 -18.5t-45.5 18.5t-19 45t19 45.5t45 19zM358 358h128
v-268q0 -27 -18.5 -45.5t-45 -18.5t-45.5 18.5t-19 45t19 45.5t45 19q6 0 13 -2v130h-77v76zM256 152v27h51v-89q0 -27 -18.5 -45.5t-45 -18.5t-45.5 18.5t-19 45t19 45.5t45 19q6 0 13 -2z" />
    <glyph glyph-name="admin-page" unicode="&#xf105;" 
d="M154 128v333h256v-333h-256zM128 102h205v-51h-256v333h51v-282z" />
    <glyph glyph-name="admin-plugins" unicode="&#xf106;" 
d="M336 400l-83 -83l-48 48l83 83q6 7 18 4.5t22 -12.5t12 -21.5t-4 -18.5zM131 355l23 29l231 -231l-31 -21q-13 -13 -44 -22q-29 -8 -53 -8h-100l-32 -32q-11 -11 -27 -11t-27 11t-11 27t11 27l32 32v99q0 25 7 54q9 34 21 46zM317 253l83 83q6 7 18 4.5t21.5 -12
t12 -21.5t-4.5 -18l-83 -83z" />
    <glyph glyph-name="admin-tools" unicode="&#xf107;" 
d="M427 262q-25 -25 -60 -32t-67 7l-138 -167q-19 -19 -46 -19t-46 19t-19 45.5t19 45.5l167 139q-13 32 -6.5 66.5t31.5 59.5t57.5 32t63.5 -4l-74 -74l72 -73l74 74q10 -31 3 -63t-31 -56zM98 97q7 -7 18 -7t18.5 7.5t7.5 18t-7.5 18t-18.5 7.5t-18.5 -7.5t-7.5 -18
t8 -18.5z" />
    <glyph glyph-name="admin-settings" unicode="&#xf108;" 
d="M461 102v308q0 10 -7.5 17.5t-18.5 7.5h-333q-10 0 -17.5 -7.5t-7.5 -17.5v-308q0 -10 7.5 -17.5t17.5 -7.5h333q11 0 18.5 7.5t7.5 17.5zM205 230h25q11 0 18.5 -7.5t7.5 -18t-7.5 -18t-18.5 -7.5h-25v-38q0 -6 -4 -9.5t-9 -3.5t-9 3.5t-4 9.5v38h-25q-11 0 -18.5 7.5
t-7.5 18t7.5 18t18.5 7.5h25v141q0 6 4 9.5t9 3.5t9 -3.5t4 -9.5v-141zM333 282h-26q-10 0 -17.5 7.5t-7.5 18t7.5 18t17.5 7.5h26v38q0 6 3.5 9.5t9 3.5t9 -3.5t3.5 -9.5v-38h26q11 0 18.5 -7.5t7.5 -18t-7.5 -18t-18.5 -7.5h-26v-141q0 -6 -3.5 -9.5t-9 -3.5t-9 3.5
t-3.5 9.5v141z" />
    <glyph glyph-name="admin-post" unicode="&#xf109;" 
d="M267 435l47 46l163 -162l-47 -47q-21 13 -45.5 11t-41.5 -20l-20 -19q-17 -18 -19.5 -42.5t10.5 -45.5l-46 -46l-62 62l-72 -72q-7 -7 -27 -22q-25 -18 -43 -28q-22 -13 -27 -8.5t8 27.5q10 18 28 42q15 21 22 28l72 71l-62 62l47 47q20 -13 44.5 -11t42.5 20l19 19
q18 18 20.5 42.5t-11.5 45.5z" />
    <glyph glyph-name="editor-ltr" unicode="&#xf10c;" 
d="M333 461h-192q-32 0 -58.5 -15.5t-41.5 -42t-15 -58t15 -58t41.5 -42t58.5 -15.5h13v-153q0 -10 8 -18t17.5 -8t17.5 8t8 18v307q0 10 8 18t17.5 8t17.5 -8t8 -18v-307q0 -10 8 -18t17.5 -8t17.5 8t8 18v333h26q9 0 17 8t8 17.5t-8 17.5t-17 8zM358 358v-204l128 102z
" />
    <glyph glyph-name="tide" unicode="&#xf10d;" 
d="M435 328v107h-358v-182q45 9 88 28q31 13 76 39q2 3 7 6.5t8 6.5v-77q-45 -26 -79 -41q-48 -20 -100 -31v-107h358v182q-45 -9 -87 -28q-29 -13 -72 -39q-3 -1 -9.5 -5t-10.5 -5v74q51 28 80 41q48 20 99 31z" />
    <glyph glyph-name="admin-users" unicode="&#xf110;" 
d="M256 275q-20 0 -35 14q-13 11 -22 30q-6 14 -10 31l-3 13q-6 38 11 66q20 32 58.5 32t57.5 -32q17 -28 12 -66l-3 -13q-4 -17 -10 -31q-9 -19 -21 -30q-15 -14 -35 -14zM256 209l70 47q29 0 56 -17t43 -44t16 -55v-64l-27 -7q-35 -9 -69 -14q-48 -8 -89.5 -8t-89.5 8
q-34 5 -68 14l-27 7v64q0 29 15 55.5t41.5 43t57.5 16.5z" />
    <glyph glyph-name="admin-generic" unicode="&#xf111;" 
d="M461 205h-56q-7 -27 -21 -50l40 -39l-54 -54l-40 40q-22 -14 -48 -21v-55h-77v55q-26 7 -49 21l-40 -40l-54 54l40 40q-14 23 -21 49h-55v76h55q6 26 21 49l-40 40l54 54l39 -40q22 14 50 21v56h77v-56q26 -6 48 -20l40 39l54 -54l-39 -40q14 -23 20 -49h56v-76zM243 166
q32 0 54.5 22.5t22.5 54.5t-22.5 54.5t-54.5 22.5t-54.5 -22.5t-22.5 -54.5t22.5 -54.5t54.5 -22.5z" />
    <glyph glyph-name="admin-network" unicode="&#xf112;" 
d="M434 446q25 -25 33.5 -58t0 -65.5t-33.5 -57.5q-29 -29 -68 -35.5t-75 9.5l-48 -85l-77 -8l-38 -95h-77l-25 51l203 197q-18 37 -11.5 77.5t35.5 69.5q24 25 57 33.5t66 0t58 -33.5zM370 349q14 0 24 10t10 24t-10 24t-24 10t-24 -10t-10 -24t10 -24t24 -10z" />
    <glyph glyph-name="update-alt" unicode="&#xf113;" 
d="M146 282q8 38 39 63.5t71 25.5q28 0 51 -12t39 -34l43 51q-23 28 -58 43.5t-75 15.5q-44 0 -82 -20t-63 -55t-32 -78h-53l89 -103l90 103h-59zM397 333l-90 -103h59q-10 -39 -40 -64t-70 -25q-28 0 -51 12t-39 34l-43 -49q23 -29 58 -45t75 -16q44 0 82 20t63 55t32 78
h53z" />
    <glyph glyph-name="welcome-view-site" unicode="&#xf115;" 
d="M461 154v256q0 10 -7.5 17.5t-18.5 7.5h-358q-11 0 -18.5 -7.5t-7.5 -17.5v-256q0 -11 7.5 -18.5t18.5 -7.5h358q11 0 18.5 7.5t7.5 18.5zM256 358q43 0 82.5 -20t71.5 -56q-32 -37 -71.5 -57t-82.5 -20t-82.5 20t-71.5 57q32 36 71.5 56t82.5 20zM307 282q0 21 -15 36
t-36 15t-36 -15t-15 -36.5t15 -36.5t36 -15t36 15t15 37zM358 77h77v-26h-358v26h77v25h204v-25z" />
    <glyph glyph-name="welcome-widgets-menus" unicode="&#xf116;" 
d="M486 102v333q0 11 -7.5 18.5t-17.5 7.5h-384q-11 0 -18.5 -7.5t-7.5 -18.5v-333q0 -10 7.5 -17.5t18.5 -7.5h384q10 0 17.5 7.5t7.5 17.5zM102 410h333v-103h-333v103zM128 384v-51h77v51h-77zM230 384v-51h77v51h-77zM333 384v-51h77v51h-77zM115 256q6 0 9.5 -3.5
t3.5 -9t-3.5 -9.5t-9 -4t-9.5 4t-4 9.5t4 9t9 3.5zM154 256h102v-26h-102v26zM307 256h128v-128h-128v128zM115 205q6 0 9.5 -4t3.5 -9t-3.5 -9t-9 -4t-9.5 4t-4 9t4 9t9 4zM154 205h102v-26h-102v26zM333 205v-51h77v51h-77zM115 154q6 0 9.5 -4t3.5 -9.5t-3.5 -9t-9 -3.5
t-9.5 3.5t-4 9t4 9.5t9 4zM154 154h102v-26h-102v26z" />
    <glyph glyph-name="welcome-comments" unicode="&#xf117;" 
d="M128 461h256q21 0 36 -15t15 -36v-205q0 -21 -15 -36t-36 -15h-51l-128 -128v128h-77q-21 0 -36 15t-15 36v205q0 21 15 36t36 15zM346 243l-64 64l64 64l-26 26l-64 -64l-64 64l-26 -26l64 -64l-64 -64l26 -25l64 64l64 -64z" />
    <glyph glyph-name="welcome-learn-more" unicode="&#xf118;" 
d="M256 256l-191 76l12 -281h-51l12 292l-38 15l256 103l256 -103zM256 384q-11 0 -18.5 -3.5t-7.5 -9t7.5 -9.5t18.5 -4t18.5 4t7.5 9.5t-7.5 9t-18.5 3.5zM256 230l143 57q28 -38 34 -84q-13 2 -23 2q-49 0 -89.5 -24t-64.5 -63q-24 39 -64.5 63t-89.5 24q-10 0 -23 -2
q6 46 34 84z" />
    <glyph glyph-name="welcome-write-blog" unicode="&#xf119;" 
d="M432 481l36 -36q8 -7 8 -17.5t-8 -18.5l-110 -110v-248h-281v384h273l46 46q8 8 18.5 8t17.5 -8zM287 264l138 137l-36 37l-138 -138l-18 -54z" />
    <glyph glyph-name="admin-site-alt" unicode="&#xf11d;" 
d="M230 512q-62 0 -115 -31t-84 -84t-31 -115.5t31 -115.5t84 -84t115.5 -31t115.5 31t84 84t31 115.5t-31 115.5t-84 84t-116 31zM422 346q-5 -17 -16.5 -31t-27.5 -21q-9 32 -31 57.5t-53 38.5q5 17 20 28q-9 6 -18.5 6t-15.5 -8q-9 -11 -5 -28q2 -9 10 -22v-1v-4
q-22 13 -32 37q-37 1 -70 -18q-4 22 4 43q14 -1 27 4.5t22 16.5q14 15 -15 40h9q53 0 100 -26q26 -19 41 -47.5t17 -61.5q4 0 11.5 8t11.5 16q7 -13 11 -27zM230 81q-19 20 -22 42q-2 13 3 38q4 19 4 28q-1 15 -10 26q-8 7 -19 10q-6 2 -20.5 4t-21.5 5q-12 4 -19 13
q-5 28 4.5 55t32.5 45q7 6 34 11q29 4 55 1q33 -3 50 -17q32 -29 42 -71q18 -1 34 8q5 -36 -19 -80q-21 -39 -57.5 -72t-70.5 -46zM132 458q15 6 30.5 1.5t24.5 -17.5q-16 -15 -38 -19q1 11 5 22z" />
    <glyph glyph-name="admin-site-alt2" unicode="&#xf11e;" 
d="M230 512q-62 0 -115 -31t-84 -84t-31 -115.5t31 -115.5t84 -84t115.5 -31t115.5 31t84 84t31 115.5t-31 115.5t-84 84t-116 31zM305 196q0 -7 2.5 -11.5t7 -5t8.5 3.5t6 12l5 -2q14 -8 20 -22.5t2 -29.5q-3 -13 -13.5 -22t-23.5 -9q-5 12 -18 13q-8 1 -28 -4
q-30 -7 -45 -4q-12 3 -21 11t-13 20q9 1 24 8q8 4 27.5 15.5t29.5 16.5q17 8 30 10zM205 223q17 0 30.5 12t15.5 29q9 -10 8.5 -23.5t-10.5 -23t-23.5 -7.5t-20.5 13zM282 243q3 -4 28 -5.5t36 -4.5q20 -6 26 -18q-7 1 -26 0q-26 -2 -37 2q-20 5 -26 26h-1zM249 372v-6
q-13 15 -24.5 19.5t-16.5 -5.5q-2 -4 0 -9q2 -4 8.5 -11.5t8.5 -12.5q4 -8 2 -14.5t-7 -11.5l-13 -6.5t-14 -8.5q-8 -6 -14 -15q-13 -22 -6 -45q7 -27 38 -49q-23 2 -40.5 17t-24.5 37q-4 12 -6 33q-2 14 -4 20q-3 8 -10 10q-17 5 -33 -13t-16 -40q-11 11 -14 26
q-2 9 -1.5 27.5t-1.5 27.5q-3 15 -14 26q22 46 61.5 75.5t88.5 38t97 -7.5q-21 -20 -32.5 -46.5t-11.5 -55.5z" />
    <glyph glyph-name="admin-site-alt3" unicode="&#xf11f;" 
d="M230 512q-62 0 -115 -31t-84 -84t-31 -115.5t31 -115.5t84 -84t115.5 -31t115.5 31t84 84t31 115.5t-31 115.5t-84 84t-116 31zM28 264h65q1 -35 9 -69h-55q-15 33 -19 69zM248 402v80q38 -15 57 -52q8 -13 13 -27zM330 368q9 -34 11 -69h-93v69h82zM213 482v-80h-71
q6 15 14 28q19 37 57 52zM213 368v-69h-93q2 35 11 69h82zM93 299h-65q4 36 19 69h55q-8 -34 -9 -69zM120 264h93v-69h-82q-9 34 -11 69zM213 162v-79q-38 14 -57 51q-8 13 -13 28h70zM248 83v78h70q-5 -15 -13 -28q-19 -37 -57 -51v1zM248 196v69h92q-1 -35 -10 -69h-82z
M368 265h65q-3 -36 -19 -69h-56q8 34 10 68v1zM368 300q-1 34 -10 68h56q15 -33 18 -69zM394 402h-46q-12 36 -35 65q48 -22 80 -65h1zM148 467q-23 -29 -35 -65h-45q32 43 80 65zM68 160h45q12 -35 35 -65q-49 22 -80 66v-1zM312 95q23 30 36 65h45q-32 -42 -80 -64z" />
    <glyph glyph-name="wordpress" unicode="&#xf120;" 
d="M512 256q0 70 -34.5 128.5t-93 93t-128.5 34.5t-128.5 -34.5t-93 -93t-34.5 -128.5t34.5 -128.5t93 -93t128.5 -34.5t128.5 34.5t93 93t34.5 128.5zM256 486q63 0 115.5 -31t83.5 -83.5t31 -115.5t-31 -115.5t-83.5 -83.5t-115.5 -31t-115.5 31t-83.5 83.5t-31 115.5
t31 115.5t83.5 83.5t115.5 31zM205 133l-78 210l27 2q5 0 7 6.5t-0.5 12.5t-8.5 6l-19 -1q-22 -1 -35 -1h-14q29 42 74 67t98 25q39 0 75 -14t63 -39q-13 1 -24 -8q-13 -10 -13 -29q0 -10 6 -22q3 -8 12 -23l3 -3q12 -22 12 -57q0 -21 -16 -70q-8 -24 -16 -44v0l-69 192
q7 0 14 2l5 2q5 0 6.5 7t-0.5 14t-8 7l-19 -2q-22 -1 -35 -1t-35 1l-19 2q-6 0 -8 -7t-0.5 -14t6.5 -7l22 -2l29 -78zM359 78l67 178l4 13q5 17 7 35q2 25 -1 50q24 -44 24 -99t-27.5 -102.5t-73.5 -74.5zM69 339l97 -269q-51 26 -82.5 76t-31.5 110q0 46 17 83zM259 223
l59 -160q-30 -11 -62 -11q-26 0 -53 8z" />
    <glyph glyph-name="text-page" unicode="&#xf121;" 
d="M77 486v-460h358v460h-358zM307 154h-153v25h153v-25zM358 230h-204v26h204v-26zM358 307h-204v26h204v-26zM358 384h-204v26h204v-26z" />
    <glyph glyph-name="format-quote" unicode="&#xf122;" 
d="M219 186q0 33 -19 57q-13 16 -37 21q-20 5 -39 0q-6 37 20.5 78t67.5 62l-42 58q-43 -20 -78 -54q-38 -38 -56 -83q-21 -50 -14.5 -104t36 -86.5t72.5 -32.5q39 0 64 22.5t25 61.5zM460 186q0 33 -18 57q-13 16 -37 21q-21 5 -39 0q-7 37 19.5 78t67.5 62l-41 58
q-44 -20 -78 -54q-38 -38 -57 -83q-20 -50 -13.5 -104t35.5 -86.5t72 -32.5q39 0 64 22.5t25 61.5z" />
    <glyph glyph-name="format-aside" unicode="&#xf123;" 
d="M26 486h460v-307l-153 -153h-307v460zM102 410v-26h308v26h-308zM102 307v-25h308v25h-308zM256 179v26h-154v-26h154zM307 77l128 128h-128v-128z" />
    <glyph glyph-name="rest-api" unicode="&#xf124;" 
d="M410 179q-25 0 -44.5 -14t-27.5 -37h-108q0 25 -12 46l181 187q4 0 12 -1.5t11 -1.5q27 0 45.5 19t18.5 45.5t-18.5 45t-45 18.5t-45.5 -18.5t-19 -45.5q0 -10 6 -25l-180 -185q-21 18 -56 18v108q23 8 37 27.5t14 44.5q0 32 -22 54t-54.5 22t-54.5 -22t-22 -54
q0 -25 14 -44.5t37 -27.5v-120q-23 -14 -37 -37.5t-14 -49.5q0 -43 30 -73t72 -30q29 0 52 14t35 37h120q8 -21 28 -36t44 -15q31 0 54 22.5t23 54.5q2 30 -20.5 52t-53.5 22z" />
    <glyph glyph-name="format-chat" unicode="&#xf125;" 
d="M282 358h-21q-21 0 -38.5 -18t-17.5 -37v-47l-77 -77v77h-51q-21 0 -36 15t-15 36v128q0 21 15 36t36 15h153q22 0 37 -15t15 -36v-77zM282 333h153q21 0 36 -15t15 -36v-128q0 -22 -15 -37t-36 -15h-51v-76l-77 76h-25q-22 0 -37 15t-15 37v128q0 21 15 36t37 15z" />
    <glyph glyph-name="format-video" unicode="&#xf126;" 
d="M51 486h410q10 0 17.5 -7.5t7.5 -17.5v-410l-460 1v409q0 10 7.5 17.5t17.5 7.5zM154 461l-52 -77h26l51 77h-25zM256 461h-26l-51 -77h26zM333 461h-26l-51 -77h26zM410 461h-26l-51 -77h25zM435 102v256h-358v-256h358zM205 333l153 -103l-153 -102v205z" />
    <glyph glyph-name="format-audio" unicode="&#xf127;" 
d="M179 433l282 51q10 2 17.5 -6t7.5 -19v-318q0 -37 -26 -63.5t-63 -26.5t-63.5 26.5t-26.5 63.5t26.5 63t63.5 26q19 0 38 -9v161l-230 -51v-229q-5 -32 -30.5 -54t-59.5 -22q-37 0 -63 26t-26 63t26 63.5t63 26.5q19 0 39 -9v212q0 10 7 16.5t18 8.5z" />
    <glyph glyph-name="format-image" unicode="&#xf128;" 
d="M58 486h396q14 0 23 -9t9 -23v-396q0 -14 -9 -23t-23 -9h-396q-14 0 -23 9t-9 23v396q0 14 9 23t23 9zM435 77v358h-358v-358h358zM256 358q0 22 -15 37t-36 15t-36 -15t-15 -36.5t15 -36.5t36 -15t36 15t15 36zM333 230q0 12 1 24q2 29 8 53q9 34 23 53q18 24 45 24
v-256q0 -11 -7.5 -18.5t-18.5 -7.5h-256q-11 0 -18.5 7.5t-7.5 18.5v179q32 0 58 -51q13 -26 19 -51v0l5 12q6 14 14 26q12 17 24 27q16 12 34 12q32 0 58 -26q12 -13 19 -26v0z" />
    <glyph glyph-name="camera-alt" unicode="&#xf129;" 
d="M384 410h75q12 0 19.5 -8t7.5 -20v-302q0 -11 -8 -20t-19 -9h-406q-11 0 -19 9t-8 20v302q0 12 7.5 20t19.5 8h75l77 51h102zM256 128q42 0 72 30t30 72.5t-30 72.5t-72 30t-72 -30t-30 -72.5t30 -72.5t72 -30z" />
    <glyph glyph-name="yes-alt" unicode="&#xf12a;" 
d="M256 461q-56 0 -103 -27.5t-74.5 -74.5t-27.5 -103t27.5 -103t74.5 -74.5t103 -27.5t103 27.5t74.5 74.5t27.5 103t-27.5 103t-74.5 74.5t-103 27.5zM240 137h-34l-83 116l34 32l66 -62l132 152l34 -24z" />
    <glyph glyph-name="editor-ol-rtl" unicode="&#xf12c;" 
d="M384 287q3 2 10.5 2t9.5 -2q6 -5 6 -8q0 -5 -3 -8q0 -2 -5 -7l-41 -41v-18h72v18h-44l31 30q2 3 8 13q2 5 2 13q0 5 -5 15q-2 4 -7 8l-3 3q-11 5 -18 2q-8 0 -13 -2q-1 0 -5 -1.5t-5 -1.5q-5 -2 -13 -10l13 -10q5 5 10 5zM428 120q-8 8 -18 8q12 4 15 10q5 5 5 16v0
q0 14 -10 18q-12 7 -26 7q-19 0 -33 -10l10 -15q5 5 13 5q1 0 5 1t5 1q16 0 16 -13q0 -5 -6 -10q-5 -2 -17 -2h-8v-18h8q12 0 20 -3q4 -2 4.5 -4t0.5 -6q0 -8 -5 -13q-10 -5 -15 -5q-11 0 -16 3q-7 0 -12 5v-18q10 -5 29.5 -5t30.5 7t11 23q0 11 -7 18zM384 404q4 0 8 8v-79
h20v102h-18l-33 -25l10 -13zM102 358h231v26h-231v-26zM102 230h231v26h-231v-26zM102 102h231v26h-231v-26z" />
    <glyph glyph-name="instagram" unicode="&#xf12d;" 
d="M325 256q0 29 -20 49t-49 20t-49 -20t-20 -49t20 -49t49 -20t49 20t20 49zM361 256q0 -44 -30.5 -74.5t-74.5 -30.5t-74.5 30.5t-30.5 74.5t30.5 74.5t74.5 30.5t74.5 -30.5t30.5 -74.5zM389 366q0 -11 -7 -18.5t-18.5 -7.5t-18.5 7.5t-7 19t7 18.5t18.5 7t18.5 -8t7 -18
zM256 425h-16h-56q-34 -2 -48 -8t-24.5 -17t-14.5 -24q-5 -14 -7 -48q-1 -19 -1 -56v-32q0 -37 1 -56q2 -34 6.5 -48t15 -24.5t24.5 -15t49 -6.5q19 -1 56 -1h30q37 0 56 1q35 2 49 7q27 12 39 39q5 15 7 50q1 19 1 55v30q0 37 -1 56q-2 35 -6.5 49t-15 24.5t-24.5 14.5
q-14 7 -49 9q-20 1 -57 1h-14zM461 256v-84q0 -51 -33 -88q-34 -33 -88 -33h-168q-51 0 -88 33q-15 18 -24 40.5t-9 47.5v168q0 25 9 47.5t24 40.5q42 33 88 33h168q51 0 88 -33q15 -18 24 -40.5t9 -47.5v-84z" />
    <glyph glyph-name="businessperson" unicode="&#xf12e;" 
d="M338 256l-56 -77l-26 36l-26 -36l-56 77q-47 -12 -68 -35q-20 -20 -26 -57q-3 -23 -3 -85l23 -7q29 -8 59 -13q43 -8 82 -8h30q39 1 82 9q30 5 59 13l23 6q0 62 -3 85q-6 37 -26 57q-21 23 -68 35zM256 238l-41 18l41 -41l41 41zM256 458q-36 0 -55.5 -29t-13.5 -68
t24.5 -63t44.5 -24t44.5 24t24.5 64t-13.5 68t-55.5 28z" />
    <glyph glyph-name="businesswoman" unicode="&#xf12f;" 
d="M410 230q-16 14 -41 20q-14 3 -45 6h-1l25 -54l-92 -94l-92 92l25 56q-58 0 -87 -26q-25 -22 -25 -79v-72l26 -8q32 -8 66 -14q46 -7 87 -6q41 -1 87 6q34 6 66 14l26 8v72q0 54 -25 79zM169 274q15 0 33.5 6t22.5 12q-19 24 -24 41q-8 26 4 59l5 -5q8 -6 19 -12
q15 -7 34 -12q24 -7 52 -10q0 -17 -8 -33q-7 -12 -20 -28q4 -6 22.5 -12t34 -6t25.5 3.5t10 9.5q0 3 -13 17q-24 26 -28 39q-4 11 -5 34q-2 29 -8 45q-16 39 -69 39t-69 -39q-6 -16 -8 -45q-1 -23 -5 -34q-4 -13 -28 -39q-13 -14 -13 -17q0 -6 10 -9.5t26 -3.5zM256 230
l-59 26l59 -148l59 148z" />
    <glyph glyph-name="format-status" unicode="&#xf130;" 
d="M256 486q125 0 182 -48q48 -41 48 -118t-48 -118q-57 -48 -182 -48t-182 48q-48 41 -48 118t48 118q57 48 182 48zM141 282q16 0 27 11t11 27t-11 27t-27 11t-27.5 -11t-11.5 -27t11.5 -27t27.5 -11zM256 282q16 0 27 11t11 27t-11 27t-27 11t-27 -11t-11 -27t11 -27
t27 -11zM371 282q16 0 27.5 11t11.5 27t-11.5 27t-27.5 11t-27 -11t-11 -27t11 -27t27 -11zM154 141q16 0 27 -11.5t11 -27.5t-11 -27t-27 -11t-27.5 11t-11.5 27t11.5 27.5t27.5 11.5zM77 90q10 0 17.5 -7.5t7.5 -18.5t-7.5 -18.5t-18 -7.5t-18 7.5t-7.5 18.5t7.5 18.5
t18.5 7.5z" />
    <glyph glyph-name="color-picker" unicode="&#xf131;" 
d="M455 455q0 -19 -13.5 -32.5t-33 -13.5t-33 13.5t-13.5 32.5l-46 -45l-18 18q0 -8 -5.5 -13.5t-13 -5.5t-13 5.5t-5.5 13.5l-18 -18q8 0 13 -5.5t5 -13t-5 -13t-13 -5.5l128 -128q0 7 5.5 12.5t13 5.5t13 -5.5t5.5 -12.5l18 18q-8 0 -13.5 5.5t-5.5 13t5.5 13t13.5 5.5
l-16 16l46 46q-19 0 -33 13.5t-14 32.5t13.5 32.5t32.5 14.5zM243 335l-131 -130q-19 -19 -28 -39q-6 -11 -11 -33t-10 -34q-8 -21 -25 -41l19 -19q21 16 41 25q12 5 34 10t33 11q20 9 39 28l131 131z" />
    <glyph glyph-name="plus" unicode="&#xf132;" 
d="M435 333v-77h-128v-128h-77v128h-128v77h128v128h77v-128h128z" />
    <glyph glyph-name="welcome-add-page" unicode="&#xf133;" 
d="M435 333v77h-51v51h-77v-26h-230v-384h281v231h26v51h51zM410 384v-26h-52v-51h-25v51h-51v26h51v51h25v-51h52z" />
    <glyph glyph-name="align-center" unicode="&#xf134;" 
d="M77 384h358v51h-358v-51zM384 179v154h-256v-154h256zM77 77h358v51h-358v-51z" />
    <glyph glyph-name="align-left" unicode="&#xf135;" 
d="M77 384h358v51h-358v-51zM307 179v154h-230v-154h230zM358 282h77v51h-77v-51zM358 179h77v51h-77v-51zM77 77h358v51h-358v-51z" />
    <glyph glyph-name="align-right" unicode="&#xf136;" 
d="M77 384h358v51h-358v-51zM77 282h77v51h-77v-51zM435 179v154h-230v-154h230zM77 179h77v51h-77v-51zM77 77h358v51h-358v-51z" />
    <glyph glyph-name="align-none" unicode="&#xf138;" 
d="M77 384h358v51h-358v-51zM333 179v154h-256v-154h256zM77 77h358v51h-358v-51z" />
    <glyph glyph-name="arrow-right" unicode="&#xf139;" 
d="M205 358l153 -103l-153 -101v204z" />
    <glyph glyph-name="code-standards" unicode="&#xf13a;" 
d="M156 269v28q0 9 -4 13.5t-14 6.5q12 2 16.5 7t4.5 16v29q0 7 3 9.5t15 2.5h7v13h-15q-18 0 -25.5 -5.5t-7.5 -19.5q0 -7 1 -16.5t1 -14.5t-5.5 -9t-17.5 -4v-15q12 0 17.5 -4t5.5 -9t-1 -14.5t-1 -16.5q0 -15 7.5 -20t25.5 -5h13v15h-8q-10 0 -14 2.5t-4 10.5zM422 156
q-20 21 -66 51q-28 29 -39 36q23 37 20 80q-2 40 -25 74t-59 52q-39 18 -80.5 11.5t-72.5 -33.5q-29 -25 -41.5 -62.5t-5.5 -74.5q8 -40 37 -70q32 -36 82 -43.5t94 15.5q28 -28 41 -44l14 -18l18 -24q11 -13 22 -22l2 -1q16 -14 26 -20q16 -10 31 -12q20 -2 31.5 9.5
t11.5 31.5q-3 26 -41 64zM195 215q-43 0 -73 30t-30 72.5t30 72.5t72.5 30t72.5 -30t30 -72.5t-30 -72.5t-72 -30zM248 338q0 5 1.5 14.5t1.5 16.5q0 14 -7.5 19.5t-25.5 5.5h-13v-13h7q10 0 14 -2.5t4 -9.5v-29q0 -9 4.5 -13.5t13.5 -6.5q-11 -4 -15.5 -9t-4.5 -14v-28
q2 -8 -1.5 -10.5t-14.5 -2.5h-7v-15h13q18 0 25.5 5t7.5 20q0 7 -1.5 16.5t-1.5 14.5t5.5 9t17.5 4v15q-12 0 -17.5 4t-5.5 9z" />
    <glyph glyph-name="arrow-down" unicode="&#xf140;" 
d="M384 307l-103 -153l-102 153h205z" />
    <glyph glyph-name="arrow-left" unicode="&#xf141;" 
d="M333 154l-154 103l154 101v-204z" />
    <glyph glyph-name="arrow-up" unicode="&#xf142;" 
d="M282 333l-103 -154h205z" />
    <glyph glyph-name="arrow-up-duplicate" unicode="&#xf143;" 
d="M179 179l103 154l102 -154h-205z" />
    <glyph glyph-name="calendar" unicode="&#xf145;" 
d="M384 410h77v-359h-410v359h77v25q0 16 11 27.5t27 11.5t27.5 -11.5t11.5 -27.5v-25h102v25q0 16 11.5 27.5t27.5 11.5t27 -11.5t11 -27.5v-25zM154 435v-64q0 -5 3.5 -9t9 -4t9 4t3.5 9v64q0 6 -3.5 9.5t-9 3.5t-9 -3.5t-3.5 -9.5zM333 435v-64q0 -5 3.5 -9t9 -4t9 4
t3.5 9v64q0 6 -3.5 9.5t-9 3.5t-9 -3.5t-3.5 -9.5zM435 77v230h-358v-230h358zM179 102v180h-51v-180h51zM282 102v180h-52v-180h52zM384 102v180h-51v-180h51z" />
    <glyph glyph-name="yes" unicode="&#xf147;" 
d="M380 387l34 -24l-149 -215h-34l-83 116l34 32l66 -61z" />
    <glyph glyph-name="admin-collapse" unicode="&#xf148;" 
d="M256 457q55 0 101 -27t73 -73t27 -101t-27 -101t-73 -73t-101 -27t-101 27t-73 73t-27 100.5t27.5 101t73.5 73.5t100 27zM307 157v198l-149 -98z" />
    <glyph glyph-name="dismiss" unicode="&#xf153;" 
d="M256 461q56 0 103 -27.5t74.5 -74.5t27.5 -103t-27.5 -103t-74.5 -74.5t-103 -27.5t-103 27.5t-74.5 74.5t-27.5 103t27.5 103t74.5 74.5t103 27.5zM384 179l-77 77l77 77l-51 51l-77 -77l-77 77l-51 -51l77 -77l-77 -77l51 -51l77 77l77 -77z" />
    <glyph glyph-name="star-empty" unicode="&#xf154;" 
d="M256 486l-77 -153l-153 -19l105 -119l-29 -169l154 76l154 -76l-29 169l105 119l-153 19zM256 429l60 -120l119 -15l-81 -91l22 -132l-120 60l-120 -60l22 132l-81 91l119 15z" />
    <glyph glyph-name="star-filled" unicode="&#xf155;" 
d="M256 486l77 -153l153 -19l-105 -119l29 -169l-154 76l-154 -76l29 169l-105 119l153 19z" />
    <glyph glyph-name="sort" unicode="&#xf156;" 
d="M282 333h-256l128 -179zM230 154h256l-128 179z" />
    <glyph glyph-name="pressthis" unicode="&#xf157;" 
d="M378 486q34 0 58.5 -24t24.5 -58.5t-24.5 -59t-58.5 -24.5q-9 0 -18 2l-27 -27v-269h-282v384h244q3 37 26 56.5t57 19.5zM378 346q24 0 40.5 17t16.5 40.5t-16.5 40.5t-40.5 17t-40.5 -17t-16.5 -41q0 -14 6 -26l-82 -83q-9 -9 -24 -32q-19 -27 -14 -31q0 -1 2 -1
q8 0 33 17q21 14 28 22l83 83q12 -6 25 -6z" />
    <glyph glyph-name="no" unicode="&#xf158;" 
d="M310 256l91 -90l-55 -55l-90 91l-91 -91l-54 54l91 91l-91 91l54 54l91 -91l91 91l54 -55z" />
    <glyph glyph-name="marker" unicode="&#xf159;" 
d="M256 461q56 0 103 -27.5t74.5 -74.5t27.5 -103t-27.5 -103t-74.5 -74.5t-103 -27.5t-103 27.5t-74.5 74.5t-27.5 103t27.5 103t74.5 74.5t103 27.5zM256 128q35 0 64.5 17t46.5 46.5t17 64.5t-17 64.5t-46.5 46.5t-64.5 17t-64.5 -17t-46.5 -46.5t-17 -64.5t17 -64.5
t46.5 -46.5t64.5 -17z" />
    <glyph glyph-name="lock-duplicate" unicode="&#xf160;" 
d="M384 282h-26v76q0 43 -30 73t-72 30t-72 -30t-30 -73v-76h-26q-10 0 -18 -8t-8 -18v-179q0 -10 8 -18t18 -8h256q10 0 18 8t8 18v179q0 10 -8 18t-18 8zM282 102h-52l11 57q-10 4 -16.5 13.5t-6.5 19.5q0 15 11.5 26.5t26.5 11.5t26.5 -11.5t11.5 -26.5q0 -12 -5.5 -21
t-17.5 -12zM307 282h-102v76q0 22 15 37t36 15t36 -15t15 -37v-76z" />
    <glyph glyph-name="lock-duplicate" unicode="&#xf315;" 
d="M384 282h-26v76q0 43 -30 73t-72 30t-72 -30t-30 -73v-76h-26q-10 0 -18 -8t-8 -18v-179q0 -10 8 -18t18 -8h256q10 0 18 8t8 18v179q0 10 -8 18t-18 8zM282 102h-52l11 57q-10 4 -16.5 13.5t-6.5 19.5q0 15 11.5 26.5t26.5 11.5t26.5 -11.5t11.5 -26.5q0 -12 -5.5 -21
t-17.5 -12zM307 282h-102v76q0 22 15 37t36 15t36 -15t15 -37v-76z" />
    <glyph glyph-name="format-gallery" unicode="&#xf161;" 
d="M410 410h50q11 0 18.5 -8t7.5 -19v-331q0 -11 -7.5 -18.5t-18.5 -7.5h-331q-11 0 -19 7.5t-8 18.5v50h-50q-11 0 -18.5 8t-7.5 19v331q0 11 7.5 18.5t18.5 7.5h331q11 0 19 -7.5t8 -18.5v-50zM77 154h281v281h-281v-281zM205 371q0 16 -11.5 27.5t-27.5 11.5t-27 -11.5
t-11 -27.5t11 -27t27 -11t27.5 11t11.5 27zM256 256q2 10 5 20q6 24 14 44q11 28 24 44q16 20 34 20v-205h-231v154q18 0 30 -12q10 -10 15 -27q4 -12 6 -26l1 -12l3 13q6 15 16 25q13 13 32 13q27 0 41 -25q8 -13 10 -26v0zM435 77v281h-25v-229q0 -11 -8 -19t-19 -8h-229
v-25h281z" />
    <glyph glyph-name="list-view" unicode="&#xf163;" 
d="M51 26h410q10 0 17.5 7.5t7.5 17.5v410q0 10 -7.5 17.5t-17.5 7.5h-410q-10 0 -17.5 -7.5t-7.5 -17.5v-410q0 -10 7.5 -17.5t17.5 -7.5zM102 435q11 0 18.5 -7.5t7.5 -18t-7.5 -18t-18 -7.5t-18 7.5t-7.5 18t7.5 18t17.5 7.5zM435 435v-51h-281v51h281zM102 333
q11 0 18.5 -7.5t7.5 -18t-7.5 -18t-18 -7.5t-18 7.5t-7.5 18t7.5 18t17.5 7.5zM435 333v-51h-281v51h281zM102 230q11 0 18.5 -7.5t7.5 -18t-7.5 -18t-18 -7.5t-18 7.5t-7.5 18t7.5 18t17.5 7.5zM435 230v-51h-281v51h281zM102 128q11 0 18.5 -7.5t7.5 -18t-7.5 -18
t-18 -7.5t-18 7.5t-7.5 18t7.5 18t17.5 7.5zM435 128v-51h-281v51h281z" />
    <glyph glyph-name="excerpt-view" unicode="&#xf164;" 
d="M486 51v410q0 10 -7.5 17.5t-17.5 7.5h-410q-10 0 -17.5 -7.5t-7.5 -17.5v-410q0 -10 7.5 -17.5t17.5 -7.5h410q10 0 17.5 7.5t7.5 17.5zM102 435q11 0 18.5 -7.5t7.5 -18t-7.5 -18t-18 -7.5t-18 7.5t-7.5 18t7.5 18t17.5 7.5zM435 435v-153h-281v153h281zM102 230
q11 0 18.5 -7.5t7.5 -18t-7.5 -18t-18 -7.5t-18 7.5t-7.5 18t7.5 18t17.5 7.5zM435 230v-153h-281v153h281z" />
    <glyph glyph-name="image-crop" unicode="&#xf165;" 
d="M486 205v-77h-102v-102h-77v102h-205v205h-102v77h102v102h77v-102h179l77 76l26 -25l-77 -77v-179h102zM282 333h-103v-103zM205 205h102v102z" />
    <glyph glyph-name="image-rotate-left" unicode="&#xf166;" 
d="M179 384h-50q0 35 18 54q19 20 58 20v54q-60 0 -94.5 -35.5t-34.5 -92.5h-46l67 -87zM512 486v-358h-128v-128h-358v256h230v230h256zM461 435h-154v-179h77v-77h77v256zM333 205h-256v-154h256v154z" />
    <glyph glyph-name="image-rotate-right" unicode="&#xf167;" 
d="M408 384h-50l82 -87l67 87h-45q0 57 -35 92.5t-94 35.5v-54q39 0 58 -20q17 -19 17 -54zM26 486h256v-230h230v-256h-358v128h-128v358zM77 435v-256h77v77h76v179h-153zM205 205v-154h256v154h-256z" />
    <glyph glyph-name="image-flip-vertical" unicode="&#xf168;" 
d="M512 282v-52h-77v-204h-358v204h-77v52h77v204h358v-204h77zM166 333h180l-90 102zM435 269h-358v-26h358v26zM346 179h-180l90 -102z" />
    <glyph glyph-name="image-flip-horizontal" unicode="&#xf169;" 
d="M486 435v-358h-204v-77h-52v77h-204v358h204v77h52v-77h204zM269 77v358h-26v-358h26zM179 346l-102 -90l102 -90v180zM435 256l-102 90v-180z" />
    <glyph glyph-name="undo" unicode="&#xf171;" 
d="M307 384h-128v77l-153 -103l153 -102v77h128q42 0 72.5 -30t30.5 -72.5t-30.5 -72.5t-72.5 -30h-128v-51h128q42 0 77 20.5t56 56t21 77t-21 77t-56 56t-77 20.5z" />
    <glyph glyph-name="redo" unicode="&#xf172;" 
d="M205 384h128v77l153 -103l-153 -102v77h-128q-42 0 -72.5 -30t-30.5 -72.5t30.5 -72.5t72.5 -30h128v-51h-128q-42 0 -77 20.5t-56 56t-21 77t21 77t56 56t77 20.5z" />
    <glyph glyph-name="post-status" unicode="&#xf173;" 
d="M358 358q0 -35 -21.5 -62.5t-54.5 -35.5v-158q0 -16 -26 -35q-13 -9 -26 -16v0v209q-33 8 -54.5 35.5t-21.5 62.5q0 43 30 73t72 30t72 -30t30 -73zM205 384q0 -11 7.5 -18.5t18 -7.5t18 7.5t7.5 18.5t-7.5 18.5t-18 7.5t-18 -7.5t-7.5 -18.5z" />
    <glyph glyph-name="cart" unicode="&#xf174;" 
d="M154 179h230q11 0 18.5 -7.5t7.5 -18t-7.5 -18t-18.5 -7.5h-256q-11 0 -18.5 7.5t-7.5 18.5v256h-51q-10 0 -17.5 7.5t-7.5 18t7.5 18t17.5 7.5h77q11 0 18.5 -7.5t7.5 -18.5v-51h332l-102 -179h-230v-26zM141 102q16 0 27 -11t11 -27t-11 -27t-27 -11t-27.5 11t-11.5 27
t11.5 27t27.5 11zM371 102q16 0 27.5 -11t11.5 -27t-11.5 -27t-27.5 -11t-27 11t-11 27t11 27t27 11z" />
    <glyph glyph-name="feedback" unicode="&#xf175;" 
d="M51 461h410q10 0 17.5 -7.5t7.5 -18.5v-358q0 -11 -7.5 -18.5t-17.5 -7.5h-410q-10 0 -17.5 7.5t-7.5 18.5v358q0 11 7.5 18.5t17.5 7.5zM435 102v231h-358v-231h358zM102 307v-25h77v25h-77zM205 307v-77h205v77h-205zM102 205v-26h77v26h-77zM205 205v-77h205v77h-205z
" />
    <glyph glyph-name="cloud" unicode="&#xf176;" 
d="M381 282q0 3 1.5 11.5t1.5 13.5q0 42 -30 72.5t-72 30.5q-30 0 -54.5 -15.5t-38.5 -41.5q-10 5 -23 5q-26 0 -45 -18.5t-19 -45.5q0 -10 3 -12q-35 -6 -57 -31t-22 -59q0 -36 26.5 -63t62.5 -27h256q37 0 63.5 27t26.5 62.5t-22.5 61t-57.5 29.5z" />
    <glyph glyph-name="visibility" unicode="&#xf177;" 
d="M504 271q-38 66 -104.5 103.5t-143.5 37.5t-143.5 -37.5t-104.5 -103.5l-8 -15l8 -15q38 -66 104.5 -103.5t143.5 -37.5t143.5 37.5t104.5 103.5l8 15zM256 151q-59 0 -111.5 28.5t-85.5 76.5q25 38 63 64t83 36q-18 -12 -28.5 -32t-10.5 -42q0 -37 27 -63.5t63 -26.5
t63 26.5t27 63.5q0 22 -10.5 42t-28.5 32q45 -10 83 -36t63 -64q-33 -48 -85.5 -76.5t-111.5 -28.5z" />
    <glyph glyph-name="vault" unicode="&#xf178;" 
d="M461 77v358q0 11 -7.5 18.5t-18.5 7.5h-358q-11 0 -18.5 -7.5t-7.5 -18.5v-358q0 -11 7.5 -18.5t18.5 -7.5h358q11 0 18.5 7.5t7.5 18.5zM435 77h-358v358h358v-358zM122 410h268q8 0 14 -6t6 -14v-32h-26v-76h26v-52h-26v-76h26v-32q0 -8 -6 -14t-14 -6h-268q-8 0 -14 6
t-6 14v268q0 8 6 14t14 6zM333 256q0 42 -30 72t-72.5 30t-72.5 -30t-30 -72t30 -72t72.5 -30t72.5 30t30 72zM230 333l20 -30q14 -6 23 -18.5t9 -28.5q0 -21 -15 -36t-36.5 -15t-36.5 15t-15 36q0 16 9 28.5t23 18.5z" />
    <glyph glyph-name="search" unicode="&#xf179;" 
d="M311 405q35 -36 40 -85.5t-22 -90.5l9 -8q9 -7 21 -15l17 -12q16 -12 24 -20q13 -13 22 -26t14.5 -27t5 -26t-9 -20t-21 -9t-25.5 4.5t-26.5 15t-25.5 21.5q-9 9 -20 24l-26 37q-6 8 -12 13q-40 -21 -85.5 -14.5t-78.5 39.5q-27 27 -36.5 63.5t0 72.5t36.5 63t63 36.5
t72.5 0t63.5 -36.5zM275 242q26 26 26 63.5t-26.5 63.5t-63.5 26t-63 -26t-26 -63.5t26 -63.5t63 -26t64 26z" />
    <glyph glyph-name="screenoptions" unicode="&#xf180;" 
d="M230 282v153h-153v-153h153zM435 282v153h-153v-153h153zM230 77v153h-153v-153h153zM435 77v153h-153v-153h153z" />
    <glyph glyph-name="slides" unicode="&#xf181;" 
d="M128 154v204h256v-204h-256zM51 179v154h51v-154h-51zM154 333v-154h204v154h-204zM410 333h51v-154h-51v154zM333 282v25h-154v-25h154zM333 205v51h-154v-51h154z" />
    <glyph glyph-name="trash" unicode="&#xf182;" 
d="M307 410h77q12 0 19 -7t7 -19v-26h-333v26q0 11 7.5 18.5t17.5 7.5h77q4 21 22.5 36t41.5 15t41.5 -15t22.5 -36zM205 410h77q-4 11 -15.5 18t-23.5 7t-23 -7t-15 -18zM102 333h282l-23 -259q0 -9 -8 -16t-18 -7h-184q-9 0 -16.5 6.5t-9.5 16.5z" />
    <glyph glyph-name="analytics" unicode="&#xf183;" 
d="M461 51v410h-410v-410h410zM410 384h-308v26h308v-26zM179 333v-77h77q0 -32 -22.5 -54.5t-54.5 -22.5t-54.5 22.5t-22.5 54.5t22.5 54.5t54.5 22.5zM205 282v51q21 0 36 -15t15 -36h-51zM410 307h-103v26h103v-26zM410 230h-103v52h103v-52zM410 179h-103v26h103v-26z
M410 102h-308v26h308v-26z" />
    <glyph glyph-name="chart-pie" unicode="&#xf184;" 
d="M256 256v179q49 0 90 -24t65 -65t24 -90h-179zM230 410v-180h180q0 -48 -24.5 -89.5t-65.5 -65.5t-89.5 -24t-90 24t-65.5 65.5t-24 90t24 89.5t65.5 65.5t89.5 24.5z" />
    <glyph glyph-name="chart-bar" unicode="&#xf185;" 
d="M461 51v410h-103v-410h103zM307 51v282h-102v-282h102zM154 51v205h-103v-205h103z" />
    <glyph glyph-name="editor-bold" unicode="&#xf200;" 
d="M154 410v-333h116q53 0 83.5 25.5t30.5 70.5q0 33 -13 52t-43 26v2q22 4 35 23.5t13 48.5q0 44 -29.5 64.5t-96.5 20.5h-96zM219 278v74h35q28 0 41 -8.5t13 -28t-12 -28.5t-38 -9h-39zM219 222h41q56 0 56 -42q0 -23 -13 -34t-41 -11h-43v87z" />
    <glyph glyph-name="editor-italic" unicode="&#xf201;" 
d="M378 358h-54l-72 -230h54l-15 -51h-173l16 51h54l72 230h-54l15 52h173z" />
    <glyph glyph-name="editor-ul" unicode="&#xf203;" 
d="M141 333q-16 0 -27.5 11t-11.5 27t11.5 27.5t27.5 11.5t27 -11.5t11 -27.5t-11 -27t-27 -11zM205 384h230v-26h-230v26zM141 205q-16 0 -27.5 11t-11.5 27t11.5 27.5t27.5 11.5t27 -11.5t11 -27.5t-11 -27t-27 -11zM205 256h230v-26h-230v26zM141 77q-16 0 -27.5 11
t-11.5 27t11.5 27.5t27.5 11.5t27 -11.5t11 -27.5t-11 -27t-27 -11zM205 128h230v-26h-230v26z" />
    <glyph glyph-name="editor-ol" unicode="&#xf204;" 
d="M154 333v102h-18l-33 -26l10 -13l12 9l8 7l-1 -10v-69h22zM205 384h230v-26h-230v26zM173 206v18h-44v1l13 12q15 14 18 18q6 7 8 13t2 13.5t-3.5 13.5t-11 9.5t-16 3.5t-13.5 -1t-11 -4t-13 -9l12 -14q6 5 11.5 8t11.5 3t9 -3t3 -9q0 -4 -1.5 -8t-4.5 -9l-15 -15
l-25 -26v-15h70zM205 256h230v-26h-230v26zM172 155q0 12 -9.5 18.5t-25.5 6.5q-20 0 -34 -11l10 -15q7 5 12 6.5t10 1.5q15 0 15 -12q0 -8 -5.5 -11t-18.5 -3h-7v-17h7q14 0 20 -3t6 -11t-5.5 -11.5t-16.5 -3.5q-7 0 -14 1.5t-14 5.5v-19q13 -6 31 -6q20 0 31 8.5t11 23.5
q0 10 -6.5 16.5t-19.5 7.5v1q10 2 16.5 9t6.5 17zM205 128h230v-26h-230v26z" />
    <glyph glyph-name="editor-quote" unicode="&#xf205;" 
d="M243 174q0 28 -16 48q-11 14 -31 18q-18 4 -33 1q-6 31 16.5 66t57.5 53l-35 50q-59 -28 -94 -80q-41 -59 -33 -126q5 -47 30 -74.5t62 -27.5q33 0 54.5 19.5t21.5 52.5zM449 174q0 28 -16 48q-11 14 -31 18q-18 4 -33 1q-6 31 16.5 66t57.5 53l-35 50q-59 -28 -94 -80
q-41 -59 -33 -126q6 -47 30.5 -74.5t62.5 -27.5q32 0 53.5 19.5t21.5 52.5z" />
    <glyph glyph-name="editor-alignleft" unicode="&#xf206;" 
d="M307 384v51h-230v-51h230zM435 282v51h-358v-51h358zM307 179v51h-230v-51h230zM435 77v51h-358v-51h358z" />
    <glyph glyph-name="editor-aligncenter" unicode="&#xf207;" 
d="M358 384v51h-204v-51h204zM435 282v51h-358v-51h358zM358 179v51h-204v-51h204zM435 77v51h-358v-51h358z" />
    <glyph glyph-name="editor-alignright" unicode="&#xf208;" 
d="M435 384v51h-230v-51h230zM435 282v51h-358v-51h358zM435 179v51h-230v-51h230zM435 77v51h-358v-51h358z" />
    <glyph glyph-name="editor-insertmore" unicode="&#xf209;" 
d="M435 333v102h-358v-102h358zM154 230v52h-77v-52h77zM307 230v52h-102v-52h102zM435 230v52h-77v-52h77zM435 77v102h-358v-102h358z" />
    <glyph glyph-name="editor-spellcheck" unicode="&#xf210;" 
d="M406 441q9 0 18 -2q6 -3 16 -7l9 21q-20 10 -42.5 10t-39.5 -9.5t-25.5 -27.5t-8.5 -42q0 -38 18 -58.5t51 -20.5q23 0 41 7v22q-8 -3 -18 -5t-19 -2q-23 0 -35 14t-12 42t12.5 43t34.5 15zM166 307h27l-57 154h-27l-58 -154h27l14 43h59zM205 461v-154h55
q26 0 40.5 11.5t14.5 32.5q0 16 -7.5 24.5t-24.5 12.5v1q13 2 20.5 11t7.5 22q0 20 -14.5 29.5t-46.5 9.5h-45zM230 397v43h22q17 0 24.5 -5t7.5 -16t-7 -16.5t-23 -5.5h-24zM144 371h-44l14 40q5 17 8 28l8 -26zM230 377h25q17 0 25.5 -6t8.5 -18t-8.5 -18.5t-23.5 -6.5
h-27v49zM102 179l128 -128l231 205l-26 26l-205 -154l-102 77z" />
    <glyph glyph-name="editor-expand" unicode="&#xf211;" 
d="M179 307h154v-102h-154v102zM51 179v-102h103l-31 31l56 97l-97 -57zM358 77h103v102l-31 -31l-97 57l56 -97zM358 435l34 -33l-59 -95l97 57l31 -31v102h-103zM154 435h-103v-102l31 31l97 -57l-59 95z" />
    <glyph glyph-name="editor-kitchensink" unicode="&#xf212;" 
d="M486 461v-154h-460v154h460zM461 333v102h-410v-102h410zM128 410v-52h-51v52h51zM205 410v-52h-51v52h51zM282 410v-52h-52v52h52zM358 410v-52h-51v52h51zM435 410v-52h-51v52h51zM486 282v-231h-460v231h460zM461 77v179h-410v-179h410zM128 230v-51h-51v51h51z
M205 230v-51h-51v51h51zM282 230v-51h-52v51h52zM435 230v-51h-128v51h128zM282 154v-52h-205v52h205zM358 154v-52h-51v52h51zM435 154v-52h-51v52h51z" />
    <glyph glyph-name="editor-underline" unicode="&#xf213;" 
d="M358 384h-51v-146q0 -37 -18 -56.5t-45 -19.5t-45 19q-20 21 -20 56v147h-51v-150q0 -45 24 -77q30 -39 90.5 -39t91.5 39q24 31 24 76v151zM358 51v51h-230v-51h230z" />
    <glyph glyph-name="editor-justify" unicode="&#xf214;" 
d="M51 435h410v-51h-410v51zM51 333h410v-51h-410v51zM51 230h410v-51h-410v51zM51 128h410v-51h-410v51z" />
    <glyph glyph-name="editor-textcolor" unicode="&#xf215;" 
d="M339 128h48l-105 282h-52l-102 -282h48l28 77h107zM300 244h-82l38 125z" />
    <glyph glyph-name="editor-paste-word" unicode="&#xf216;" 
d="M317 461l67 -77v-26h-256v26l68 77h121zM256 384q11 0 18.5 7.5t7.5 18t-7.5 18t-18.5 7.5t-18.5 -7.5t-7.5 -18t7.5 -18t18.5 -7.5zM461 77v307q0 11 -7.5 18.5t-18.5 7.5h-39l14 -17v-60h-308v61l14 16h-39q-11 0 -18.5 -7.5t-7.5 -18.5v-307q0 -11 7.5 -18.5
t18.5 -7.5h358q11 0 18.5 7.5t7.5 18.5zM384 282l-51 -180h-51l-26 128l-26 -128h-53l-49 180h51l26 -128l25 128h52l25 -128l26 128h51z" />
    <glyph glyph-name="editor-paste-text" unicode="&#xf217;" 
d="M317 461l67 -77v-26h-256v26l68 77h121zM256 384q11 0 18.5 7.5t7.5 18t-7.5 18t-18.5 7.5t-18.5 -7.5t-7.5 -18t7.5 -18t18.5 -7.5zM396 410h39q11 0 18.5 -7.5t7.5 -18.5v-307q0 -11 -7.5 -18.5t-18.5 -7.5h-358q-11 0 -18.5 7.5t-7.5 18.5v307q0 11 7.5 18.5t18.5 7.5
h39l-14 -17v-60h308v60zM358 230v52h-204v-52h76v-128h52v128h76z" />
    <glyph glyph-name="editor-removeformatting" unicode="&#xf218;" 
d="M366 394l28 -28q16 -15 16 -38v-54q0 -22 -16 -37l-170 -170q-15 -16 -37.5 -16t-37.5 16l-57 56q-15 16 -15 38v54q0 23 15 38l170 170q15 15 37.5 15t37.5 -15zM207 146l164 165q8 7 8 17.5t-8 18.5l-55 55q-7 7 -18 7t-18 -7l-165 -164q-7 -8 -7 -19t7 -18l55 -55
q8 -7 18.5 -7t18.5 7z" />
    <glyph glyph-name="editor-video" unicode="&#xf219;" 
d="M410 461h-77v-26h-154v26h-77v-384h77v25h154v-25h77v384zM154 435v-25h-26v25h26zM384 435v-25h-26v25h26zM333 410v-128h-154v128h154zM154 384v-26h-26v26h26zM384 384v-26h-26v26h26zM154 333v-26h-26v26h26zM384 333v-26h-26v26h26zM154 282v-26h-26v26h26zM384 282
v-26h-26v26h26zM333 256v-128h-154v128h154zM154 230v-25h-26v25h26zM384 230v-25h-26v25h26zM154 179v-25h-26v25h26zM384 179v-25h-26v25h26zM154 128v-26h-26v26h26zM384 128v-26h-26v26h26z" />
    <glyph glyph-name="editor-customchar" unicode="&#xf220;" 
d="M256 374q49 0 74.5 -27.5t25.5 -80.5q0 -49 -18 -84q-14 -27 -56 -54v-51h153v51h-94q37 26 54 60q19 39 19 86q0 68 -42.5 107.5t-116 39.5t-115.5 -40t-42 -107q0 -47 19 -86q16 -33 53 -60h-93v-51h153v51q-21 14 -33 25q-16 15 -24 31q-17 33 -17 82q0 53 25.5 80.5
t74.5 27.5z" />
    <glyph glyph-name="editor-outdent" unicode="&#xf221;" 
d="M179 410v25h-102v-25h102zM435 384v51h-230v-51h230zM179 333h-51v51l-102 -90l102 -89v51h51v77zM435 307v51h-230v-51h230zM384 230v52h-179v-52h179zM435 154v51h-230v-51h230zM179 154v25h-102v-25h102zM282 77v51h-77v-51h77z" />
    <glyph glyph-name="editor-indent" unicode="&#xf222;" 
d="M77 384v51h230v-51h-230zM333 410v25h102v-25h-102zM333 333h51v51l102 -90l-102 -89v51h-51v77zM77 307v51h230v-51h-230zM128 230v52h179v-52h-179zM77 154v51h230v-51h-230zM333 154v25h102v-25h-102zM230 77v51h77v-51h-77z" />
    <glyph glyph-name="editor-help" unicode="&#xf223;" 
d="M435 256q0 49 -24 90t-65 65t-90 24t-90 -24t-65 -65t-24 -90t24 -90t65 -65t90 -24t90 24t65 65t24 90zM274 218h-40v11q0 14 6 24.5t23 23.5q15 11 20.5 18t5.5 16.5t-7.5 14.5t-20.5 5q-22 0 -51 -15l-16 33q33 19 70 19q31 0 49.5 -15t18.5 -40q0 -17 -7.5 -28.5
t-28.5 -26.5q-14 -11 -18 -16.5t-4 -14.5v-9zM236 148q-7 6 -7 19t7 19t19.5 6t19.5 -6.5t7 -18.5t-7 -19t-19.5 -7t-19.5 7z" />
    <glyph glyph-name="editor-strikethrough" unicode="&#xf224;" 
d="M405 198q10 0 18.5 2t19.5 5v-21q-18 -7 -41 -7q-33 0 -51 20q-15 17 -18 46h-24q5 -8 5 -20q0 -20 -14.5 -32t-39.5 -12h-55v64h-36l24 -64h-27l-15 43h-58l-15 -43h-27l24 64h-24v26h34l24 64h27l23 -64h46v64h45q18 0 29 -3q9 -2 16 -8q15 -9 15 -29q0 -13 -7 -22
l-2 -2h33q2 16 8 28q9 18 25 27.5t39 9.5t43 -10l-9 -21q-7 3 -16.5 6t-18.5 3q-21 0 -34 -15q-9 -11 -11 -28h75v-26h-75q2 -20 11 -30q12 -15 34 -15zM114 283l-5 -14h27l-8 20l-6 22q-4 -16 -8 -28zM230 311v-42h30q10 1 17 5t7 15.5t-8 16.5t-25 5h-21zM144 243v0h-44
h44zM280 243h-1h-49v-43h26q16 0 24 6t8 18.5t-8 18.5z" />
    <glyph glyph-name="editor-unlink" unicode="&#xf225;" 
d="M454 454q21 -21 28.5 -49.5t0 -57t-28.5 -49.5l-39 -39q-11 -12 -28 -20l-54 17l43 42l39 39q16 16 16 39t-16 39t-39 16t-39 -16l-20 -19l-61 -63l-17 55q8 16 20 27l39 39q21 21 49.5 28.5t57 0t49.5 -28.5zM51 410l205 -154l-154 205zM154 461l102 -205l-51 205h-51z
M51 358l205 -102l-205 51v51zM240 162l16 17l19 -60l-35 -36q-22 -21 -50 -28.5t-56.5 0t-50 29t-29 50t0 56.5t28.5 50l36 35l60 -19l-17 -16l-39 -40q-17 -16 -17 -38.5t16.5 -39t39 -16.5t38.5 17zM461 102l-205 154l154 -205zM358 51l-102 205l51 -205h51zM461 154
l-205 102l205 -51v-51z" />
    <glyph glyph-name="dashboard" unicode="&#xf226;" 
d="M96 102h320q21 27 33 60t12 68q0 56 -27.5 103t-74.5 74.5t-103 27.5t-103 -27.5t-74.5 -74.5t-27.5 -103q0 -35 12 -68t33 -60zM256 410q11 0 18.5 -7.5t7.5 -18.5t-7.5 -18.5t-18.5 -7.5t-18.5 7.5t-7.5 18.5t7.5 18.5t18.5 7.5zM154 358q10 0 17.5 -7.5t7.5 -18
t-7.5 -18t-18 -7.5t-18 7.5t-7.5 18t7.5 18t18.5 7.5zM358 358q11 0 18.5 -7.5t7.5 -18t-7.5 -18t-18 -7.5t-18 7.5t-7.5 18t7.5 18t17.5 7.5zM221 216l86 117v-154q0 -21 -15 -36t-36 -15t-36 15t-15 36.5t16 36.5zM102 256q11 0 18.5 -7.5t7.5 -18t-7.5 -18t-18 -7.5
t-18 7.5t-7.5 18t7.5 18t17.5 7.5zM410 256q10 0 17.5 -7.5t7.5 -18t-7.5 -18t-18 -7.5t-18 7.5t-7.5 18t7.5 18t18.5 7.5zM282 179q0 11 -7.5 18.5t-18.5 7.5t-18.5 -7.5t-7.5 -18t7.5 -18t18.5 -7.5t18.5 7.5t7.5 17.5z" />
    <glyph glyph-name="flag" unicode="&#xf227;" 
d="M128 51v384h-51v-384h51zM154 205v205q25 8 60 7q22 -1 68 -7q49 -7 75 -8q43 -1 78 8v-205q-26 -12 -69 -10q-25 1 -78 8q-49 7 -72 8q-38 2 -62 -6z" />
    <glyph glyph-name="menu-alt" unicode="&#xf228;" 
d="M77 230h358v52h-358v-52zM77 102h358v52h-358v-52zM77 410v-52h358v52h-358z" />
    <glyph glyph-name="leftright" unicode="&#xf229;" 
d="M77 255l153 103v-204zM282 358l153 -103l-153 -101v204z" />
    <glyph glyph-name="location" unicode="&#xf230;" 
d="M256 461q-42 0 -77 -21t-56 -56t-21 -77q0 -36 20 -70q16 -30 45 -55l5 -4q28 -23 43 -43q34 -44 41 -69q7 25 41 69q15 20 43 43l5 4q29 25 45 55q20 34 20 70q0 42 -21 77t-56 56t-77 21zM256 395q36 0 62 -25.5t26 -62t-26 -62.5t-62 -26t-62 26t-26 62.5t26 62
t62 25.5z" />
    <glyph glyph-name="location-alt" unicode="&#xf231;" 
d="M333 176l30 152q15 8 24.5 23t9.5 33q0 26 -19 45t-45.5 19t-45 -19t-18.5 -45q0 -18 9 -33t25 -23zM333 422q16 0 27 -11t11 -27t-11 -27t-27 -11t-27.5 11t-11.5 27t11.5 27t27.5 11zM377 300l84 34v-231l-125 -52l-157 52l-128 -51v230l128 52l110 -37l44 -186z" />
    <glyph glyph-name="images-alt" unicode="&#xf232;" 
d="M102 128v77h-51v256h307v-77h52v-77h51v-256h-307v77h-52zM282 435q-22 0 -37 -15t-15 -36h103q0 21 -15 36t-36 15zM102 230v128h-25v-128h25zM282 307h102q0 21 -15 36t-36 15t-36 -15t-15 -36zM154 154v128h-26v-128h26zM384 179q21 0 36 15t15 36.5t-15 36.5t-36 15
t-36 -15t-15 -36.5t15 -36.5t36 -15zM435 77v51q-42 0 -76 12q-20 7 -52 26.5t-52 26.5q-33 12 -76 12v-128h256z" />
    <glyph glyph-name="images-alt2" unicode="&#xf233;" 
d="M128 435h358v-281h-51v-52h-51v-51h-358v282h51v51h51v51zM461 179v231h-307v-231h307zM384 282q-21 0 -36 15t-15 36t15 36t36 15t36 -15t15 -36t-15 -36t-36 -15zM410 128v26h-282v204h-26v-230h308zM179 358l256 -153h-256v153zM358 77v25h-281v205h-26v-230h307z" />
    <glyph glyph-name="video-alt" unicode="&#xf234;" 
d="M205 384q0 11 -7.5 18.5t-18.5 7.5h-128q-10 0 -17.5 -7.5t-7.5 -18.5t7.5 -18.5t17.5 -7.5h128q11 0 18.5 7.5t7.5 18.5zM358 256l103 102v-256l-103 103v51zM333 154v153q0 11 -7.5 18.5t-18.5 7.5h-205q-10 0 -17.5 -7.5t-7.5 -18.5v-153q0 -11 7.5 -18.5t17.5 -7.5
h205q11 0 18.5 7.5t7.5 18.5z" />
    <glyph glyph-name="video-alt2" unicode="&#xf235;" 
d="M307 179v154q0 21 -15 36t-36 15h-179q-21 0 -36 -15t-15 -36v-154q0 -21 15 -36t36 -15h179q21 0 36 15t15 36zM333 243l153 -115v256l-153 -115v-26z" />
    <glyph glyph-name="video-alt3" unicode="&#xf236;" 
d="M486 128v256q0 21 -15 36t-36 15h-333q-21 0 -36 -15t-15 -36v-256q0 -21 15 -36t36 -15h333q21 0 36 15t15 36zM205 154v204l153 -102z" />
    <glyph glyph-name="share" unicode="&#xf237;" 
d="M371 205q32 0 54.5 -22.5t22.5 -54.5t-22.5 -54.5t-54.5 -22.5t-54.5 22.5t-22.5 54.5q0 9 3 18l-112 59q-23 -26 -56 -26t-55.5 22.5t-22.5 54.5t22.5 54.5t55 22.5t56.5 -26l112 59q-3 9 -3 18q0 32 22.5 54.5t54.5 22.5t54.5 -22.5t22.5 -54.5t-22.5 -54.5t-55 -22.5
t-55.5 26l-113 -59q3 -9 3 -18t-3 -18l113 -59q22 26 56 26z" />
    <glyph glyph-name="chart-line" unicode="&#xf238;" 
d="M461 422q0 -11 -6.5 -21t-17.5 -14v-336h-386l108 173q-5 9 -5 19q0 16 11 27.5t27 11.5t27 -11.5t11 -27.5q0 -4 -1 -9l37 -16q12 12 28 12q6 0 13 -2l92 164q-15 12 -15 30q0 16 11 27.5t27 11.5q7 0 14 -3l1 3v-3q11 -5 17.5 -14.5t6.5 -21.5zM412 77v285l-85 -151
q6 -9 6 -19q0 -16 -11.5 -27t-27.5 -11t-27 11t-11 27v2l-41 18q-11 -7 -23 -7q-6 0 -13 2l-82 -130h315z" />
    <glyph glyph-name="chart-area" unicode="&#xf239;" 
d="M461 51v315q12 6 18.5 18t6.5 26q0 21 -15 36t-36 15t-36 -15t-15 -36q0 -15 8 -27.5t21 -18.5l-106 -169q-13 10 -29 10t-29 -9t-19 -23l-54 39q3 9 3 18q0 22 -15 37t-36 15t-36 -15t-15 -37q0 -13 6.5 -24.5t18.5 -18.5l-76 -136h435zM435 435q11 0 18.5 -7.5t7.5 -18
t-7.5 -18t-18 -7.5t-18 7.5t-7.5 18t7.5 18t17.5 7.5zM128 256q11 0 18.5 -7.5t7.5 -18t-7.5 -18t-18.5 -7.5t-18.5 7.5t-7.5 18t7.5 18t18.5 7.5zM278 179q10 0 17.5 -7.5t7.5 -18t-7.5 -18t-18 -7.5t-18 7.5t-7.5 18t7.5 18t18.5 7.5z" />
    <glyph glyph-name="share-alt" unicode="&#xf240;" 
d="M415 364q9 -14 6 -29.5t-16 -24.5t-28.5 -6t-24.5 17q-6 7 -15 16t-17.5 15t-19 10.5t-21.5 6.5q-23 5 -46 0q-11 -2 -21.5 -6.5t-19.5 -10.5t-17.5 -14.5t-14.5 -17.5t-10 -19v-1q-4 -8 -6 -18h-118v76h68l3 6q10 15 23 28t29 23.5t33 18t35 10.5q39 8 78 0
q18 -3 35 -10.5t33 -18t29 -23.5t23 -28zM320 256q0 26 -19 45t-45 19t-45 -19t-19 -45t19 -45t45 -19t45 19t19 45zM97 148q-9 14 -6 29.5t16 24.5t28.5 6t24.5 -17q6 -7 15 -16t17.5 -15t18 -10t22.5 -7q22 -5 46 0q13 3 22.5 7t18.5 10t17 14t14.5 18t10.5 19v1q4 8 6 18
h118v-76h-68l-3 -6q-10 -15 -23 -28t-29 -23.5t-32.5 -17.5t-35.5 -11q-39 -8 -78 0q-19 4 -35.5 11t-32.5 17.5t-29 23.5t-23 28z" />
    <glyph glyph-name="share-alt2" unicode="&#xf242;" 
d="M461 307l-128 -102v76q-58 -1 -94 -14q-48 -18 -85 -62q5 69 50.5 108t128.5 44v78zM102 154h282v51l51 41v-144h-384v282h242q-70 -12 -113 -51h-78v-179z" />
    <glyph glyph-name="twitter" unicode="&#xf301;" 
d="M485 398q-19 -29 -47 -49v-12q0 -64 -31 -124q-32 -64 -90 -101q-64 -42 -146 -42q-78 0 -144 42q13 -1 23 -1q65 0 116 40q-30 1 -54 19t-33 46q9 -1 17 -1q12 0 25 3q-33 6 -54 32t-21 60v1q20 -11 42 -12q-19 13 -30.5 33.5t-11.5 45.5t13 47q35 -44 85.5 -70
t108.5 -28q-3 11 -3 21q0 39 27.5 66.5t66.5 27.5q20 0 38 -8t31 -22q32 7 59 23q-11 -34 -41 -52q27 3 54 15z" />
    <glyph glyph-name="twitter-alt" unicode="&#xf302;" 
d="M356 159h-138q-8 0 -8 10v77h146q21 0 37.5 15.5t16.5 38t-16.5 38t-37.5 15.5h-146v54q0 23 -16.5 38.5t-39 15.5t-37.5 -15.5t-15 -38.5v-235q0 -54 30 -86q30 -33 88 -35h138q22 0 38 16.5t16 37.5q-2 23 -18.5 38.5t-37.5 15.5z" />
    <glyph glyph-name="rss" unicode="&#xf303;" 
d="M382 51h79q0 109 -56 203q-55 92 -147 145q-96 55 -207 55v-77q90 0 167 -44q75 -44 119 -117q45 -76 45 -165zM243 51h79q0 72 -36.5 133.5t-99 97t-135.5 35.5v-77q39 0 73.5 -14t62 -41t42 -61.5t14.5 -72.5zM106 52q22 0 38 15.5t16 37.5t-16 38t-38.5 16t-38.5 -16
t-16 -38t16 -37.5t39 -15.5z" />
    <glyph glyph-name="facebook" unicode="&#xf304;" 
d="M74 461h364q10 0 16.5 -6.5t6.5 -16.5v-364q0 -10 -6.5 -16.5t-16.5 -6.5h-104v159h53l8 62h-61v39q0 15 6.5 22.5t24.5 7.5h32v56q-17 2 -47 2q-37 0 -58.5 -21.5t-21.5 -60.5v-45h-53v-62h53v-159h-196q-9 0 -16 6.5t-7 16.5v364q0 10 7 16.5t16 6.5z" />
    <glyph glyph-name="facebook-alt" unicode="&#xf305;" 
d="M217 51h75v187h62l10 73h-72v46q0 18 6 26q9 10 30 10h38v65q-24 3 -56 3q-42 0 -67.5 -25.5t-25.5 -70.5v-54h-63v-73h63v-187z" />
    <glyph glyph-name="camera" unicode="&#xf306;" 
d="M154 384v51h-77v-51h77zM461 128v282h-231l-51 -52h-128v-230h410zM282 333q31 0 53.5 -22.5t22.5 -54.5t-22.5 -54.5t-54 -22.5t-54 22.5t-22.5 54.5t22.5 54.5t54.5 22.5z" />
    <glyph glyph-name="groups" unicode="&#xf307;" 
d="M206 398q-4 -17 1.5 -38t17.5 -35q14 -16 31 -16t30 15t18.5 36t1.5 38.5t-18.5 29.5t-31.5 12t-31.5 -12t-18.5 -30zM100 375q-3 -14 1.5 -32t15.5 -30.5t25.5 -12.5t25.5 12.5t16 30.5t1.5 32.5t-16 24.5t-27 10t-27 -10t-15.5 -25zM327 375q-4 -14 1 -32t16 -30.5
t25.5 -12.5t25.5 12.5t15.5 30.5t1 32.5t-15.5 24.5t-26.5 10t-27 -10t-15.5 -25zM312 82l32 110q14 47 -10.5 75t-77.5 28t-78 -28t-10 -75l32 -110q5 -13 20.5 -22t35 -9t35.5 9t21 22zM155 278q-27 -38 -10 -92l28 -97q-13 -8 -30 -8t-30.5 7t-17.5 19l-27 93
q-12 40 9 63.5t66 23.5q10 0 20 -1zM369 287q45 0 66 -23.5t9 -63.5l-27 -93q-4 -12 -17.5 -19t-30.5 -7t-31 8l29 96q17 55 -11 93q-3 4 -7 8q10 1 20 1z" />
    <glyph glyph-name="hammer" unicode="&#xf308;" 
d="M453 350l36 -36l-89 -87l-36 36l22 21q-14 33 -39 59l-118 -169l-135 -120q-7 -7 -17.5 -7t-18.5 7l-31 31q-7 7 -7 18t7 18l281 254q-59 37 -145 38q105 32 168 8q27 -11 53 -36q15 -15 41 -49l6 -7z" />
    <glyph glyph-name="art" unicode="&#xf309;" 
d="M219 434q7 -3 5 -10q-1 -4 -9 -15q-12 -18 -14 -28q-3 -16 15 -27q12 -8 35 8q14 9 43 35q26 24 36 30q23 12 46 7q30 -6 44.5 -38.5t9.5 -86.5q-5 -58 -30 -109q-29 -58 -76 -88q-50 -31 -105.5 -32.5t-101.5 25t-67 75.5q-19 42 -8 93q9 47 39 88.5t67 61.5
q38 22 71 11zM250 269q7 -16 25.5 -15.5t39 13.5t29.5 31q11 22 3 42q-5 14 -23 11t-38 -17.5t-31 -31.5q-11 -19 -5 -33z" />
    <glyph glyph-name="migrate" unicode="&#xf310;" 
d="M102 358h154v52h-205v-308h205v52h-154v204zM154 307h153v77l154 -128l-154 -128v77h-153v102z" />
    <glyph glyph-name="performance" unicode="&#xf311;" 
d="M96 77h320q45 56 45 128q0 55 -27.5 102t-74.5 75t-103 28t-103 -28t-74.5 -75t-27.5 -102q0 -72 45 -128zM230 358q0 11 7.5 18.5t18.5 7.5t18.5 -7.5t7.5 -18t-7.5 -18t-18.5 -7.5t-18.5 7.5t-7.5 17.5zM102 307q0 11 7.5 18.5t18.5 7.5t18.5 -7.5t7.5 -18.5t-7.5 -18
t-18.5 -7t-18.5 7t-7.5 18zM218 220q14 13 92 53q38 20 75 37v0l-37 -76q-39 -78 -53 -91q-16 -16 -38.5 -16t-38.5 16t-16 38.5t16 38.5zM77 179q0 11 7.5 18.5t18 7.5t18 -7.5t7.5 -18.5t-7.5 -18t-18 -7t-18 7t-7.5 18zM230 179q0 11 7.5 18.5t18.5 7.5t18.5 -7.5
t7.5 -18.5t-7.5 -18t-18.5 -7t-18.5 7t-7.5 18zM384 179q0 11 7.5 18.5t18 7.5t18 -7.5t7.5 -18.5t-7.5 -18t-18 -7t-18 7t-7.5 18z" />
    <glyph glyph-name="products" unicode="&#xf312;" 
d="M435 307h26v-281h-410v281h26v51q0 35 17 64.5t46.5 46.5t64.5 17q27 0 51 -10q24 10 51 10q35 0 64.5 -17t46.5 -46.5t17 -64.5v-51zM128 358v-51h51v51q0 42 26 77v0q-32 0 -54.5 -22.5t-22.5 -54.5zM384 307v51q0 32 -22.5 54.5t-54.5 22.5v0q26 -35 26 -77v-51h51z
M256 415q-26 -23 -26 -57v-51h52v51q0 34 -26 57z" />
    <glyph glyph-name="awards" unicode="&#xf313;" 
d="M114 380l14 -59l-14 -59l52 -31l31 -52l59 14l59 -14l31 52l52 31l-14 59l14 59l-51 32l-32 51l-59 -14l-59 14l-32 -51zM256 218q-42 0 -72 30t-30 72.5t30 72t72 29.5t72 -30t30 -72t-29.5 -72t-72.5 -30zM256 243q-32 0 -54.5 22.5t-22.5 54.5t22.5 54.5t54.5 22.5
t54.5 -22.5t22.5 -54.5t-22.5 -54.5t-54.5 -22.5zM354 215l-33 -57l-53 12l65 -150l36 57h64zM157 213l32 -57l54 13l-64 -149l-36 57h-64z" />
    <glyph glyph-name="forms" unicode="&#xf314;" 
d="M51 461h179v-179h-179v179zM282 461v-179h179v179h-179zM141 397l38 38h-77zM307 307v128h128v-128h-128zM115 371l-38 39v-77zM205 410l-39 -39l39 -38v77zM141 346l-39 -39h77zM230 51v179h-179v-179h179zM461 51h-179v179h179v-179zM205 205v-128h-128v128h128z
M371 166l39 39h-77zM307 102l39 39l-39 38v-77zM397 141l38 -39v77zM371 115l-38 -38h77z" />
    <glyph glyph-name="download" unicode="&#xf316;" 
d="M359 410v-154h51v205h-308v-205h52v154h205zM307 358v-153h77l-128 -154l-128 154h77v153h102z" />
    <glyph glyph-name="upload" unicode="&#xf317;" 
d="M205 154v153h-77l128 154l128 -154h-77v-153h-102zM154 102v154h-52v-205h308v205h-52v-154h-204z" />
    <glyph glyph-name="category" unicode="&#xf318;" 
d="M128 333h333v-256h-410v333h179l52 -52h-180v-230h26v205z" />
    <glyph glyph-name="admin-site" unicode="&#xf319;" 
d="M230 512q-62 0 -115 -31t-84 -84t-31 -115.5t31 -115.5t84 -84t115.5 -31t115.5 31t84 84t31 115.5t-31 115.5t-84 84t-116 31zM319 206q0 -76 -104 -120q2 34 -6 56q-6 19 -20 31q-9 7 -27 17q-12 7 -17 11q-8 6 -12 13q3 21 15 38.5t31 26.5q-61 10 -107 51
q2 -19 17 -31q-31 12 -50 39q19 62 70 101.5t116 42.5q-12 -20 -19 -45q-7 -28 -3 -52q4 -29 22 -46q-13 -2 -27 4q-8 4 -22 13.5t-20 10.5q-10 4 -18 -3q-14 -14 -7.5 -29.5t32 -29t65 -20.5t60.5 -19q19 -10 26 -26q5 -12 5 -34zM353 308q-10 35 44 81q26 -38 31.5 -83
t-10.5 -88q-7 17 -18 31q-7 9 -20 23q-12 11 -16 17q-8 10 -11 20v-1z" />
    <glyph glyph-name="editor-rtl" unicode="&#xf320;" 
d="M333 461h-192q-32 0 -58.5 -15.5t-41.5 -42t-15 -58t15 -58t41.5 -42t58.5 -15.5h13v-153q0 -10 8 -18t17.5 -8t17.5 8t8 18v307q0 10 8 18t17.5 8t17.5 -8t8 -18v-307q0 -10 8 -18t17.5 -8t17.5 8t8 18v333h26q9 0 17 8t8 17.5t-8 17.5t-17 8zM358 256l128 -102v204z
" />
    <glyph glyph-name="backup" unicode="&#xf321;" 
d="M349 438q50 -25 79 -71t32.5 -100.5t-22 -104t-71.5 -78.5t-100.5 -32.5t-103.5 22.5q-36 18 -61 47t-38 65l42 27q9 -31 29 -56t50 -41q37 -19 79 -16.5t77 25t54.5 60t17 79.5t-25 77t-60 54.5t-79.5 17t-77 -25t-54 -60.5l48 -24l-127 -79l-10 149l46 -24q25 50 71 79
t100.5 32t103.5 -22zM238 238q-8 7 -8 18l1 5v0l25 123l25 -123l77 -82l-115 54l1 1q-4 2 -6 4z" />
    <glyph glyph-name="portfolio" unicode="&#xf322;" 
d="M102 384h-82q-8 0 -13.5 -6t-4.5 -16l40 -255l25 100q26 105 32 133q2 10 9 14t16 4h132l-20 60q-5 17 -20 17h-84q-8 0 -13.5 -4.5t-7.5 -11.5zM227 384h-102l7 13q8 13 15 13h55q7 0 17 -13zM68 96q-12 -19 -32 -19h403q10 0 17 5.5t9 15.5l43 216q1 9 -4 14t-12 5h-82
v37q0 4 -5 9t-12 5h-97q-8 0 -16 -7q-4 -4 -6 -8l-18 -36h-113q-6 0 -11 -3.5t-7 -9.5l-44 -188q-4 -23 -13 -36zM394 333h-112l4 6q5 8 11 13q7 6 14 6h58q12 0 19 -12q4 -7 6 -13v0z" />
    <glyph glyph-name="tag" unicode="&#xf323;" 
d="M282 461h179v-179l-256 -256l-179 179zM358 307q22 0 37 15t15 36.5t-15 36.5t-36.5 15t-36.5 -15t-15 -36.5t15 -36.5t36 -15z" />
    <glyph glyph-name="wordpress-alt" unicode="&#xf324;" 
d="M512 256q0 69 -34.5 128t-93.5 93.5t-128 34.5t-128 -34.5t-93.5 -93.5t-34.5 -128.5t34.5 -128t93 -93t128 -34.5t128.5 34.5t93.5 93.5t34.5 128zM199 119l-87 234l30 2q6 1 8 8t-1 13.5t-9 6.5l-21 -1q-25 -2 -39 -2l-15 1q31 47 81.5 75t109.5 28q44 0 84 -16t71 -44
q-15 2 -28 -8q-14 -12 -14 -33q0 -11 5 -23q4 -8 13 -24l5 -7q14 -24 14 -63q0 -23 -18 -78q-9 -27 -18 -50v0l-78 215q9 0 16 2l5 2q6 1 8 9t-0.5 15.5t-8.5 6.5l-22 -1q-24 -2 -39 -2q-22 0 -60 3v0q-6 1 -8.5 -7t-0.5 -16t8 -8l23 -2l33 -87zM446 256v1q8 21 11 38
q5 31 0 70q27 -50 27 -109q0 -63 -30.5 -116t-82.5 -83zM156 49q-58 28 -93 84t-35 123q0 50 19 92zM259 219l66 -179q-34 -12 -69 -12q-31 0 -59 9z" />
    <glyph glyph-name="networking" unicode="&#xf325;" 
d="M461 179h25q11 0 18.5 -7.5t7.5 -18.5v-76q0 -11 -7.5 -18.5t-18.5 -7.5h-102q-11 0 -18.5 7.5t-7.5 18.5v76q0 11 7.5 18.5t18.5 7.5h26v51h-128v-51h25q11 0 18.5 -7.5t7.5 -18.5v-76q0 -11 -7.5 -18.5t-18.5 -7.5h-102q-11 0 -18.5 7.5t-7.5 18.5v76q0 11 7.5 18.5
t18.5 7.5h25v51h-128v-51h26q11 0 18.5 -7.5t7.5 -18.5v-76q0 -11 -7.5 -18.5t-18.5 -7.5h-102q-11 0 -18.5 7.5t-7.5 18.5v76q0 11 7.5 18.5t18.5 7.5h25v51q0 22 15 37t36 15h128v51h-25q-11 0 -18.5 7.5t-7.5 18.5v76q0 11 7.5 18.5t18.5 7.5h102q11 0 18.5 -7.5
t7.5 -18.5v-76q0 -11 -7.5 -18.5t-18.5 -7.5h-25v-51h128q21 0 36 -15t15 -37v-51z" />
    <glyph glyph-name="translation" unicode="&#xf326;" 
d="M282 333h-39q-12 0 -23 -5t-18 -13l-23 69h-73l-61 -179h43l19 51h72v-102h-128q-21 0 -36 15t-15 36v179q0 21 15 36t36 15h179q22 0 37 -15t15 -36v-51zM167 282h-52l26 75zM256 307h179q21 0 36 -15t15 -36v-179q0 -21 -15 -36t-36 -15h-179q-21 0 -36 15t-15 36v179
q0 21 15 36t36 15zM442 179v28h-82v55h-29v-55h-81v-28h32q3 -17 11.5 -34.5t21.5 -32.5q-16 -7 -33.5 -11.5t-25.5 -4.5l1 -4q5 -24 4 -33q16 0 39.5 8.5t44.5 20.5q21 -12 45 -20.5t41 -8.5q-1 10 4 35l1 2q-9 0 -26.5 5t-34.5 11q13 15 21.5 33t10.5 34h35zM344 130
q-20 18 -26 49h54q-7 -31 -26 -49l-1 -1z" />
    <glyph glyph-name="edit-large" unicode="&#xf327;" 
d="M164 151l33 -33l177 176l-34 34zM325 343l-33 33l-177 -176l36 -36zM379 463l84 -84q11 -11 10.5 -26t-10.5 -25l-253 -254l-177 -36l36 177q238 242 254 253q12 9 28.5 7.5t27.5 -12.5z" />
    <glyph glyph-name="smiley" unicode="&#xf328;" 
d="M179 379q21 0 36 -15t15 -36q0 -14 -7 -26l-12 3q-16 2 -32 2q-25 0 -44 -5v0q-7 12 -7 26q0 21 15 36t36 15zM333 379q21 0 36 -15t15 -36q0 -14 -7 -26l-13 3q-15 2 -31 2q-26 0 -44 -5v0q-7 12 -7 26q0 21 14.5 36t36.5 15zM256 28q71 0 129.5 41.5t81.5 109.5l-34 11
q-19 -56 -68 -91t-109 -35t-109 35t-68 91l-34 -11q23 -68 81.5 -109.5t129.5 -41.5z" />
    <glyph glyph-name="menu-alt2" unicode="&#xf329;" 
d="M128 128h256v51h-256v-51zM128 384v-51h256v51h-256zM128 230h256v52h-256v-52z" />
    <glyph glyph-name="book" unicode="&#xf330;" 
d="M410 435h51v-409h-333q-32 0 -54.5 22.5t-22.5 53.5v308q0 31 22.5 53.5t54.5 22.5h230v-358h-230q-11 0 -18.5 -7.5t-7.5 -18t7.5 -18t18.5 -7.5h282v358z" />
    <glyph glyph-name="book-alt" unicode="&#xf331;" 
d="M128 77h333v-51h-333q-32 0 -54.5 22.5t-22.5 53.5v308q0 31 22.5 53.5t54.5 22.5h333v-358h-333q-11 0 -18.5 -7.5t-7.5 -18t7.5 -18t18.5 -7.5zM179 166v282q0 5 -3.5 9t-9 4t-9 -4t-3.5 -9v-282q0 -5 3.5 -8.5t9 -3.5t9 3.5t3.5 8.5z" />
    <glyph glyph-name="shield" unicode="&#xf332;" 
d="M256 461l14 -8q17 -10 37 -18q28 -11 57 -17q36 -8 71 -8q0 -126 -46 -218q-33 -67 -87 -110q-26 -22 -46 -31l-8 4q-10 5 -20 13q-15 10 -29 22q-17 16 -33 35q-18 22 -32 47q-17 30 -29 63q-14 37 -20 78q-8 46 -8 97q64 0 128 25q32 13 51 26v0zM256 256h128l4 6
q5 8 9 20q5 16 9 39q4 28 4 63l-35 8q-39 9 -68 19q-40 13 -51 24v-179h-128q9 -35 31 -71q17 -29 43 -57q18 -20 38 -38l16 -13v179z" />
    <glyph glyph-name="menu" unicode="&#xf333;" 
d="M77 128h358v51h-358v-51zM77 384v-51h358v51h-358zM77 230h358v52h-358v-52z" />
    <glyph glyph-name="shield-alt" unicode="&#xf334;" 
d="M256 461l14 -8q17 -10 37 -18q28 -11 57 -17q36 -8 71 -8q0 -126 -46 -218q-33 -67 -87 -110q-26 -22 -46 -31l-8 4q-10 5 -20 13q-15 10 -29 22q-17 16 -33 35q-18 22 -32 47q-17 30 -29 63q-14 37 -20 78q-8 46 -8 97q64 0 128 25q32 13 51 26v0z" />
    <glyph glyph-name="no-alt" unicode="&#xf335;" 
d="M383 347l-91 -91l91 -91l-36 -36l-91 91l-90 -91l-37 37l91 90l-91 90l37 37l90 -91l91 91z" />
    <glyph glyph-name="id" unicode="&#xf336;" 
d="M461 102h-410v308h410v-308zM180 294q5 2 9 6t6 8l4 10l3 9l2 8q2 12 -1 23t-12 18.5t-22 7.5q-8 0 -14.5 -3t-10.5 -8t-6.5 -11t-3.5 -13v-14l5 -17q2 -5 5 -10t6.5 -8.5t8 -6t10.5 -2.5t11 3zM435 282v102h-128v-102h128zM169 260l-35 23q-15 0 -29 -8.5t-21 -21.5
t-7 -27v-32l5 -2q6 -2 14 -3q11 -3 20 -4.5t26 -3.5q14 -2 27 -2t28 2q12 1 25 3l21 5l19 5v32q0 14 -8 27.5t-21.5 21.5t-28.5 8zM435 230v26h-128v-26h128zM435 179v26h-128v-26h128zM435 128v26h-358v-26h358z" />
    <glyph glyph-name="id-alt" unicode="&#xf337;" 
d="M461 51h-410v410h410v-410zM206 319q5 3 8.5 6.5t6.5 8.5l4 10l3 8l1 9q2 11 -1 22.5t-11.5 19t-21.5 7.5q-8 0 -15 -3t-11 -8t-6.5 -11t-2.5 -13q-1 -5 0 -14l5 -17q1 -5 4 -10t6.5 -9t8.5 -6t11 -2t11 2zM410 384v26h-128v-26h128zM410 333v25h-128v-25h128zM195 286
l-35 22q-16 0 -29.5 -8t-21 -21.5t-7.5 -27.5v-32l6 -1q6 -2 14 -4q10 -2 19.5 -4t26.5 -4q14 -1 27 -1t27 1l26 4l21 4l19 5v32q0 14 -8 27.5t-21.5 22t-28.5 8.5zM410 282v25h-77v-25h77zM410 230v26h-77v-26h77zM410 154v25h-308v-25h308zM410 102v26h-308v-26h308z" />
    <glyph glyph-name="businessman" unicode="&#xf338;" 
d="M435 79v64q0 32 -13 54q-17 30 -41 44q-11 8 -37 12q-18 3 -37 3l-41 -44l16 -33v-77l-26 -28l-26 28v77l18 33l-43 44q-21 0 -40 -3q-25 -4 -37 -11.5t-22 -19.5q-7 -9 -16 -25q-8 -13 -10.5 -25t-2.5 -29v-64l21 -7q28 -8 61 -13q47 -8 97 -8q70 0 132 14q31 7 47 14v0
zM256 458q-36 0 -55.5 -29t-13.5 -68t24.5 -63t44.5 -24t44.5 24t24.5 64t-13.5 68t-55.5 28z" />
    <glyph glyph-name="lightbulb" unicode="&#xf339;" 
d="M256 486q39 0 72 -19t52.5 -52t19.5 -72q0 -21 -13 -52q-10 -22 -25 -46l-14 -20q-6 -8 -10.5 -21.5t-4.5 -24.5v-25q0 -11 -7.5 -18.5t-18.5 -7.5h-102q-11 0 -18.5 7.5t-7.5 18.5v25q0 11 -4.5 24.5t-10.5 21.5l-14 20q-15 24 -24 46q-14 31 -14 52q0 39 19.5 72
t52.5 52t72 19zM179 80v22h154v-22q0 -13 -4 -21t-15 -8h-7q0 -12 -7 -18.5t-19 -6.5h-51q-12 0 -18.5 6.5t-6.5 18.5h-7q-11 0 -15 8t-4 21z" />
    <glyph glyph-name="arrow-left-alt" unicode="&#xf340;" 
d="M461 282v-52h-307l102 -102l-26 -51l-179 179l179 179l26 -51l-102 -102h307z" />
    <glyph glyph-name="arrow-left-alt2" unicode="&#xf341;" 
d="M358 384l-128 -128l128 -128l-25 -51l-179 179l179 179z" />
    <glyph glyph-name="arrow-up-alt" unicode="&#xf342;" 
d="M282 51h-52v307l-102 -102l-51 26l179 179l179 -179l-51 -26l-102 102v-307z" />
    <glyph glyph-name="arrow-up-alt2" unicode="&#xf343;" 
d="M384 154l-128 128l-128 -128l-51 25l179 179l179 -179z" />
    <glyph glyph-name="arrow-right-alt" unicode="&#xf344;" 
d="M51 230v52h307l-102 102l26 51l179 -179l-179 -179l-26 51l102 102h-307z" />
    <glyph glyph-name="arrow-right-alt2" unicode="&#xf345;" 
d="M154 128l128 128l-128 128l25 51l179 -179l-179 -179z" />
    <glyph glyph-name="arrow-down-alt" unicode="&#xf346;" 
d="M230 461h52v-307l102 102l51 -26l-179 -179l-179 179l51 26l102 -102v307z" />
    <glyph glyph-name="arrow-down-alt2" unicode="&#xf347;" 
d="M128 358l128 -128l128 128l51 -25l-179 -179l-179 179z" />
    <glyph glyph-name="info" unicode="&#xf348;" 
d="M256 461q56 0 103 -27.5t74.5 -74.5t27.5 -103t-27.5 -103t-74.5 -74.5t-103 -27.5t-103 27.5t-74.5 74.5t-27.5 103t27.5 103t74.5 74.5t103 27.5zM282 358q0 11 -7.5 18.5t-18.5 7.5t-18.5 -7.5t-7.5 -18t7.5 -18t18.5 -7.5t18.5 7.5t7.5 17.5zM282 128v154h-52v-154
h52z" />
    <glyph glyph-name="menu-alt3" unicode="&#xf349;" 
d="M512 384v77h-512v-77h512zM512 230v77h-512v-77h512zM512 77v77h-512v-77h512z" />
    <glyph glyph-name="buddicons-buddypress-logo" unicode="&#xf448;" 
d="M256 512q70 0 128.5 -34.5t93 -93t34.5 -128.5t-34.5 -128.5t-93 -93t-128.5 -34.5t-128.5 34.5t-93 93t-34.5 128.5t34.5 128.5t93 93t128.5 34.5zM256 499q-66 0 -122 -32.5t-88.5 -88.5t-32.5 -122t32.5 -122t88.5 -88.5t122 -32.5t122 32.5t88.5 88.5t32.5 122
t-32.5 122t-88.5 88.5t-122 32.5zM256 474q59 0 109 -29.5t79.5 -79.5t29.5 -109t-29.5 -109t-79.5 -79.5t-109 -29.5t-109 29.5t-79.5 79.5t-29.5 109t29.5 109t79.5 79.5t109 29.5zM302 430q-21 0 -40 -12q31 -7 50.5 -31.5t19.5 -56.5q0 -26 -14 -48q26 6 42.5 26
t16.5 47q0 31 -22 53t-53 22zM241 404q-31 0 -53 -22t-22 -53t22 -53t53 -22t53 22t22 53t-22 53t-53 22zM350 276l-13 -15q20 -6 35 -22q12 -13 19 -31q5 -13 7 -28l2 -12h32q0 54 -21 82q-15 20 -40 25q-12 2 -21 1v0zM296 255l-54 -53l-54 53q-37 -1 -60 -22
q-17 -16 -25 -43q-5 -20 -5 -43l2 -19h283q4 36 -4 62q-7 23 -21 38q-12 12 -28 19q-11 5 -24 7z" />
    <glyph glyph-name="buddicons-forums" unicode="&#xf449;" 
d="M346 333h-180q-16 0 -27 11t-11 27t11 27.5t27 11.5h41q-2 7 -2 12q0 16 11 27.5t27 11.5h26q16 0 27 -11.5t11 -27.5q0 -5 -2 -12h41q16 0 27 -11.5t11 -27.5t-11 -27t-27 -11zM102 307h308q10 0 17.5 -7.5t7.5 -18t-7.5 -18t-17.5 -7.5h-308q-10 0 -17.5 7.5t-7.5 18
t7.5 18t17.5 7.5zM128 230h256q11 0 18.5 -7.5t7.5 -18t-7.5 -18t-18.5 -7.5h-256q-11 0 -18.5 7.5t-7.5 18t7.5 18t18.5 7.5zM179 154h154q10 0 17.5 -7.5t7.5 -18.5t-7.5 -18.5t-17.5 -7.5h-28q2 -7 2 -12q0 -16 -11 -27.5t-27 -11.5h-26q-16 0 -27 11.5t-11 27.5
q0 5 2 12h-28q-10 0 -17.5 7.5t-7.5 18.5t7.5 18.5t17.5 7.5z" />
    <glyph glyph-name="buddicons-topics" unicode="&#xf450;" 
d="M267 470q-11 11 -27 11t-27 -11l-145 -145q-11 -12 -11 -27.5t11 -27t27 -11.5t27 11l145 145q11 11 11.5 27t-11.5 28zM340 397q-12 11 -27.5 11t-27.5 -11l-144 -145q-12 -11 -12 -27t11.5 -27t27.5 -11t27 11l145 145q11 11 11 27t-11 27zM367 225l107 -107
q11 -11 11 -27t-11 -27.5t-27 -11.5t-27 12l-107 107l-46 -46q-11 -11 -27 -11t-27 11.5t-11 27.5t11 27l145 145q11 11 27 11t27 -11.5t11 -27t-11 -27.5zM128 128q0 18 -11 45q-8 19 -20 40l-11 17l-9 -19q-11 -24 -17 -43q-9 -26 -9 -40q0 -23 10 -37t25 -14h8
q34 0 34 51z" />
    <glyph glyph-name="buddicons-replies" unicode="&#xf451;" 
d="M449 249q22 -23 22 -55t-22.5 -54.5t-54 -22.5t-54.5 23l-8 13q0 -38 -12 -66q-9 -21 -27 -37q-9 -8 -28 -19l-9 -5l-11 6q-18 12 -28 20q-16 16 -25 37q-12 27 -12 64l-8 -13q-23 -23 -54.5 -23t-54 22.5t-22.5 54.5t22 55l16 10q20 13 38 23q-35 47 -35 105q0 12 2 26
q5 -34 21.5 -63t42.5 -50q14 7 33 14t28 9h-4q-21 0 -36 15t-15 36t15 36t36 15v13q0 6 3.5 9.5t9 3.5t9 -3.5t3.5 -9.5v-13h52v13q0 6 3.5 9.5t9 3.5t9 -3.5t3.5 -9.5v-13q21 0 36 -15t15 -36t-15 -36t-36 -15h-4q9 -2 28.5 -9.5t32.5 -13.5q26 21 43 50t21 63q2 -14 2 -26
q0 -58 -34 -105q27 -16 53 -33v0zM218 349q9 0 17 7.5t8 18t-7.5 18t-18 7.5t-18 -7.5t-7.5 -18t7.5 -18t18.5 -7.5zM294 400q-10 0 -17.5 -7.5t-7.5 -18t7.5 -18t18 -7.5t18 7.5t7.5 18t-7.5 18t-18.5 7.5zM236 253q-5 -4 -5 -10t3.5 -9.5t8.5 -3.5h26q5 0 8.5 3.5t3.5 9
t-5 10.5q-3 3 -7 3h-26q-4 0 -7 -3zM307 192q0 6 -4.5 9.5t-8.5 3.5h-76q-4 0 -8.5 -4t-4.5 -9t3.5 -9t9.5 -4h76q6 0 9.5 4t3.5 9zM218 128h76q6 0 9.5 3.5t3.5 9t-3.5 9.5t-9.5 4h-76q-6 0 -9.5 -4t-3.5 -9.5t3.5 -9t9.5 -3.5zM243 77h26q5 0 9 3.5t4 9t-4 9t-9 3.5h-26
q-5 0 -9 -3.5t-4 -9t4 -9t9 -3.5z" />
    <glyph glyph-name="buddicons-activity" unicode="&#xf452;" 
d="M205 486v-179h51v51q0 30 23.5 53.5t53.5 23.5v-22q23 22 51 22v-77h26q21 0 36 -15t15 -36t-15 -36t-36 -15h-26v-154q0 -10 -7.5 -17.5t-18 -7.5t-18 7.5t-7.5 17.5v56q-13 -4 -26 -4v-52q0 -10 -7.5 -17.5t-18 -7.5t-18 7.5t-7.5 17.5v52h-51v-52q0 -10 -7.5 -17.5
t-18 -7.5t-18 7.5t-7.5 17.5v52q-13 0 -26 4v-56q0 -10 -7.5 -17.5t-18 -7.5t-18 7.5t-7.5 17.5v103h-26v25q0 32 22.5 54.5t54.5 22.5h51v179h26zM333 307q10 0 17.5 7.5t7.5 18t-7.5 18t-18 7.5t-18 -7.5t-7.5 -18t7.5 -18t18.5 -7.5z" />
    <glyph glyph-name="buddicons-community" unicode="&#xf453;" 
d="M230 435q0 24 -25 51q-10 -10 -18 -24.5t-8 -25t8 -18.5t18 -8t17.5 7.5t7.5 17.5zM333 435q0 24 -26 51q-10 -10 -17.5 -24.5t-7.5 -25t7.5 -18.5t18 -8t18 7.5t7.5 17.5zM230 282v89q0 11 -7.5 18.5t-18 7.5t-18 -8t-7.5 -18v-89q0 -11 7.5 -18.5t18 -7.5t18 8t7.5 18z
M333 282v89q0 11 -7.5 18.5t-18 7.5t-18 -8t-7.5 -18v-89q0 -11 7.5 -18.5t18 -7.5t18 8t7.5 18zM435 256q0 28 -24.5 51.5t-64.5 37.5v-63q0 -16 -11.5 -27.5t-27.5 -11.5t-27 11.5t-11 27.5v76h-26v-76q0 -16 -11 -27.5t-27 -11.5t-27.5 11.5t-11.5 27.5v63
q-40 -14 -64.5 -37.5t-24.5 -51.5t19 -50q21 -23 63 -36q8 -3 27 -10q22 -9 34 -13q19 -6 36 -6t37 6q11 4 34 13q18 7 26 10q42 13 62 35.5t20 50.5zM256 117q16 0 36 6q12 3 33 11.5t30 10.5q33 10 52 26q13 11 28 34v-77q0 -28 -24 -51.5t-65 -37t-90 -13.5t-90 13.5
t-65 37t-24 51.5v77q14 -23 29 -34q19 -17 51 -26q9 -2 29 -10q22 -9 34 -12q20 -6 36 -6z" />
    <glyph glyph-name="buddicons-friends" unicode="&#xf454;" 
d="M224 364q0 16 -12 41q-8 18 -21 39l-12 17l-11 -17q-14 -21 -22 -39q-12 -25 -12 -41q0 -25 11.5 -34.5t34 -9.5t33.5 9.5t11 34.5zM378 364q0 16 -12 41q-8 18 -22 39l-11 17l-12 -17q-13 -21 -21 -39q-12 -25 -12 -41q0 -25 11 -34.5t33.5 -9.5t34 9.5t11.5 34.5z
M230 77v205q0 10 -7.5 17.5t-17.5 7.5h-51q-11 0 -18.5 -7.5t-7.5 -17.5v-205q0 -11 7.5 -18.5t18.5 -7.5h51q10 0 17.5 7.5t7.5 18.5zM384 77v205q0 10 -7.5 17.5t-18.5 7.5h-51q-10 0 -17.5 -7.5t-7.5 -17.5v-205q0 -11 7.5 -18.5t17.5 -7.5h51q11 0 18.5 7.5t7.5 18.5z
M154 230l51 26v-51l-51 -26v51zM307 230l51 26v-51l-51 -26v51zM154 154l51 25v-51l-51 -26v52zM307 154l51 25v-51l-51 -26v52z" />
    <glyph glyph-name="buddicons-tracking" unicode="&#xf455;" 
d="M281 338l116 -210q-18 -36 -61 -58q-38 -19 -80 -19t-80 19q-43 22 -61 58l115 209q-14 24 -42.5 37.5t-66.5 14.5l63 75q51 -36 76 -85q13 21 25 32q18 15 44 23l47 -74q-49 12 -95 -22zM209 246l-24 -44q19 -4 40 -4q51 0 91 25l-26 46q-35 -21 -81 -23zM231 108
q38 0 70 13t52 35l-26 45q-19 -22 -51 -35t-70 -13q-22 0 -45 5l-16 -29q39 -21 86 -21z" />
    <glyph glyph-name="buddicons-groups" unicode="&#xf456;" 
d="M396 352q34 -18 38.5 -55t-21.5 -72q-15 -22 -40.5 -35t-47.5 -11l-68 -128h-27l-67 128q-22 -3 -49 10.5t-42 35.5q-26 35 -21.5 72.5t39.5 54.5q17 9 36 8q0 -16 2 -31q5 -33 25.5 -64.5t47.5 -47.5q-7 -22 -22 -32l51 -97v144q-26 8 -48.5 37.5t-28 63.5t4.5 63.5
t32 47t53 17.5t53.5 -17.5t32 -47t4.5 -63.5t-28 -63.5t-49 -37.5v-147l53 98q-16 8 -25 33q28 16 48.5 48t25.5 65q2 15 2 31q19 1 36 -8z" />
    <glyph glyph-name="buddicons-pm" unicode="&#xf457;" 
d="M256 461q48 0 131 -64q42 -32 74 -64v-282h-410v282l21 20q27 24 53 44q36 28 67 44q38 20 64 20zM435 84l-95 75l95 71l-11 10l-58 -33l6 110l-224 13l-12 -116l-51 24l-8 -8l95 -71l-88 -73l10 -11l162 104l167 -106z" />
    <glyph glyph-name="star-half" unicode="&#xf459;" 
d="M256 486l-77 -153l-153 -19l105 -119l-29 -169l154 76l154 -76l-29 169l105 119l-153 19zM256 429l60 -120l119 -15l-81 -91l22 -132l-120 60v298z" />
    <glyph glyph-name="minus" unicode="&#xf460;" 
d="M102 282h308v-52h-308v52z" />
    <glyph glyph-name="googleplus" unicode="&#xf462;" 
d="M172 256h139q2 -13 2 -24q0 -64 -39 -104t-102 -40q-40 0 -73.5 20t-53 53.5t-19.5 73.5t19.5 73.5t53 53.5t73.5 20q57 0 98 -39l-39 -38q-24 23 -59 23q-37 0 -64 -27.5t-27 -65.5t27 -65t65 -27t61 23q18 18 21 40h-83v50zM486 256v-42h-42v-42h-41v42h-42v42h42v42
h41v-42h42z" />
    <glyph glyph-name="update" unicode="&#xf463;" 
d="M261 428q45 0 83 -20t63 -55.5t31 -78.5h54l-90 -102l-90 102h60q-9 39 -40 64t-71 25q-27 0 -51 -12.5t-40 -33.5l-43 50q25 29 60 45t74 16zM251 84q-44 0 -82.5 20t-63.5 55.5t-31 78.5h-54l90 102l90 -102h-60q9 -39 40 -64t71 -25q27 0 51 12.5t40 33.5l43 -50
q-25 -29 -60 -45t-74 -16z" />
    <glyph glyph-name="edit" unicode="&#xf464;" 
d="M356 425l69 -69q9 -9 8.5 -21.5t-7.5 -20.5l-205 -206l-143 -29l30 142l205 206q7 8 20.5 7.5t22.5 -9.5zM286 354l-143 -144l28 -28l142 144zM210 143l143 143l-28 28l-143 -143z" />
    <glyph glyph-name="email" unicode="&#xf465;" 
d="M99 410h339q48 0 48 -46v-216q0 -46 -48 -46h-339q-48 0 -48 46v216q0 46 48 46zM269 189l172 142q5 4 7 12t-3.5 15.5t-14 8.5t-16.5 -4l-145 -99l-146 99q-7 5 -16 4t-14 -8.5t-3.5 -15.5t6.5 -12z" />
    <glyph glyph-name="email-alt" unicode="&#xf466;" 
d="M486 141v230q0 16 -11 27.5t-27 11.5h-359q-16 0 -27 -11.5t-11 -27.5v-230q0 -16 11 -27.5t27 -11.5h359q16 0 27 11.5t11 27.5zM453 374q6 -6 4.5 -11.5t-5.5 -9.5l-104 -96l100 -104q7 -7 2 -13q-3 -3 -7.5 -3t-7.5 2l-112 95l-54 -49l-55 49l-112 -95q-3 -2 -7.5 -2
t-6.5 3q-5 6 1 13l100 104l-104 96q-4 4 -5 9.5t4 11.5q11 10 25 -2l160 -129l160 129q14 12 24 2z" />
    <glyph glyph-name="email-alt2" unicode="&#xf467;" 
d="M410 484l-308 -123q-21 -8 -36 -31t-15 -46v-223q0 -22 15 -32.5t36 -2.5l308 122q21 8 36 31t15 46v223q0 23 -15 33.5t-36 2.5zM425 417l-154 -238l-171 115q-10 11 -5 18q2 5 6 6t8 0l4 -1l161 -58l130 171q3 4 8 5t10.5 -2.5t5.5 -8t-3 -7.5z" />
    <glyph glyph-name="sos" unicode="&#xf468;" 
d="M461 256q0 56 -27.5 103t-74.5 74.5t-103 27.5t-103 -27.5t-74.5 -74.5t-27.5 -103t27.5 -103t74.5 -74.5t103 -27.5t103 27.5t74.5 74.5t27.5 103zM185 421l38 -96q-25 -11 -36 -36l-96 38q14 31 38.5 55.5t55.5 38.5zM421 327l-96 -38q-11 25 -36 36l38 96
q31 -14 55.5 -38.5t38.5 -55.5zM256 205q-21 0 -36 15t-15 36t15 36t36 15t36 -15t15 -36t-15 -36t-36 -15zM91 185l96 38q11 -25 36 -36l-38 -96q-31 14 -55.5 38.5t-38.5 55.5zM327 91l-38 96q25 11 36 36l96 -38q-14 -31 -38.5 -55.5t-55.5 -38.5z" />
    <glyph glyph-name="clock" unicode="&#xf469;" 
d="M256 461q56 0 103 -27.5t74.5 -74.5t27.5 -103t-27.5 -103t-74.5 -74.5t-103 -27.5t-103 27.5t-74.5 74.5t-27.5 103t27.5 103t74.5 74.5t103 27.5zM256 102q42 0 77 21t56 56t21 77t-21 77t-56 56t-77 21t-77 -21t-56 -56t-21 -77t21 -77t56 -56t77 -21zM238 238
q3 -3 6 -4l-1 -1l115 -54l-77 82l-25 123l-25 -123v0l-1 -5q0 -11 8 -18z" />
    <glyph glyph-name="smartphone" unicode="&#xf470;" 
d="M154 461h204q11 0 18.5 -7.5t7.5 -18.5v-358q0 -11 -7.5 -18.5t-18.5 -7.5h-204q-11 0 -18.5 7.5t-7.5 18.5v358q0 11 7.5 18.5t18.5 7.5zM333 154v256h-154v-256h154zM205 384h102l-102 -128v128z" />
    <glyph glyph-name="tablet" unicode="&#xf471;" 
d="M102 461h308q10 0 17.5 -7.5t7.5 -18.5v-358q0 -11 -7.5 -18.5t-17.5 -7.5h-308q-10 0 -17.5 7.5t-7.5 18.5v358q0 11 7.5 18.5t17.5 7.5zM384 102v308h-256v-308h256zM154 384h153l-153 -128v128z" />
    <glyph glyph-name="desktop" unicode="&#xf472;" 
d="M77 461h358q11 0 18.5 -7.5t7.5 -18.5v-256q0 -10 -7.5 -17.5t-18.5 -7.5h-128v-52h51q11 0 18.5 -7.5t7.5 -17.5v-26h-256v26q0 10 7.5 17.5t18.5 7.5h51v52h-128q-11 0 -18.5 7.5t-7.5 17.5v256q0 11 7.5 18.5t18.5 7.5zM410 230v180h-308v-180h308zM128 384h230
l-230 -102v102z" />
    <glyph glyph-name="testimonial" unicode="&#xf473;" 
d="M102 435h308q21 0 36 -15t15 -36v-179q0 -21 -15 -36t-36 -15h-26l-128 -128v128h-154q-21 0 -36 15t-15 36v179q0 21 15 36t36 15zM384 384h-282v-26h282v26zM410 307h-308v-25h308v25zM333 230h-231v-25h231v25z" />
    <glyph glyph-name="editor-break" unicode="&#xf474;" 
d="M410 410h51v-231h-282v-77l-128 103l128 102v-77h231v180z" />
    <glyph glyph-name="editor-code-duplicate" unicode="&#xf475;" 
d="M230 358l-102 -102l102 -102l-25 -52l-154 154l154 154zM282 154l102 102l-102 102l25 52l154 -154l-154 -154z" />
    <glyph glyph-name="editor-code-duplicate" unicode="&#xf494;" 
d="M230 358l-102 -102l102 -102l-25 -52l-154 154l154 154zM282 154l102 102l-102 102l25 52l154 -154l-154 -154z" />
    <glyph glyph-name="editor-paragraph" unicode="&#xf476;" 
d="M384 461h-191q-32 0 -58.5 -15.5t-42 -42t-15.5 -58.5t15.5 -58.5t42 -42t58.5 -15.5h11v-152q0 -11 7.5 -18.5t18 -7.5t18 7.5t7.5 18.5v307q0 11 8 18.5t18 7.5t18 -8t8 -18v-307q0 -11 7.5 -18.5t18 -7.5t18 7.5t7.5 18.5v333h26q10 0 18 7.5t8 18t-8 18t-18 7.5z" />
    <glyph glyph-name="buddicons-bbpress-logo" unicode="&#xf477;" 
d="M115 353q-31 -42 -31 -97q0 -37 16 -72l27 125q4 22 4 28q1 10 -2.5 13t-13.5 3zM218 189q6 27 -1 43t-28 16q-15 0 -28.5 -10.5t-17.5 -27.5l-7 -44q-6 -18 2.5 -28t22.5 -10q22 0 37 18q13 16 20 43zM256 461q-55 0 -102.5 -27.5t-75 -75t-27.5 -102.5t27.5 -102.5
t75 -75t102.5 -27.5t102.5 27.5t75 75t27.5 102.5t-27.5 102.5t-75 75t-102.5 27.5zM256 64q-40 0 -75.5 14.5t-60.5 41.5q-4 5 -12.5 15.5t-12.5 15.5q-31 53 -31 105t26 96t70 70t96 26t96 -26t70 -70t26 -96t-26 -96t-70 -70t-96 -26zM353 189q6 27 -1 43t-27 16
q-16 0 -29 -10.5t-17 -27.5l-10 -44q-4 -19 4.5 -30t23.5 -11q20 2 35 20t21 44zM256 428q-38 0 -72.5 -16t-58.5 -43l17 2q23 4 30 5q5 0 5 -5t-26 -123v0q30 18 46 18q30 0 49 -23l13 62q5 22 6 31.5t-2.5 13t-14.5 3.5q-7 0 -7 7t7 9l28 3q24 3 31 4q5 0 5 -5l-25 -123
q22 18 48 18q33 0 47.5 -21.5t6.5 -55.5q-6 -32 -34 -54t-63 -22q-24 0 -40 11q-15 10 -19 24q-28 -31 -72 -35q45 -29 95 -29q47 0 86 23.5t62.5 62.5t23.5 86t-23.5 86t-62.5 62.5t-86 23.5z" />
    <glyph glyph-name="text" unicode="&#xf478;" 
d="M461 435v-51h-410v51h410zM307 333v-51h-256v51h256zM461 333v-51h-103v51h103zM205 230v-51h-154v51h154zM461 230v-51h-205v51h205zM358 128v-51h-307v51h307z" />
    <glyph glyph-name="tagcloud" unicode="&#xf479;" 
d="M282 435v-102h-256v102h256zM486 435v-102h-179v102h179zM179 307v-77h-153v77h153zM486 307v-77h-281v77h281zM230 205v-51h-204v51h204zM486 205v-51h-230v51h230zM154 128v-26h-128v26h128zM282 128v-26h-103v26h103zM358 128v-26h-51v26h51zM486 128v-26h-102v26h102
z" />
    <glyph glyph-name="archive" unicode="&#xf480;" 
d="M486 410v-52h-460v52h460zM51 333h410v-256h-410v256zM333 256v26h-154v-26h154z" />
    <glyph glyph-name="clipboard" unicode="&#xf481;" 
d="M305 502l35 -36q15 -2 46 2q28 4 40 3q20 -2 32.5 -14t13.5 -33q1 -12 -2 -39q-4 -32 -2 -46l36 -36q7 -8 7 -18.5t-7 -17.5l-235 -236q-8 -7 -18.5 -7t-18.5 7l-199 199q-7 8 -7 18.5t7 18.5l236 235q7 8 17.5 8t18.5 -8zM319 444l-14 -14l126 -127l15 15q-6 19 -4 46
q1 12 3 24q2 22 2 31q-1 13 -7 19.5t-19 6.5q-9 1 -31 -2q-12 -2 -24 -2q-27 -3 -47 3zM422 421q8 -8 8 -18.5t-7.5 -18t-18 -7.5t-18 7.5t-7.5 18t7.5 18t18 7.5t17.5 -7zM250 411l-18 -18l163 -163l18 19zM214 375l-18 -18l163 -163l18 18zM178 339l-18 -18l163 -163
l18 18zM142 303l-18 -18l162 -163l19 18zM105 267l-18 -18l163 -163l19 18z" />
    <glyph glyph-name="microphone" unicode="&#xf482;" 
d="M307 282v153q0 21 -15 36t-36 15t-36 -15t-15 -36v-153q0 -22 15 -37t36 -15t36 15.5t15 36.5zM410 282q0 -57 -36.5 -99.5t-91.5 -52.5v-53h51q11 0 18 -7.5t7 -18t-7 -18t-18 -7.5h-154q-10 0 -17.5 7.5t-7.5 18t7.5 18t17.5 7.5h51v53q-54 10 -91 52.5t-37 99.5
q0 10 7.5 17.5t18.5 7.5t18.5 -7.5t7.5 -17.5q0 -43 30 -73t72 -30t72 30t30 73q0 10 7.5 17.5t18.5 7.5t18.5 -7.5t7.5 -17.5z" />
    <glyph glyph-name="universal-access" unicode="&#xf483;" 
d="M256 445q16 0 27 -11t11 -27t-11 -27.5t-27 -11.5t-27 11.5t-11 27.5t11 27t27 11zM87 324q0 7 44 12q31 4 81 6l44 1l44 -1q50 -2 81 -6q44 -5 44 -12.5t-30 -16.5q-21 -7 -55 -14l-29 -5l10 -55q12 -62 17 -101q7 -56 0 -59q-10 -4 -47 64q-19 34 -35 69v0l-18 -36
q-20 -40 -35 -65q-21 -35 -28 -32q-10 4 7 110q9 53 20 105v0l-30 5q-34 7 -55 14q-30 9 -30 17z" />
    <glyph glyph-name="nametag" unicode="&#xf484;" 
d="M307 384v77q0 10 -7.5 17.5t-17.5 7.5h-52q-10 0 -17.5 -7.5t-7.5 -17.5v-77q0 -11 7.5 -18.5t17.5 -7.5h52q10 0 17.5 7.5t7.5 18.5zM256 461q11 0 18.5 -7.5t7.5 -18t-7.5 -18t-18.5 -7.5t-18.5 7.5t-7.5 18t7.5 18t18.5 7.5zM461 128v205q0 21 -15 36t-36 15h-77v-8
q0 -18 -12.5 -30.5t-30.5 -12.5h-68q-18 0 -30.5 12.5t-12.5 30.5v8h-77q-21 0 -36 -15t-15 -36v-205q0 -21 15 -36t36 -15h308q21 0 36 15t15 36zM435 282v-154h-358v154h358zM230 230q0 11 -3.5 18.5t-9 7.5t-9 -7.5t-3.5 -18t3.5 -18t9 -7.5t9 7.5t3.5 17.5zM307 230
q0 11 -3.5 18.5t-9 7.5t-9 -7.5t-3.5 -18t3.5 -18t9 -7.5t9 7.5t3.5 17.5zM155 199q38 -20 101 -20t101 20q-4 -19 -33 -32t-68 -13t-68 13t-33 32z" />
    <glyph glyph-name="plugins-checked" unicode="&#xf485;" 
d="M348 381l-79 -79l46 -46l79 79q6 6 4 17.5t-11.5 21t-20 11.5t-18.5 -4zM356 504q-11 7 -132 -89q-61 -48 -119 -98l-24 14q-27 15 -46 23q-27 12 -32 7q-8 -6 46 -68q27 -31 56 -60l69 69q78 78 125 129q65 70 57 73zM497 266q-10 10 -21.5 12t-17.5 -4l-79 -79l46 -47
l79 82q6 4 4 15.5t-11 20.5zM197 292q-12 -13 -21 -45q-7 -28 -7 -52v-98l-31 -30q-11 -12 -11 -27.5t11.5 -27t26.5 -11.5t27 12l31 31h97q25 0 52 7q30 8 43 21l30 20l-227 228z" />
    <glyph glyph-name="tickets" unicode="&#xf486;" 
d="M512 374l-26 -72v0q-20 7 -39 -2t-26.5 -29t1.5 -39t30 -26l-26 -73l-386 138l26 71q19 -7 38.5 2t26.5 29t-2 39t-29 27l26 73zM372 288q15 40 -3.5 78.5t-58 52.5t-78 -4t-53 -58t4 -78.5t58 -52.5t78 4t52.5 58zM307 409q34 -12 50 -43h-1q-6 2 -11.5 -1t-8 -9.5
t1.5 -22.5v0q2 -16 -2 -27q-2 -7 -15 -24l-20 -28l2 105l10 -3q3 -1 4 3t-2 5l-24 7l-22 9q-4 1 -5.5 -2t2.5 -5l8 -4l1 -42l-39 -50l2 105l10 -3q3 0 4 3.5t-2 4.5l-29 9q18 14 41 17.5t45 -4.5zM189 354q7 18 20 32l1 -128q-18 19 -24 44.5t3 51.5zM293 232l54 67
q12 14 17 29l3 9q4 -23 -4.5 -46t-27 -39t-42.5 -20zM275 314v-82l1 -2q-16 0 -31 6q-13 4 -23 12zM307 159l53 -19q5 -17 18.5 -27.5t30.5 -10.5l1 -76h-410v75q21 0 36 15t15 36.5t-15 36.5t-36 15v78h27l-7 -21l109 -39q-27 -29 -27 -68q0 -43 30 -73t72.5 -30t72.5 30
t30 73v5zM140 218l37 -13q-2 -1 -2 -4t3 -3l10 -1l14 -40l-20 -60l-34 100l11 1q4 0 3.5 4t-4.5 3l-24 -1h-6q5 8 12 14zM113 154q0 19 8 37l44 -120q-24 11 -38 33.5t-14 49.5zM220 190l44 -16q3 -8 3 -15.5t-6 -27.5l-10 -33zM297 154q0 -26 -12.5 -47t-33.5 -33l28 81
l4 12l13 -5q1 -4 1 -8zM179 65l27 81l29 -79q-15 -6 -30 -6q-12 0 -26 4z" />
    <glyph glyph-name="heart" unicode="&#xf487;" 
d="M256 74q61 26 110 69q44 41 70 90q25 47 27.5 89.5t-19.5 70.5q-37 46 -95 44q-25 0 -49.5 -10.5t-43.5 -26.5q-19 16 -43.5 26.5t-49.5 10.5q-58 2 -95 -44q-22 -28 -19.5 -71t28 -90.5t69.5 -88.5q49 -43 110 -69z" />
    <glyph glyph-name="megaphone" unicode="&#xf488;" 
d="M465 360q8 -30 8 -61q-1 -28 -9 -53t-23.5 -41.5t-35.5 -22.5q-4 -2 -10 -2q-2 0 -4 -0.5t-6 -0.5h-174l57 -141q0 -4 -3.5 -8t-9.5 -4h-77q-6 0 -9.5 4t-2.5 8l-26 141h-31l-1 1q-9 -1 -19.5 3t-19.5 13q-21 19 -28.5 47.5t0.5 56.5q7 24 27 33l233 140q3 2 5 3.5t6 3.5
t12 4q20 6 42 -1t41 -24.5t34.5 -43t23.5 -55.5zM399 207h-1q15 4 27 18q22 26 22 78q0 23 -7 50q-13 51 -46 83q-15 15 -31.5 21t-31.5 2q-31 -9 -44 -51q-12 -40 2.5 -95t45.5 -84q32 -30 64 -22zM334 388q7 2 15 -1q17 -7 27 -26q10 -21 10 -45q0 -11 -3 -21
q-8 -20 -22 -24q-6 -2 -14 1t-15 10q-15 14 -20 38q-6 21 1 44q2 9 8 15.5t13 8.5z" />
    <glyph glyph-name="schedule" unicode="&#xf489;" 
d="M51 461h410v-103h-410v103zM51 205v102h103v-102h-103zM205 256v51h102v-51h-102zM358 179v128h103v-128h-103zM205 51v154h102v-154h-102zM51 51v103h103v-103h-103zM358 51v77h103v-77h-103z" />
    <glyph glyph-name="media-video" unicode="&#xf490;" 
d="M307 461l103 -103v-307h-308v410h205zM307 358h77l-77 77v-77zM282 154v76q0 11 -8 18.5t-18 7.5h-77q-10 0 -17.5 -7.5t-7.5 -18.5v-76q0 -11 7.5 -18.5t17.5 -7.5h77q10 0 18 7.5t8 18.5zM358 128v128l-51 -51v-26z" />
    <glyph glyph-name="media-text" unicode="&#xf491;" 
d="M307 461l103 -103v-307h-308v410h205zM128 435v-25h154v25h-154zM307 358h77l-77 77v-77zM128 384v-26h154v26h-154zM384 307v26h-256v-26h256zM384 256v26h-256v-26h256zM384 205v25h-256v-25h256zM282 154v25h-154v-25h154z" />
    <glyph glyph-name="playlist-audio" unicode="&#xf492;" 
d="M435 435v51h-384v-51h384zM435 333v51h-384v-51h384zM256 230v52h-205v-52h205zM447 281l-154 -29q-5 -1 -8 -4t-3 -9v-117q-8 3 -24 3q-21 0 -35.5 -14.5t-14.5 -35t14.5 -35t34.5 -14.5t34 12t16 30v127l128 28v-89q-11 5 -21 5q-24 0 -38.5 -14.5t-14.5 -35t14.5 -35
t35.5 -14.5t35.5 14.5t14.5 35.5v176q0 7 -4.5 11t-9.5 4zM205 128v51h-154v-51h154zM154 26v51h-103v-51h103z" />
    <glyph glyph-name="playlist-video" unicode="&#xf493;" 
d="M435 435v51h-384v-51h384zM435 333v51h-384v-51h384zM154 230v52h-103v-52h103zM205 282h230q11 0 18.5 -7.5t7.5 -18.5v-205q0 -10 -7.5 -17.5t-18.5 -7.5h-230q-11 0 -18.5 7.5t-7.5 17.5v205q0 11 7.5 18.5t18.5 7.5zM282 102l85 52l-85 51v-103zM154 128v51h-103v-51
h103zM154 26v51h-103v-51h103z" />
    <glyph glyph-name="media-spreadsheet" unicode="&#xf495;" 
d="M307 461l103 -103v-307h-308v410h205zM282 358v77h-154v-77h154zM205 307v26h-77v-26h77zM282 307v26h-52v-26h52zM384 307v26h-77v-26h77zM205 256v26h-77v-26h77zM282 256v26h-52v-26h52zM384 256v26h-77v-26h77zM205 205v25h-77v-25h77zM282 205v25h-52v-25h52z
M384 205v25h-77v-25h77zM205 154v25h-77v-25h77zM282 154v25h-52v-25h52zM384 154v25h-77v-25h77zM205 102v26h-77v-26h77zM282 102v26h-52v-26h52z" />
    <glyph glyph-name="media-interactive" unicode="&#xf496;" 
d="M307 461l103 -103v-307h-308v410h205zM307 358h77l-77 77v-77zM358 154v153h-204v-153h76l-25 -52h25l26 52l26 -52h25l-25 52h76zM205 230q-11 0 -18.5 7.5t-7.5 18.5t7.5 18.5t18 7.5t18 -7.5t7.5 -18.5t-7.5 -18.5t-17.5 -7.5zM333 282v-52h-77v52h77zM333 205v-26
h-154v26h154z" />
    <glyph glyph-name="media-document" unicode="&#xf497;" 
d="M307 461l103 -103v-307h-308v410h205zM128 435v-25h154v25h-154zM307 358h77l-77 77v-77zM128 384v-26h154v26h-154zM384 307v26h-256v-26h256zM128 282v-26h102v26h-102zM384 205v77h-128v-77h128zM128 230v-25h102v25h-102zM384 154v25h-256v-25h256zM307 102v26h-179
v-26h179z" />
    <glyph glyph-name="media-default" unicode="&#xf498;" 
d="M307 461l103 -103v-307h-308v410h205zM307 358h77l-77 77v-77z" />
    <glyph glyph-name="media-code" unicode="&#xf499;" 
d="M307 461l103 -103v-307h-308v410h205zM230 179l-51 51l51 52l-25 25l-77 -77l77 -76zM307 154l77 76l-77 77l-25 -25l51 -52l-51 -51z" />
    <glyph glyph-name="media-audio" unicode="&#xf500;" 
d="M307 461l103 -103v-307h-308v410h205zM307 358h77l-77 77v-77zM333 173v132q0 4 -3 7t-7 3l-109 -20q-9 -2 -9 -13v-87q-5 2 -13 2h-3q-14 0 -24 -10t-10 -24.5t10 -24.5t25.5 -10t23.5 7q16 14 16 28v85l77 16v-59q-12 3 -21.5 0.5t-15.5 -8.5q-10 -10 -10 -24.5
t10.5 -24.5t27.5 -10q15 0 25 10.5t10 24.5z" />
    <glyph glyph-name="media-archive" unicode="&#xf501;" 
d="M307 461l103 -103v-307h-308v410h205zM307 358h77l-77 77v-77zM205 422v-51l46 26zM282 384l-46 -26l46 -25v51zM205 346v-52l46 26zM282 307l-46 -25l46 -26v51zM205 269v-51l46 25zM282 230l-46 -25l46 -26v51zM243 77q17 0 29 12.5t10 29.5q-2 9 -13 41l-51 28l-6 -27
q-6 -30 -7 -42q-2 -15 10 -28.5t28 -13.5zM243 138q8 0 14 -5.5t6 -14t-6 -14t-14 -5.5t-13.5 5.5t-5.5 14t5.5 14t13.5 5.5z" />
    <glyph glyph-name="plus-alt" unicode="&#xf502;" 
d="M404 404q41 -40 55 -94t0 -108t-54.5 -94.5t-94.5 -54.5t-108 0t-94.5 54.5t-54.5 94.5t0 108t54.5 94.5t94.5 54.5t108 0t94 -55zM294 115v103h103v76h-103v103h-76v-103h-103v-76h103v-103h76z" />
    <glyph glyph-name="randomize" unicode="&#xf503;" 
d="M461 358l-103 -76v51h-102l-128 -205h-77v51h51l128 205h128v51zM51 384h77l29 -56l-28 -46l-27 51h-51v51zM461 153l-103 -76v51h-128l-29 56l29 46l26 -51h102v51z" />
    <glyph glyph-name="external" unicode="&#xf504;" 
d="M230 435h205v-205l-51 26v79l-143 -143l-36 36l155 156h-104zM307 128v77l51 51v-179h-281v281h205l-52 -51h-102v-179h179z" />
    <glyph glyph-name="editor-contract" unicode="&#xf506;" 
d="M403 339l58 96v-358l-58 96l32 32h-102v-103l32 32l96 -57h-410l96 57l32 -32v103h-102l32 -32l-58 -96v358l58 -96l-32 -32h102v103l-32 -32l-96 57h410l-96 -57l-32 32v-103h102z" />
    <glyph glyph-name="universal-access-alt" unicode="&#xf507;" 
d="M486 256q0 63 -31 115.5t-83.5 83.5t-115.5 31t-115.5 -31t-83.5 -83.5t-31 -115.5t31 -115.5t83.5 -83.5t115.5 -31t115.5 31t83.5 83.5t31 115.5zM256 445q16 0 27 -11t11 -27t-11 -27.5t-27 -11.5t-27 11.5t-11 27.5t11 27t27 11zM87 324q0 7 44 12q31 4 81 6l44 1
l44 -1q50 -2 81 -6q44 -5 44 -12.5t-30 -16.5q-21 -7 -55 -14l-29 -5l10 -55q12 -62 17 -101q7 -56 0 -59q-10 -4 -47 64q-19 34 -35 69v0l-18 -36q-20 -40 -35 -65q-21 -35 -28 -32q-10 4 7 110q9 53 20 105v0l-30 5q-34 7 -55 14q-30 9 -30 17z" />
    <glyph glyph-name="calendar-alt" unicode="&#xf508;" 
d="M384 410h77v-384h-410v384h77v25q0 16 11.5 27.5t27 11.5t27 -11.5t11.5 -27.5v-25h102v25q0 16 11.5 27.5t27 11.5t27 -11.5t11.5 -27.5v-25zM154 435v-64q0 -5 3.5 -9t9 -4t9 4t3.5 9v64q0 6 -3.5 9.5t-9 3.5t-9 -3.5t-3.5 -9.5zM333 435v-64q0 -5 3.5 -9t9 -4t9 4
t3.5 9v64q0 6 -3.5 9.5t-9 3.5t-9 -3.5t-3.5 -9.5zM435 51v256h-358v-256h358zM179 282v-52h-51v52h51zM230 282h52v-52h-52v52zM333 230v52h51v-52h-51zM179 205v-51h-51v51h51zM230 205h52v-51h-52v51zM333 154v51h51v-51h-51zM179 128v-51h-51v51h51zM282 77h-52v51h52
v-51zM384 77h-51v51h51v-51z" />
    <glyph glyph-name="grid-view" unicode="&#xf509;" 
d="M51 486h410q10 0 17.5 -7.5t7.5 -17.5v-410q0 -10 -7.5 -17.5t-17.5 -7.5h-410q-10 0 -17.5 7.5t-7.5 17.5v410q0 10 7.5 17.5t17.5 7.5zM231 282v153h-154v-153h154zM435 282v153h-153v-153h153zM231 77v153h-154v-153h154zM435 77v153h-153v-153h153z" />
    <glyph glyph-name="index-card" unicode="&#xf510;" 
d="M26 431v-380h460v359h-281v21q0 12 -9 21t-21 9h-119q-13 0 -21.5 -8.5t-8.5 -21.5zM256 358v-51h-179v51h179zM435 358v-256h-128v256h128zM256 256v-51h-179v51h179zM256 154v-52h-179v52h179z" />
    <glyph glyph-name="carrot" unicode="&#xf511;" 
d="M51 40q18 -16 96 18q70 31 145 82q77 53 96 85q13 22 0 55q-11 29 -39 58q14 10 31 2q10 -4 30 -21q16 -14 25 -18q13 -7 24 -1.5t17 21.5t0 27q-7 16 -31 23q-13 4 -44 7l-12 1q23 6 44 20q28 18 29 38q1 18 -17 34t-35.5 14t-30.5 -24q-8 -13 -18 -42l-4 -11
q-4 57 -25 75q-13 11 -26.5 10t-23 -12t-10.5 -25q0 -9 8 -20q5 -6 19 -18q18 -16 23 -25q8 -15 0 -31q-31 24 -61 33q-33 9 -54 -3q-18 -12 -41 -44q43 -45 79 -69q4 -3 4.5 -7.5t-2 -8.5t-7 -5t-8.5 2q-36 24 -80 69q-18 -27 -34 -57q40 -40 71 -62q4 -2 5 -7t-1.5 -8.5
t-7.5 -4.5t-9 1q-30 21 -69 60q-37 -72 -54 -131q-18 -65 -2 -80z" />
    <glyph glyph-name="building" unicode="&#xf512;" 
d="M77 0h358v512h-358v-512zM179 435h-51v51h51v-51zM282 435h-52v51h52v-51zM384 435h-51v51h51v-51zM179 358h-51v52h51v-52zM282 358h-52v52h52v-52zM384 358h-51v52h51v-52zM179 282h-51v51h51v-51zM282 282h-52v51h52v-51zM384 282h-51v51h51v-51zM179 205h-51v51h51
v-51zM282 205h-52v51h52v-51zM384 205h-51v51h51v-51zM282 26h-154v153h154v-153zM384 128h-51v51h51v-51zM384 51h-51v51h51v-51z" />
    <glyph glyph-name="store" unicode="&#xf513;" 
d="M26 256q15 -11 38 -11t38 11q26 19 26 51q0 -32 26 -51q15 -11 38 -11t38 11q26 19 26 51q0 -32 26 -51q15 -11 38 -11t38 11q26 19 26 51q0 -32 26 -51q15 -11 38 -11t38 11q26 19 26 51v26l-77 179h-333l-102 -179v-26q0 -32 26 -51zM77 26h128v128h102v-128h128v179
q-13 2 -25 11q-15 10 -19 16q-7 9 -7 24q0 -14 -7 -24q-4 -6 -18.5 -16.5t-38 -10.5t-38.5 10.5t-19 16.5q-7 9 -7 24q0 -14 -7 -24q-4 -6 -18.5 -16.5t-38 -10.5t-38.5 10.5t-19 16.5q-7 10 -7 24q0 -14 -7 -24q-4 -6 -17.5 -15.5t-26.5 -11.5v-179z" />
    <glyph glyph-name="album" unicode="&#xf514;" 
d="M0 51h256v7q62 -16 122 6q52 19 86.5 61t44.5 96t-10 106q-18 49 -56 82.5t-87.5 45.5t-99.5 -1v7h-256v-410zM230 435v-358h-204v358h204zM370 225q-13 -26 -40.5 -35.5t-53.5 3.5q-12 6 -20 15v96q16 17 38.5 21t43.5 -6q26 -13 35.5 -40.5t-3.5 -53.5zM300 246
q4 -3 9 -2.5t8.5 5t2.5 9.5t-5 8t-9.5 2.5t-8.5 -4.5t-2.5 -9.5t5.5 -8.5zM377 152q-23 -15 -48.5 -19.5t-49.5 1.5q-6 1 -8.5 6t-1.5 10t6 7.5t10 1.5l4 -1q40 -7 73 15q19 13 30 30q3 5 8 6t9.5 -2t5.5 -8t-2 -9q-14 -23 -36 -38zM403 112q-27 -19 -59.5 -26t-63.5 -2
q-6 1 -9 5.5t-2 10t5.5 8.5t10.5 2l5 -1q54 -6 99 24q26 17 44 44q3 5 8 6t9.5 -1.5t5.5 -8t-2 -9.5q-19 -32 -51 -52z" />
    <glyph glyph-name="controls-repeat" unicode="&#xf515;" 
d="M128 333v-77l-51 -38v166h281v51l103 -77l-103 -76v51h-230zM384 179v77l51 38v-166h-281v-51l-103 77l103 76v-51h230z" />
    <glyph glyph-name="controls-skipback" unicode="&#xf516;" 
d="M307 317l153 92v-307l-153 92v-92l-205 123v-123h-51v307h51v-123l205 123v-92z" />
    <glyph glyph-name="controls-skipforward" unicode="&#xf517;" 
d="M205 195l-154 -93v308l154 -93v93l205 -123v123h51v-308h-51v123l-205 -123v93z" />
    <glyph glyph-name="controls-back" unicode="&#xf518;" 
d="M51 256l256 154v-93l154 93v-308l-154 93v-93z" />
    <glyph glyph-name="controls-forward" unicode="&#xf519;" 
d="M461 256l-256 -154v93l-154 -93v308l154 -93v93z" />
    <glyph glyph-name="controls-volumeoff" unicode="&#xf520;" 
d="M51 333h103l128 102v-358l-128 102h-103v154z" />
    <glyph glyph-name="controls-volumeon" unicode="&#xf521;" 
d="M51 333h103l128 102v-358l-128 102h-103v154zM376 396q10 -4 24 -14q24 -18 40 -44q21 -35 21 -82t-21 -82q-16 -26 -40 -44q-14 -10 -24 -14q-2 -1 -5 -1q-9 0 -12 8q-2 5 0 10t7 7h1q19 9 36 27q32 35 32 89q0 39 -17 69q-13 21 -33 36q-12 9 -18 11t-8 7t0 10t7 7
t10 0zM410 256q0 -40 -28 -67q-14 -14 -31 -22h-1q-2 -1 -4 -1q-9 0 -12 9q-2 5 0 9.5t6.5 6t12.5 7.5q12 8 20 20q11 17 11 38t-11 38q-8 12 -20 20q-8 6 -12.5 7.5t-6.5 6t0 9.5t6.5 7.5t9.5 0.5h1q17 -8 31 -22q28 -27 28 -67z" />
    <glyph glyph-name="controls-play" unicode="&#xf522;" 
d="M128 410l256 -154l-256 -154v308z" />
    <glyph glyph-name="controls-pause" unicode="&#xf523;" 
d="M128 102v308h77v-308h-77zM307 410h77v-308h-77v308z" />
    <glyph glyph-name="tickets-alt" unicode="&#xf524;" 
d="M512 349l-26 -73v1q-20 7 -39 -2.5t-26.5 -29t1.5 -39t30 -26.5l-26 -72l-386 137l26 72q19 -8 38.5 1t26.5 29t-2 39.5t-29 26.5l26 73zM385 203l35 96q5 12 -1 24t-18 17l-193 70q-12 5 -24 -1t-17 -18l-35 -96q-4 -13 1.5 -25t17.5 -16l193 -70q6 -2 11 -2
q10 0 18.5 5.5t11.5 15.5zM204 398l192 -70q8 -3 11.5 -10t0.5 -14l-35 -97q-3 -7 -10.5 -10.5t-14.5 -0.5l-192 70q-8 3 -11 10t-1 15l35 96q2 5 7 8.5t11 3.5q3 0 7 -1zM379 87q13 -10 30 -10l1 -77h-410v76q21 0 36 15t15 36t-15 36t-36 15v78h27l-7 -20l73 -27
q-10 -3 -16.5 -11t-6.5 -19v-102q0 -13 9.5 -22.5t22.5 -9.5h205q13 0 22.5 9.5t9.5 22.5v45l21 -8q5 -17 19 -27zM83 77v102q0 8 6 13.5t13 5.5h22l202 -72v-49q0 -8 -5.5 -13.5t-13.5 -5.5h-205q-7 0 -13 5.5t-6 13.5z" />
    <glyph glyph-name="phone" unicode="&#xf525;" 
d="M309 358l-6 6q-9 10 -8.5 16.5t10.5 16.5l77 78q13 13 18 14q7 2 19 -10l6 -5zM322 347l113 113q22 -30 34 -60q19 -46 5 -77q-9 -20 -17 -33q-5 -8 -16 -21t-18 -23q-58 -66 -154 -155q-10 -8 -23 -19.5t-21 -16.5q-13 -8 -32 -16q-30 -11 -77 7q-30 12 -61 33l112 113
l31 -41q6 -9 20 -2q13 5 26 18l21 22q65 65 81 83q13 13 19 25q6 15 -2 21zM40 90l-5 5q-11 11 -9 19q2 5 15 17l77 77q11 10 17 11t16 -8l5 -5z" />
    <glyph glyph-name="money" unicode="&#xf526;" 
d="M0 435h512v-307h-19q0 34 -24.5 58.5t-58.5 24.5q-25 0 -45 -13.5t-31 -35.5q-10 4 -20 4q-19 0 -33.5 -10.5t-20.5 -27.5h-260v307zM214 356q-2 -7 -2.5 -13t0.5 -12l4 -16q1 -3 3.5 -7.5t6 -8.5t8 -6.5t10 -2.5t10 2.5t8 5.5t6 7.5t4 9t2.5 8.5l1 8q2 10 -0.5 20.5
t-10.5 17.5t-21 7q-7 0 -13 -3t-9.5 -7t-6.5 -10zM329 201v29q0 13 -7.5 25.5t-19.5 20t-26 7.5l-32 -21l-33 21q-14 0 -26 -8t-19 -20t-7 -25v-29l12 -3l24 -6q8 -1 23 -2.5t25.5 -1.5t25.5 1.5t23 2.5l17 4zM410 198q29 0 49.5 -20.5t20.5 -49.5t-20.5 -49.5t-49 -20.5
t-48.5 19q9 15 9 32q0 14 -6.5 27t-18.5 20q8 19 25.5 30.5t38.5 11.5zM269 109q0 18 13 31.5t31.5 13.5t31.5 -13.5t13 -32t-13 -31.5t-31.5 -13t-31.5 13t-13 32z" />
    <glyph glyph-name="palmtree" unicode="&#xf527;" 
d="M220 451q12 0 20 -4q23 -10 34 -39q10 -26 10 -62q14 19 37 37q28 21 50 21q29 0 52 -18q28 -24 39 -73q-42 24 -93.5 24t-84.5 -22q15 4 34 4q28 0 53 -9t34 -24.5t10 -37t-6.5 -40.5t-22.5 -29q-3 41 -29.5 73.5t-59.5 32.5q-18 0 -34 -10q-42 -25 -64 -95
q-20 -64 -20 -154h-128q0 67 31 128q28 54 75 95q44 37 91 53q-24 4 -47 4q-82 0 -150 -50q14 53 49 81q31 24 71 24q24 0 46 -9t36 -24q-11 39 -43 58q-26 15 -61 15q-29 0 -53 -9q17 24 55 41.5t69 17.5zM333 218q0 16 -11.5 27t-27.5 11t-27 -11t-11 -27t11 -27.5
t27 -11.5t27.5 11.5t11.5 27.5z" />
    <glyph glyph-name="unlock" unicode="&#xf528;" 
d="M307 282v76q0 22 -15 37t-36 15t-36 -15t-15 -37h-51q0 43 30 73t72 30t72 -30t30 -73v-76h26q11 0 18.5 -7.5t7.5 -18.5v-179q0 -11 -7.5 -18.5t-18.5 -7.5h-256q-11 0 -18.5 7.5t-7.5 18.5v179q0 11 7.5 18.5t18.5 7.5h179zM282 102l-10 55q10 5 16 14.5t6 20.5
q0 16 -11 27t-27 11t-27 -11t-11 -27q0 -11 6 -20.5t16 -14.5l-10 -55h52z" />
    <glyph glyph-name="thumbs-up" unicode="&#xf529;" 
d="M326 461q3 0 10 -2v0q11 -4 15.5 -14t1.5 -21l-3 -10q-23 -70 -23 -80.5t11.5 -18.5t23.5 -8h77q11 0 18 -7t7 -17.5t-25 -96.5l-26 -84q-4 -9 -10 -16q-8 -9 -15 -9h-234v230h54q8 8 47 66t45 69q4 8 11 13t15 6zM51 307h51v-230h-51v230z" />
    <glyph glyph-name="hidden" unicode="&#xf530;" 
d="M440 428l4 -5q8 -7 8 -17.5t-8 -18.5l-328 -328q-7 -8 -17.5 -8t-18.5 8l-4 4q-7 8 -7 18.5t7 17.5l41 41q-61 39 -91 101q31 63 92.5 102t137.5 39q45 0 87 -16l61 62q7 7 18 7t18 -7zM259 325q-9 -10 -9 -22t8 -21l46 45q-5 5 -11 7l-13 1q-12 -1 -21 -10zM61 241
q27 -47 79 -78l32 33q-19 26 -19 60q0 41 27 71q-39 -10 -70 -32.5t-49 -53.5zM400 295l24 25q40 -33 62 -79q-31 -63 -92.5 -102t-137.5 -39q-22 0 -47 5l28 27l19 -1q63 0 115.5 31t79.5 79q-18 31 -49 53zM257 153l102 102q0 -42 -30 -72t-72 -30z" />
    <glyph glyph-name="image-rotate" unicode="&#xf531;" 
d="M262 486q64 0 117 -32q50 -30 78.5 -82.5t28.5 -116t-28.5 -116t-78.5 -82.5q-53 -32 -117 -32q-60 0 -112 27.5t-84 74.5l66 39q22 -29 54.5 -46.5t69.5 -17.5q41 0 76.5 21t56.5 56.5t21 76t-21 76t-56.5 56.5t-76.5 21q-37 0 -69.5 -17t-53.5 -47l46 -38l-153 -52v180
l48 -41q33 43 82.5 67.5t105.5 24.5z" />
    <glyph glyph-name="image-filter" unicode="&#xf533;" 
d="M358 362q0 42 -30 72t-72 30t-72 -30t-30 -72.5t30 -72.5t72 -30t72 30t30 73zM83 239q-37 -21 -48 -62t10.5 -78t62 -47.5t77.5 10.5t48 62t-10 77.5t-62 47.5t-78 -10zM327 62q37 -21 77.5 -10.5t62 47.5t10.5 78t-48 62t-78 10t-62 -47.5t-10 -77.5t48 -62z" />
    <glyph glyph-name="warning" unicode="&#xf534;" 
d="M256 461q56 0 103 -27.5t74.5 -74.5t27.5 -103t-27.5 -103t-74.5 -74.5t-103 -27.5t-103 27.5t-74.5 74.5t-27.5 103t27.5 103t74.5 74.5t103 27.5zM285 221l9 165h-76l9 -165h58zM283 135q9 9 9 24.5t-9 24.5t-27 9t-27.5 -9t-9.5 -24.5t9.5 -24.5t27 -9t27.5 9z" />
    <glyph glyph-name="editor-table" unicode="&#xf535;" 
d="M461 77v358h-410v-358h410zM410 333h-308v51h308v-51zM230 230h-128v52h128v-52zM410 230h-128v52h128v-52zM230 128h-128v51h128v-51zM410 128h-128v51h128v-51z" />
    <glyph glyph-name="filter" unicode="&#xf536;" 
d="M77 397v51l25 7q33 7 66 12q46 7 88 7t88 -7q33 -5 66 -12l25 -7v-51l-128 -180v-179l-19 3q-22 5 -38.5 13t-32.5 22l-12 14v127z" />
    <glyph glyph-name="sticky" unicode="&#xf537;" 
d="M128 420v65l230 1v-66q-24 -5 -39.5 -24.5t-15.5 -44.5v-13q0 -25 15.5 -44t39.5 -24v-66h-87l-1 -66q0 -9 -3 -36q-5 -30 -10 -51q-7 -25 -14 -25t-14 25q-5 21 -10 51q-3 27 -3 36v66h-88v66q24 5 39.5 24t15.5 44v13q0 25 -15.5 44.5t-39.5 24.5z" />
    <glyph glyph-name="layout" unicode="&#xf538;" 
d="M51 461h128v-282h-128v282zM205 461h128v-128h-128v128zM358 461h103v-410h-103v410zM205 307h128v-128h-128v128zM51 154h282v-103h-282v103z" />
    <glyph glyph-name="admin-customizer" unicode="&#xf540;" 
d="M469 421q1 3 1 5q1 8 0 14q-2 9 -9 15q-8 9 -20 8q-7 0 -11 -1v0q-11 -6 -47 -29q-44 -28 -80 -55q-47 -35 -69 -59q-12 -13 -23 -37q-11 -26 -14 -48q-3 -26 8.5 -38t37.5 -10q23 2 48.5 13t36.5 22q24 24 59 72q27 37 54 81q23 36 28 47zM36 60q22 14 34 34q7 11 15 34
q6 18 11 27q9 14 23 24q18 13 40 11.5t38 -18.5q9 -9 12 -26t-0.5 -34.5t-15.5 -28.5q-28 -27 -73 -32q-40 -4 -84 9z" />
    <glyph glyph-name="admin-multisite" unicode="&#xf541;" 
d="M365 336l-109 96l-109 -96l-19 19l128 112l128 -112zM358 296l-103 -87l-101 88v19l102 90l102 -90v-20zM282 264v43h-52v-43h52zM237 161l-109 95l-109 -95l-19 18l128 112l128 -112zM493 161l-109 95l-109 -95l-19 18l128 112l128 -112zM128 230l102 -89v-90h-204v90z
M384 230l102 -89v-90h-204v90zM154 77v51h-52v-51h52zM410 77v51h-52v-51h52z" />
    <glyph glyph-name="thumbs-down" unicode="&#xf542;" 
d="M186 51q-3 0 -10 2v0q-11 4 -15.5 14t-1.5 21l3 10q23 70 23 80.5t-11.5 18.5t-23.5 8h-77q-11 0 -18 7t-7 18q0 16 51 180v0q4 9 10 16q8 9 15 9h234v-230h-54q-8 -8 -47 -66t-45 -69q-4 -8 -11 -13t-15 -6zM461 205h-51v230h51v-230z" />
    <glyph glyph-name="plus-alt2" unicode="&#xf543;" 
d="M435 282v-52h-153v-153h-52v153h-153v52h153v153h52v-153h153z" />
    <glyph glyph-name="move" unicode="&#xf545;" 
d="M486 256l-102 -102v76h-102v-102h76l-102 -102l-102 102h76v102h-102v-76l-102 102l102 102v-76h102v102h-76l102 102l102 -102h-76v-102h102v76z" />
    <glyph glyph-name="paperclip" unicode="&#xf546;" 
d="M436 443q25 -25 33.5 -58t0 -66t-33.5 -57l-180 -181q-24 -24 -55.5 -32.5t-63.5 -1t-57 29.5l-4 4q-25 24 -33.5 57t0 66t33.5 58l126 127q17 17 41 21t46 -7q13 -6 21 -14q22 -23 22 -54.5t-22 -54.5l-126 -127q-8 -7 -18.5 -7t-18 7.5t-7.5 18t8 17.5l126 127
q7 8 7 18.5t-7 18t-18 7.5t-18 -8l-126 -126q-18 -18 -21.5 -42t6.5 -46q6 -12 14.5 -21t21.5 -15q22 -10 46 -6t41 21l180 181q23 22 23 54t-22 54t-52 23q-3 -1 -6 0q-9 1 -15 7q-8 7 -7.5 18t7.5 19q6 5 15 7q4 1 10 -1q49 -2 83 -36z" />
    <glyph glyph-name="laptop" unicode="&#xf547;" 
d="M77 435h358q12 0 19 -7t7 -18v-256q0 -12 -7 -19t-19 -7h-358q-12 0 -19 7t-7 19v256q0 11 7 18t19 7zM410 384h-308v-205h308v205zM333 358h-205v-102zM486 77v25h-460v-25q0 -11 8 -18.5t20 -7.5h404q12 0 20 7.5t8 18.5z" />
  </font>
</defs>
</svg>
