<?xml version="1.0" encoding="utf-8"?>
<svg width="20px" height="20px" viewBox="0 0 20 20" version="1.1" xmlns:xlink="http://www.w3.org/1999/xlink" xmlns="http://www.w3.org/2000/svg">
  <desc>Created with Lunacy</desc>
  <path d="M3.07108 3.07108L9.52892 9.52892Q9.57577 9.57577 9.61905 9.62594Q9.66233 9.67612 9.7018 9.72934Q9.74127 9.78256 9.77672 9.83854Q9.81217 9.89452 9.84341 9.95296Q9.87464 10.0114 9.90149 10.072Q9.92834 10.1325 9.95067 10.1949Q9.97299 10.2573 9.99066 10.3212Q10.0083 10.385 10.0213 10.45Q10.0342 10.515 10.0423 10.5808Q10.0504 10.6465 10.0537 10.7127Q10.0569 10.7789 10.0553 10.8451Q10.0537 10.9114 10.0472 10.9773Q10.0407 11.0433 10.0293 11.1086Q10.018 11.1738 10.0019 11.2381Q9.98582 11.3024 9.96503 11.3653Q9.94425 11.4282 9.91889 11.4894Q9.89353 11.5507 9.86374 11.6099Q9.83395 11.669 9.79988 11.7259Q9.76582 11.7827 9.72767 11.8369Q9.68951 11.8911 9.64748 11.9423Q9.60544 11.9935 9.55975 12.0415Q9.51406 12.0895 9.46496 12.134Q9.41587 12.1785 9.36363 12.2192Q9.3114 12.26 9.2563 12.2968Q9.20121 12.3336 9.14355 12.3663Q9.0859 12.3989 9.026 12.4273Q8.9661 12.4556 8.90428 12.4795Q8.84246 12.5033 8.77905 12.5225Q8.71564 12.5418 8.65099 12.5563Q8.58634 12.5708 8.5208 12.5805Q8.45525 12.5903 8.38917 12.5951Q8.32309 12.6 8.25683 12.6L1.799 12.6Q1.71062 12.6 1.62267 12.5913Q1.53471 12.5827 1.44803 12.5654Q1.36135 12.5482 1.27678 12.5225Q1.1922 12.4969 1.11055 12.4631Q1.0289 12.4292 0.950957 12.3876Q0.873014 12.3459 0.799529 12.2968Q0.726044 12.2477 0.657726 12.1916Q0.589408 12.1356 0.526915 12.0731Q0.464421 12.0106 0.408354 11.9423Q0.352287 11.874 0.303186 11.8005Q0.254085 11.727 0.212424 11.649Q0.170762 11.5711 0.136941 11.4894Q0.103119 11.4078 0.0774643 11.3232Q0.0518092 11.2386 0.0345673 11.152Q0.0173253 11.0653 0.00866267 10.9773Q0 10.8894 0 10.801L0 4.34317Q0 4.27691 0.00487447 4.21083Q0.00974894 4.14475 0.0194715 4.0792Q0.029194 4.01366 0.0437119 3.94901Q0.0582298 3.88436 0.0774643 3.82095Q0.0966989 3.75754 0.120546 3.69572Q0.144393 3.6339 0.172723 3.574Q0.201054 3.5141 0.233714 3.45645Q0.266373 3.39879 0.303186 3.3437Q0.339999 3.2886 0.380765 3.23637Q0.421531 3.18413 0.466029 3.13504Q0.510527 3.08594 0.558517 3.04025Q0.606506 2.99456 0.657726 2.95252Q0.708947 2.91049 0.763121 2.87233Q0.817295 2.83418 0.874129 2.80012Q0.930963 2.76605 0.990149 2.73626Q1.04934 2.70647 1.11055 2.68111Q1.17177 2.65575 1.23469 2.63497Q1.2976 2.61418 1.36188 2.59808Q1.42615 2.58198 1.49144 2.57066Q1.55673 2.55933 1.62267 2.55283Q1.68861 2.54634 1.75485 2.54471Q1.82109 2.54309 1.88727 2.54634Q1.95345 2.54959 2.01922 2.5577Q2.08498 2.56581 2.14997 2.57874Q2.21496 2.59166 2.27882 2.60934Q2.34268 2.62701 2.40506 2.64933Q2.46745 2.67165 2.52803 2.69851Q2.58861 2.72536 2.64704 2.75659Q2.70548 2.78783 2.76146 2.82328Q2.81744 2.85873 2.87066 2.8982Q2.92388 2.93767 2.97406 2.98095Q3.02423 3.02423 3.07108 3.07108L3.07108 3.07108Z" transform="matrix(-0.7071067 -0.7071068 -0.7071068 0.7071067 18.455566 9.545898)" id="Rectangle-Copy-9" fill="#FFFFFF" fill-rule="evenodd" stroke="none" />
</svg>