<?xml version="1.0" encoding="utf-8"?>
<svg width="19px" height="20px" viewBox="0 0 19 20" version="1.1" xmlns:xlink="http://www.w3.org/1999/xlink" xmlns="http://www.w3.org/2000/svg">
  <desc>Created with Lunacy</desc>
  <g id="Group">
    <path d="M22.8718 0L0.737721 0C0.3305 0 0 0.43659 0 0.97443C0 1.51227 0.330561 1.94886 0.737721 1.94886L22.8718 1.94886C23.2791 1.94886 23.6095 1.51227 23.6095 0.97443C23.6095 0.43659 23.2791 0 22.8718 0" transform="matrix(0.70710677 0.70710677 -0.70710677 0.70710677 1.4465625 0.93817234)" id="Fill-4" fill="#FFFFFF" fill-rule="evenodd" stroke="none" />
    <path d="M22.8718 0L0.737721 0C0.3305 0 0 0.43659 0 0.97443C0 1.51227 0.330561 1.94886 0.737721 1.94886L22.8718 1.94886C23.2791 1.94886 23.6095 1.51227 23.6095 0.97443C23.6095 0.43659 23.2791 0 22.8718 0" transform="matrix(0.70710677 -0.70710677 0.70710677 0.70710677 0.06851053 17.632637)" id="Fill-4" fill="#FFFFFF" fill-rule="evenodd" stroke="none" />
  </g>
</svg>