<?xml version="1.0" encoding="utf-8"?>
<svg width="1440px" height="214px" viewBox="0 0 1440 214" version="1.1" xmlns:xlink="http://www.w3.org/1999/xlink" xmlns="http://www.w3.org/2000/svg">
  <desc>Created with Lunacy</desc>
  <path d="M2800 42.8003L2733.31 64.2003C2666.61 85.6003 2533.61 128.4 2399.44 142.711C2266.64 156.488 2133.06 143.113 2000.83 128.4C1866.67 113.688 1732.5 100.313 1600.28 107C1466.69 113.688 1333.89 143.112 1199.72 128.4C1066.72 113.687 933.333 57.5124 799.167 57.1111C666.75 57.5123 532.778 113.687 400.556 114.089C266.583 113.687 134.167 57.5122 66.1111 28.4885L0 -0.000300075L0 214L66.6943 214L400.556 214L799.167 214L1199.72 214L1600.28 214L2000.83 214L2399.44 214L2733.89 214L2800 214L2800 42.8003Z" transform="translate(-680 0)" id="Fill-5" fill="#B5CDFF" fill-rule="evenodd" stroke="none" />
</svg>