<?xml version="1.0" encoding="utf-8"?>
<svg width="262px" height="188px" viewBox="0 0 262 188" version="1.1" xmlns:xlink="http://www.w3.org/1999/xlink" xmlns="http://www.w3.org/2000/svg">
  <desc>Created with Lunacy</desc>
  <defs>
    <linearGradient x1="0.5" y1="0.4221075" x2="0.35332105" y2="0.8939172" id="gradient_1">
      <stop offset="0" stop-color="#6A2F6C" />
      <stop offset="1" stop-color="#122057" />
    </linearGradient>
    <linearGradient x1="0.68935394" y1="0.5" x2="0" y2="1" id="gradient_2">
      <stop offset="0" stop-color="#6A2F6C" />
      <stop offset="1" stop-color="#122057" />
    </linearGradient>
    <linearGradient x1="0.665355" y1="0.98583144" x2="0.21284142" y2="0" id="gradient_3">
      <stop offset="0" stop-color="#6A2F6C" />
      <stop offset="1" stop-color="#122057" />
    </linearGradient>
    <linearGradient x1="0.899403" y1="0.5" x2="0" y2="0.5" id="gradient_4">
      <stop offset="0" stop-color="#6A2F6C" />
      <stop offset="1" stop-color="#122057" />
    </linearGradient>
    <linearGradient x1="1.3994207" y1="0" x2="0" y2="1" id="gradient_5">
      <stop offset="0" stop-color="#6A2F6C" />
      <stop offset="1" stop-color="#122057" />
    </linearGradient>
    <linearGradient x1="2.0660677" y1="0.62325525" x2="0" y2="0.30060905" id="gradient_6">
      <stop offset="0" stop-color="#6A2F6C" />
      <stop offset="1" stop-color="#122057" />
    </linearGradient>
    <linearGradient x1="0.8461751" y1="0.2523787" x2="0.34530446" y2="1" id="gradient_7">
      <stop offset="0" stop-color="#6A2F6C" />
      <stop offset="1" stop-color="#122057" />
    </linearGradient>
    <linearGradient x1="0.665355" y1="0.98583144" x2="0.6772067" y2="0.26985416" id="gradient_8">
      <stop offset="0" stop-color="#6A2F6C" />
      <stop offset="1" stop-color="#122057" />
    </linearGradient>
    <linearGradient x1="0.275176" y1="0.77261734" x2="0.9791459" y2="0.5" id="gradient_9">
      <stop offset="0" stop-color="#6A2F6C" />
      <stop offset="1" stop-color="#122057" />
    </linearGradient>
    <linearGradient x1="0.22982071" y1="0.6374383" x2="0.6772067" y2="0.26985416" id="gradient_10">
      <stop offset="0" stop-color="#6A2F6C" />
      <stop offset="1" stop-color="#122057" />
    </linearGradient>
    <linearGradient x1="0.20781873" y1="0.5" x2="0.32771853" y2="0.5" id="gradient_11">
      <stop offset="0" stop-color="#6A2F6C" />
      <stop offset="1" stop-color="#122057" />
    </linearGradient>
    <path d="M27.146 0C25.9862 7.84789 24.0026 16.6803 20.662 26.0829C19.586 29.111 18.4454 31.9725 17.2675 34.691C17.4749 36.6081 17.9175 38.8872 18.8313 41.3802C21.0056 47.3128 24.6938 50.2657 26.9935 53.1561L26.9935 53.1561L6.16828 53.1561C4.63129 48.8205 3.13188 46.002 1.97281 41.5323C1.49842 39.7044 1.12375 37.9926 0.828563 36.3165C-0.498507 28.7847 0.125465 22.7148 0.294556 21.1363C1.02331 14.3347 2.95628 8.80426 4.71909 4.88844L4.71909 4.88844" transform="translate(0.3294165 0.04552431)" id="path_1" />
    <path d="M25.4114 0C24.2516 7.84789 22.268 16.6803 18.9274 26.0829C17.8518 29.111 16.7108 31.9725 15.533 34.691C15.7403 36.6081 16.1829 38.8872 17.0967 41.3802C19.2714 47.3128 22.9592 50.2657 25.2589 53.1561L25.2589 53.1561L6.95127 53.1561C5.19822 50.2657 2.92417 46.3192 1.45872 40.8461C-0.760047 32.5578 0.0929915 25.8748 0.543538 22.5858C1.63757 14.5956 4.45574 8.45018 6.64596 4.58314" transform="translate(0.016122354 0.04552431)" id="path_2" />
    <path d="M9.94489 0.225378C10.5468 0.60547 10.6122 1.39709 10.773 2.12042C11.0938 3.56636 10.7264 4.75649 10.5335 5.26701C10.2589 5.93507 9.79423 6.84194 9.00623 7.75098C7.78321 9.16332 6.40122 9.86642 5.60238 10.1985C5.18435 10.2064 3.52741 10.1699 2.46987 9.5174C1.29572 8.79383 2.84257 7.75297 0.126076 7.36357L0 7.34632C0.0203709 7.26986 0.590042 5.1276 1.10848 3.00381C1.22012 2.5464 1.6779 2.06586 2.10423 1.82596C2.41604 1.65108 2.91392 1.67385 3.12636 1.71106C3.27378 1.84366 3.49959 1.97626 3.64664 2.10922C3.64267 1.91881 3.70337 1.55245 3.92521 1.18211C4.02565 1.01447 4.2941 0.599689 4.78908 0.491298C5.12871 0.41723 5.4239 0.524176 5.5424 0.577288C5.70644 0.938231 5.87517 1.29917 6.0392 1.66048C5.83217 0.859467 6.30909 0.156008 6.80877 0.0624298C7.25142 -0.0204895 7.84659 0.350837 8.04066 0.997797L8.04552 1.01627L8.04597 0.966865C8.05052 0.781696 8.09779 0.563363 8.25146 0.372429C8.49823 0.0656815 8.86496 0.0226863 9.01345 0.00498241" transform="translate(0.15427683 0.2273361)" id="path_3" />
    <path d="M7.10388 0C7.53166 1.44522 7.9533 1.87878 8.30521 2.98726C9.19221 5.78014 9.27351 8.35299 9.16367 10.1364C9.1485 10.4616 8.94039 10.7423 8.64845 10.837C8.30594 10.9482 7.91031 10.7838 7.73327 10.4366C7.39003 9.59768 7.04643 8.75837 6.70319 7.91906C6.75992 8.25833 6.804 8.64203 6.81772 9.06331C6.8394 9.72161 6.7834 10.3019 6.70319 10.7799C6.55903 10.9724 6.36501 11.1549 6.13125 11.1614C5.39997 11.1809 4.83525 9.4575 4.75793 9.49254C4.70626 9.51603 4.9711 10.2932 5.41623 11.2662C5.53979 11.5364 5.64927 11.7612 5.73092 11.9241C5.72081 12.0112 5.65686 12.5029 5.2157 12.8393C4.71494 13.2212 4.14371 13.0864 4.07145 13.068C3.89767 12.8375 3.70365 12.5419 3.52805 12.1814C3.37305 11.8634 3.26755 11.5671 3.19421 11.3135C3.31705 11.7926 3.42183 12.3526 3.47097 12.9813C3.49517 13.2949 3.50312 13.5905 3.49951 13.8672C3.32681 14.1714 2.99874 14.3477 2.66056 14.3228C2.20062 14.2881 1.97228 13.8918 1.95493 13.8607C1.2634 12.6265 0.323284 10.5497 0.0667586 7.84463C-0.0795696 6.30114 0.0356864 4.94445 0.209835 3.90859C0.212003 3.50176 0.271979 2.77048 0.638703 2.01463C1.2092 0.837864 2.15943 0 2.52688 0L2.52688 0L7.10388 0Z" transform="translate(0.073788695 0.08996471)" id="path_4" />
    <path d="M19.7714 0L21.4879 3.24234C24.6537 6.86008 28.482 12.1254 31.3667 19.1473C37.4958 34.067 35.5672 47.6715 34.311 53.7032C33.4832 53.1251 32.2938 52.4343 30.7564 51.9487C28.2407 51.1538 26.0515 51.3052 24.8065 51.4909C24.7046 54.7459 24.6027 58.0005 24.5012 61.2551C21.4283 59.6603 17.5967 57.9741 13.0587 56.6019C9.01208 55.3782 5.30944 54.6772 2.15019 54.2751C0.981736 50.9067 -0.364483 45.6439 0.09076 39.286C0.371493 35.3594 1.08507 34.5725 4.09545 24.525C8.05715 11.3027 8.2024 8.05708 11.9144 4.50076" transform="translate(0.1318033 0.17920682)" id="path_5" />
    <path d="M15.4394 0C15.4485 0.267365 15.4376 0.711769 15.287 1.22049C14.581 3.60979 11.7466 4.2157 9.41325 5.87408C7.79316 7.0252 6.9347 8.44693 5.21779 11.29C1.32004 17.744 1.02377 24.9426 1.02232 27.6907C0.361498 25.3047 -0.478173 21.0582 0.335484 15.867C1.01979 11.5025 2.60194 8.19401 3.76823 6.17902" transform="translate(0.26066795 0.13910207)" id="path_6" />
    <path d="M1.61749 0C1.75695 0.280011 3.21698 3.09529 6.38526 3.56607C8.55019 3.88799 10.2053 2.92042 10.6761 2.62234C10.2863 3.80815 9.83824 5.0485 9.32194 6.33113C8.96063 7.22933 8.59029 8.08779 8.21598 8.90578C9.02422 9.09655 10.0482 9.42028 11.1527 9.99295C11.9894 10.4265 12.6738 10.8998 13.2125 11.328L13.2125 11.328L18.7812 10.0692L21.9087 11.9003C20.5863 12.9936 19.2643 14.0869 17.9419 15.1802C17.8025 15.3655 17.5929 15.6947 17.4842 16.1528C17.4014 16.5029 17.4065 16.805 17.4271 17.0109C16.6831 18.1682 15.9396 19.3251 15.196 20.482C14.1804 22.1176 12.4378 25.4206 12.1061 29.9409C11.8456 33.494 12.5628 36.3569 13.1366 38.0656C13.0806 38.4825 12.914 39.2777 12.3352 40.0675C11.9566 40.5838 11.5338 40.9173 11.2303 41.1182C10.5811 39.0071 9.95494 36.1738 9.87509 32.8013C9.82559 30.7246 9.99396 28.8743 10.2396 27.3128C8.1636 24.3382 5.32772 20.1557 2.22773 15.1802C1.38445 13.8271 0.191421 11.8627 0.0154657 9.154C-0.0582403 8.02023 0.137587 7.0317 0.473238 5.11101C0.851523 2.9468 1.28979 1.19158 1.61749 0Z" transform="translate(0.03367162 0.04985996)" id="path_7" />
    <path d="M11.7693 0.27211C16.1454 -0.576594 22.4903 0.523577 23.7458 4.0864C24.6935 6.77667 22.7696 10.957 20.5418 13.1642C19.7993 13.8991 18.6991 14.7521 17.948 16.4441C17.3442 17.8044 17.2593 19.0975 17.2806 19.9719L17.2806 19.9719L7.84047 24.835L7.7263 22.5465C7.23203 22.0638 6.50437 21.5265 5.59027 21.4785C4.56091 21.4247 4.01318 22.0345 3.4546 21.7076C2.90361 21.3849 2.87326 20.4639 2.84399 19.5715C2.81148 18.5761 2.99899 17.7748 3.1493 17.283C3.11786 17.1215 3.02067 16.745 2.69152 16.4441C2.04768 15.8548 1.139 16.1236 1.0895 16.1388C0.465892 16.3314 0.110007 16.357 0.0218489 16.2154C-0.0955749 16.0271 0.26031 15.5441 1.0895 14.7658C1.56642 14.2698 2.04298 13.774 2.51991 13.2783C2.82846 12.7566 3.2389 11.9365 3.4546 10.8757C3.8748 8.80683 3.17387 7.70197 3.22553 6.52737C3.35235 3.64127 7.99186 1.00483 11.7693 0.27211Z" transform="translate(0.16891965 0.07799409)" id="path_8" />
    <path d="M4.44151 0C3.69722 1.10089 2.7217 2.8048 2.15301 5.03477C0.646734 10.9392 3.11408 16.1178 4.21244 18.9179C6.0746 23.6651 7.68096 30.9573 6.11977 41.8029C5.76352 43.5574 5.40764 45.3119 5.05211 47.0664C6.53418 35.3923 4.86424 27.0534 2.99196 21.5117C1.39138 16.7732 -1.68187 10.1588 1.16123 4.19546" transform="translate(0.33565184 0.019871723)" id="path_9" />
    <path d="M1.01712 26.2188C2.40561 34.1555 4.95677 40.3862 7.08738 44.6286L7.08738 44.6286C44.6211 55.1874 77.4853 59.2206 102.863 60.6207L102.863 60.6207C107.601 60.8819 115.398 61.2349 125.589 61.2418L125.589 61.2418L126.19 61.2418C140.421 61.2324 159.206 60.5441 180.766 58.0171L180.766 58.0171C208.479 54.769 232.471 49.4553 251.923 44.0708L251.923 44.0708C253.63 41.9142 257.832 36.017 258.668 27.1487L258.668 27.1487C258.766 26.1107 258.81 25.1074 258.812 24.1438L258.812 24.1438L258.812 24.0029C258.802 19.2026 257.743 15.3999 256.982 13.2021L256.982 13.2021C237.514 16.1716 211.924 19.2539 181.777 20.6402L181.777 20.6402C172.866 21.0503 150.254 22.0461 125.627 21.0124L125.627 21.0124C96.2471 19.7796 53.6714 15.225 1.5233 0L1.5233 0C0.348703 5.51603 -0.95705 14.9356 1.01712 26.2188" transform="translate(0.22613211 0.17992942)" id="path_10" />
    <path d="M0.00160653 0.0643121C-0.257448 1.07741 30.8422 15.2337 72.2548 22.8434L72.2548 22.8434C102.092 28.3262 127.546 28.6218 158.419 28.9802L158.419 28.9802C180.826 29.24 198.445 28.4249 208.162 27.8645L208.162 27.8645C226.015 26.8344 242.238 25.2194 256.556 23.4017L256.556 23.4017C256.769 21.5088 256.854 18.9468 256.345 16.0101L256.345 16.0101C256.094 14.5631 255.745 13.2866 255.376 12.1976L255.376 12.1976C237.659 14.4771 222.571 15.9772 210.86 16.9863L210.86 16.9863C198.811 18.0244 189.101 18.6505 183.122 19.0317L183.122 19.0317C169.011 19.931 156.64 20.5123 151.422 20.7053L151.422 20.7053C109.163 22.2643 68.7982 16.2424 68.7982 16.2424L68.7982 16.2424C29.0468 8.93613 2.75547 0.000361304 0.203937 0L0.203937 0C0.0803708 0 0.0124457 0.0209556 0.00160653 0.0643121" transform="translate(0.19422027 0.064673424)" id="path_11" />
    <path d="M133.211 8.3678C118.24 9.36717 79.0994 11.4349 29.0039 6.69424L29.0039 6.69424C14.7414 5.34441 0.158807 2.3875 0.00127808 3.34712L0.00127808 3.34712C-0.182626 4.46897 19.5146 9.72414 36.6762 13.2028L36.6762 13.2028C43.7888 14.6437 74.832 20.7186 119.89 20.7338L119.89 20.7338C140.215 20.7403 166.39 19.5148 196.78 14.876L196.78 14.876C197.811 13.3484 199.088 11.1123 200.068 8.18173L200.068 8.18173C201.16 4.91554 201.471 2.01427 201.544 0L201.544 0C174.781 4.77355 151.568 7.14226 133.211 8.3678" transform="translate(0.30619168 0.013368251)" id="path_12" />
    <clipPath id="mask_1">
      <use xlink:href="#path_1" />
    </clipPath>
    <clipPath id="mask_2">
      <use xlink:href="#path_2" />
    </clipPath>
    <clipPath id="mask_3">
      <use xlink:href="#path_3" />
    </clipPath>
    <clipPath id="mask_4">
      <use xlink:href="#path_4" />
    </clipPath>
    <clipPath id="mask_5">
      <use xlink:href="#path_5" />
    </clipPath>
    <clipPath id="mask_6">
      <use xlink:href="#path_6" />
    </clipPath>
    <clipPath id="mask_7">
      <use xlink:href="#path_7" />
    </clipPath>
    <clipPath id="mask_8">
      <use xlink:href="#path_8" />
    </clipPath>
    <clipPath id="mask_9">
      <use xlink:href="#path_9" />
    </clipPath>
    <clipPath id="mask_10">
      <use xlink:href="#path_10" />
    </clipPath>
    <clipPath id="mask_11">
      <use xlink:href="#path_11" />
    </clipPath>
    <clipPath id="mask_12">
      <use xlink:href="#path_12" />
    </clipPath>
  </defs>
  <g id="Group-5" transform="matrix(-1 0 0 1 262 0)">
    <g id="Group-4" transform="matrix(-1 0 0 1 188.72473 0)">
      <path d="M0 71.5501L26.5194 71.5501L0 0L0 71.5501Z" transform="translate(105.15014 74.88613)" id="Fill-1" fill="#B87FBC" fill-rule="evenodd" stroke="none" />
      <path d="M0 105.796L39.2132 105.796L39.2132 0L0 105.796Z" transform="translate(59.75552 40.63996)" id="Fill-2" fill="#8B57A1" fill-rule="evenodd" stroke="none" />
      <path d="M0 146.436L52.47 146.436L106.746 0L0 146.436Z" transform="translate(0.0001746303 -0.0001746303)" id="Fill-3" fill="#6A2F6C" fill-rule="evenodd" stroke="none" />
    </g>
    <g id="Group-43" transform="translate(0 29.626934)">
      <g id="Group-28" transform="translate(174.14856 0.28326237)">
        <g id="Group-3" transform="translate(7.587385 68.64777)">
          <path d="M27.146 0C25.9862 7.84789 24.0026 16.6803 20.662 26.0829C19.586 29.111 18.4454 31.9725 17.2675 34.691C17.4749 36.6081 17.9175 38.8872 18.8313 41.3802C21.0056 47.3128 24.6938 50.2657 26.9935 53.1561L26.9935 53.1561L6.16828 53.1561C4.63129 48.8205 3.13188 46.002 1.97281 41.5323C1.49842 39.7044 1.12375 37.9926 0.828563 36.3165C-0.498507 28.7847 0.125465 22.7148 0.294556 21.1363C1.02331 14.3347 2.95628 8.80426 4.71909 4.88844L4.71909 4.88844" transform="translate(0.3294165 0.04552431)" id="Clip-2" fill="none" fill-rule="evenodd" stroke="none" />
          <g clip-path="url(#mask_1)">
            <path d="M4.71909 4.88844C2.95628 8.80426 1.02331 14.3347 0.294556 21.1363C0.125465 22.7148 -0.498507 28.7847 0.828563 36.3165C1.12375 37.9926 1.49842 39.7044 1.97281 41.5323C3.13188 46.002 4.63129 48.8205 6.16828 53.1561L26.9935 53.1561C24.6938 50.2657 21.0056 47.3128 18.8313 41.3802C17.9175 38.8872 17.4749 36.6081 17.2675 34.691C18.4454 31.9725 19.586 29.111 20.662 26.0829C24.0026 16.6803 25.9862 7.84789 27.146 0C19.6706 1.62731 12.1945 3.26077 4.71909 4.88844" transform="translate(0.3294165 0.04552431)" id="Fill-1" fill="url(#gradient_1)" fill-rule="evenodd" stroke="none" />
          </g>
        </g>
        <g id="Group-6" transform="translate(5.058257 68.64777)">
          <path d="M25.4114 0C24.2516 7.84789 22.268 16.6803 18.9274 26.0829C17.8518 29.111 16.7108 31.9725 15.533 34.691C15.7403 36.6081 16.1829 38.8872 17.0967 41.3802C19.2714 47.3128 22.9592 50.2657 25.2589 53.1561L25.2589 53.1561L6.95127 53.1561C5.19822 50.2657 2.92417 46.3192 1.45872 40.8461C-0.760047 32.5578 0.0929915 25.8748 0.543538 22.5858C1.63757 14.5956 4.45574 8.45018 6.64596 4.58314" transform="translate(0.016122354 0.04552431)" id="Clip-5" fill="none" fill-rule="evenodd" stroke="none" />
          <g clip-path="url(#mask_2)">
            <path d="M6.64596 4.58314C4.45574 8.45018 1.63757 14.5956 0.543538 22.5858C0.0929915 25.8748 -0.760047 32.5578 1.45872 40.8461C2.92417 46.3192 5.19822 50.2657 6.95127 53.1561L25.2589 53.1561C22.9592 50.2657 19.2714 47.3128 17.0967 41.3802C16.1829 38.8872 15.7403 36.6081 15.533 34.691C16.7108 31.9725 17.8518 29.111 18.9274 26.0829C22.268 16.6803 24.2516 7.84789 25.4114 0C19.1565 1.52579 12.9012 3.05736 6.64596 4.58314" transform="translate(0.016122354 0.04552431)" id="Fill-4" fill="url(#gradient_1)" fill-rule="evenodd" stroke="none" />
          </g>
        </g>
        <g id="Group-9" transform="translate(1.0839121 2.1678243)">
          <path d="M9.94489 0.225378C10.5468 0.60547 10.6122 1.39709 10.773 2.12042C11.0938 3.56636 10.7264 4.75649 10.5335 5.26701C10.2589 5.93507 9.79423 6.84194 9.00623 7.75098C7.78321 9.16332 6.40122 9.86642 5.60238 10.1985C5.18435 10.2064 3.52741 10.1699 2.46987 9.5174C1.29572 8.79383 2.84257 7.75297 0.126076 7.36357L0 7.34632C0.0203709 7.26986 0.590042 5.1276 1.10848 3.00381C1.22012 2.5464 1.6779 2.06586 2.10423 1.82596C2.41604 1.65108 2.91392 1.67385 3.12636 1.71106C3.27378 1.84366 3.49959 1.97626 3.64664 2.10922C3.64267 1.91881 3.70337 1.55245 3.92521 1.18211C4.02565 1.01447 4.2941 0.599689 4.78908 0.491298C5.12871 0.41723 5.4239 0.524176 5.5424 0.577288C5.70644 0.938231 5.87517 1.29917 6.0392 1.66048C5.83217 0.859467 6.30909 0.156008 6.80877 0.0624298C7.25142 -0.0204895 7.84659 0.350837 8.04066 0.997797L8.04552 1.01627L8.04597 0.966865C8.05052 0.781696 8.09779 0.563363 8.25146 0.372429C8.49823 0.0656815 8.86496 0.0226863 9.01345 0.00498241" transform="translate(0.15427683 0.2273361)" id="Clip-8" fill="none" fill-rule="evenodd" stroke="none" />
          <g clip-path="url(#mask_3)">
            <path d="M0 7.34632L0 7.34776C0 7.34776 0.580977 5.16621 1.10884 3.00381C1.22049 2.5464 1.67826 2.06586 2.1046 1.82596C2.4164 1.65108 2.91428 1.67385 3.12673 1.71106C3.27414 1.84366 3.49995 1.97626 3.647 2.10922C3.64303 1.91881 3.70373 1.55245 3.92557 1.18211C4.02601 1.01447 4.29446 0.599689 4.78945 0.491298C5.12907 0.41723 5.42426 0.524176 5.54277 0.577288C5.7068 0.938231 5.87553 1.29917 6.03956 1.66048C5.83253 0.859467 6.30945 0.156008 6.80914 0.0624298C7.33375 -0.0358449 8.07262 0.503943 8.10405 1.38444C8.08779 1.33603 7.91653 0.789012 8.25182 0.372429C8.49859 0.0656815 8.86532 0.0226863 9.01381 0.00498241C9.01381 0.00498241 9.50446 -0.0528262 9.94526 0.225378C10.5472 0.60547 10.6126 1.39709 10.7734 2.12042C11.0942 3.56636 10.7268 4.75649 10.5338 5.26701C10.2592 5.93507 9.79459 6.84194 9.00659 7.75098C7.78357 9.16332 6.40159 9.86642 5.60274 10.1985C5.18471 10.2064 3.52777 10.1699 2.47024 9.5174C1.27829 8.78286 2.89043 7.72135 0 7.34632" transform="translate(0.15391552 0.2273361)" id="Fill-7" fill="url(#gradient_2)" fill-rule="evenodd" stroke="none" />
          </g>
        </g>
        <g id="Group-12" transform="translate(31.794758 70.45429)">
          <path d="M7.10388 0C7.53166 1.44522 7.9533 1.87878 8.30521 2.98726C9.19221 5.78014 9.27351 8.35299 9.16367 10.1364C9.1485 10.4616 8.94039 10.7423 8.64845 10.837C8.30594 10.9482 7.91031 10.7838 7.73327 10.4366C7.39003 9.59768 7.04643 8.75837 6.70319 7.91906C6.75992 8.25833 6.804 8.64203 6.81772 9.06331C6.8394 9.72161 6.7834 10.3019 6.70319 10.7799C6.55903 10.9724 6.36501 11.1549 6.13125 11.1614C5.39997 11.1809 4.83525 9.4575 4.75793 9.49254C4.70626 9.51603 4.9711 10.2932 5.41623 11.2662C5.53979 11.5364 5.64927 11.7612 5.73092 11.9241C5.72081 12.0112 5.65686 12.5029 5.2157 12.8393C4.71494 13.2212 4.14371 13.0864 4.07145 13.068C3.89767 12.8375 3.70365 12.5419 3.52805 12.1814C3.37305 11.8634 3.26755 11.5671 3.19421 11.3135C3.31705 11.7926 3.42183 12.3526 3.47097 12.9813C3.49517 13.2949 3.50312 13.5905 3.49951 13.8672C3.32681 14.1714 2.99874 14.3477 2.66056 14.3228C2.20062 14.2881 1.97228 13.8918 1.95493 13.8607C1.2634 12.6265 0.323284 10.5497 0.0667586 7.84463C-0.0795696 6.30114 0.0356864 4.94445 0.209835 3.90859C0.212003 3.50176 0.271979 2.77048 0.638703 2.01463C1.2092 0.837864 2.15943 0 2.52688 0L2.52688 0L7.10388 0Z" transform="translate(0.073788695 0.08996471)" id="Clip-11" fill="none" fill-rule="evenodd" stroke="none" />
          <g clip-path="url(#mask_4)">
            <path d="M2.52688 0C2.15943 0 1.2092 0.837864 0.638703 2.01463C0.271979 2.77048 0.212003 3.50176 0.209835 3.90859C0.0356864 4.94445 -0.0795696 6.30114 0.0667586 7.84463C0.323284 10.5497 1.2634 12.6265 1.95493 13.8607C1.97228 13.8918 2.20062 14.2881 2.66056 14.3228C2.99874 14.3477 3.32681 14.1714 3.49951 13.8672C3.50312 13.5905 3.49517 13.2949 3.47097 12.9813C3.42183 12.3526 3.31705 11.7926 3.19421 11.3135C3.26755 11.5671 3.37305 11.8634 3.52805 12.1814C3.70365 12.5419 3.89767 12.8375 4.07145 13.068C4.14371 13.0864 4.71494 13.2212 5.2157 12.8393C5.65686 12.5029 5.72081 12.0112 5.73092 11.9241C5.64927 11.7612 5.53979 11.5364 5.41623 11.2662C4.9711 10.2932 4.70626 9.51603 4.75793 9.49254C4.83525 9.4575 5.39997 11.1809 6.13125 11.1614C6.36501 11.1549 6.55903 10.9724 6.70319 10.7799C6.7834 10.3019 6.8394 9.72161 6.81772 9.06331C6.804 8.64203 6.75992 8.25833 6.70319 7.91906C7.04643 8.75837 7.39003 9.59768 7.73327 10.4366C7.91031 10.7838 8.30594 10.9482 8.64845 10.837C8.94039 10.7423 9.1485 10.4616 9.16367 10.1364C9.27351 8.35299 9.19221 5.78014 8.30521 2.98726C7.9533 1.87878 7.53166 1.44522 7.10388 0L2.52688 0Z" transform="translate(0.073788695 0.08996471)" id="Fill-10" fill="url(#gradient_3)" fill-rule="evenodd" stroke="none" />
          </g>
        </g>
        <g id="Group-15" transform="translate(7.2260814 20.233028)">
          <path d="M19.7714 0L21.4879 3.24234C24.6537 6.86008 28.482 12.1254 31.3667 19.1473C37.4958 34.067 35.5672 47.6715 34.311 53.7032C33.4832 53.1251 32.2938 52.4343 30.7564 51.9487C28.2407 51.1538 26.0515 51.3052 24.8065 51.4909C24.7046 54.7459 24.6027 58.0005 24.5012 61.2551C21.4283 59.6603 17.5967 57.9741 13.0587 56.6019C9.01208 55.3782 5.30944 54.6772 2.15019 54.2751C0.981736 50.9067 -0.364483 45.6439 0.09076 39.286C0.371493 35.3594 1.08507 34.5725 4.09545 24.525C8.05715 11.3027 8.2024 8.05708 11.9144 4.50076" transform="translate(0.1318033 0.17920682)" id="Clip-14" fill="none" fill-rule="evenodd" stroke="none" />
          <g clip-path="url(#mask_5)">
            <path d="M19.7714 0L21.4879 3.24234C24.6537 6.86008 28.482 12.1254 31.3667 19.1473C37.4958 34.067 35.5672 47.6715 34.311 53.7032C33.4832 53.1251 32.2938 52.4343 30.7564 51.9487C28.2407 51.1538 26.0515 51.3052 24.8065 51.4909C24.7046 54.7459 24.6027 58.0005 24.5012 61.2551C21.4283 59.6603 17.5967 57.9741 13.0587 56.6019C9.01208 55.3782 5.30944 54.6772 2.15019 54.2751C0.981736 50.9067 -0.364483 45.6439 0.09076 39.286C0.371493 35.3594 1.08507 34.5725 4.09545 24.525C8.05715 11.3027 8.2024 8.05708 11.9144 4.50076C14.6083 1.92033 17.631 0.660464 19.7714 0" transform="translate(0.1318033 0.17920682)" id="Fill-13" fill="url(#gradient_4)" fill-rule="evenodd" stroke="none" />
          </g>
        </g>
        <g id="Group-18" transform="translate(11.200426 19.51042)">
          <path d="M15.4394 0C15.4485 0.267365 15.4376 0.711769 15.287 1.22049C14.581 3.60979 11.7466 4.2157 9.41325 5.87408C7.79316 7.0252 6.9347 8.44693 5.21779 11.29C1.32004 17.744 1.02377 24.9426 1.02232 27.6907C0.361498 25.3047 -0.478173 21.0582 0.335484 15.867C1.01979 11.5025 2.60194 8.19401 3.76823 6.17902" transform="translate(0.26066795 0.13910207)" id="Clip-17" fill="none" fill-rule="evenodd" stroke="none" />
          <g clip-path="url(#mask_6)">
            <path d="M15.4394 0C11.5489 2.05979 7.65876 4.11923 3.76823 6.17902C2.60194 8.19401 1.01979 11.5025 0.335484 15.867C-0.478173 21.0582 0.361498 25.3047 1.02232 27.6907C1.02377 24.9426 1.32004 17.744 5.21779 11.29C6.9347 8.44693 7.79316 7.0252 9.41325 5.87408C11.7466 4.2157 14.581 3.60979 15.287 1.22049C15.4376 0.711769 15.4485 0.267365 15.4394 0" transform="translate(0.26066795 0.13910207)" id="Fill-16" fill="url(#gradient_5)" fill-rule="evenodd" stroke="none" />
          </g>
        </g>
        <g id="Group-21" transform="translate(0 8.309994)">
          <path d="M1.61749 0C1.75695 0.280011 3.21698 3.09529 6.38526 3.56607C8.55019 3.88799 10.2053 2.92042 10.6761 2.62234C10.2863 3.80815 9.83824 5.0485 9.32194 6.33113C8.96063 7.22933 8.59029 8.08779 8.21598 8.90578C9.02422 9.09655 10.0482 9.42028 11.1527 9.99295C11.9894 10.4265 12.6738 10.8998 13.2125 11.328L13.2125 11.328L18.7812 10.0692L21.9087 11.9003C20.5863 12.9936 19.2643 14.0869 17.9419 15.1802C17.8025 15.3655 17.5929 15.6947 17.4842 16.1528C17.4014 16.5029 17.4065 16.805 17.4271 17.0109C16.6831 18.1682 15.9396 19.3251 15.196 20.482C14.1804 22.1176 12.4378 25.4206 12.1061 29.9409C11.8456 33.494 12.5628 36.3569 13.1366 38.0656C13.0806 38.4825 12.914 39.2777 12.3352 40.0675C11.9566 40.5838 11.5338 40.9173 11.2303 41.1182C10.5811 39.0071 9.95494 36.1738 9.87509 32.8013C9.82559 30.7246 9.99396 28.8743 10.2396 27.3128C8.1636 24.3382 5.32772 20.1557 2.22773 15.1802C1.38445 13.8271 0.191421 11.8627 0.0154657 9.154C-0.0582403 8.02023 0.137587 7.0317 0.473238 5.11101C0.851523 2.9468 1.28979 1.19158 1.61749 0Z" transform="translate(0.03367162 0.04985996)" id="Clip-20" fill="none" fill-rule="evenodd" stroke="none" />
          <g clip-path="url(#mask_7)">
            <path d="M13.2125 11.328C12.6738 10.8998 11.9894 10.4265 11.1527 9.99295C10.0482 9.42028 9.02422 9.09655 8.21598 8.90578C8.59029 8.08779 8.96063 7.22933 9.32194 6.33113C9.83824 5.0485 10.2863 3.80815 10.6761 2.62234C10.2053 2.92042 8.55019 3.88799 6.38526 3.56607C3.21698 3.09529 1.75695 0.280011 1.61749 0C1.28979 1.19158 0.851523 2.9468 0.473238 5.11101C0.137587 7.0317 -0.0582403 8.02023 0.0154657 9.154C0.191421 11.8627 1.38445 13.8271 2.22773 15.1802C5.32772 20.1557 8.1636 24.3382 10.2396 27.3128C9.99396 28.8743 9.82559 30.7246 9.87509 32.8013C9.95494 36.1738 10.5811 39.0071 11.2303 41.1182C11.5338 40.9173 11.9566 40.5838 12.3352 40.0675C12.914 39.2777 13.0806 38.4825 13.1366 38.0656C12.5628 36.3569 11.8456 33.494 12.1061 29.9409C12.4378 25.4206 14.1804 22.1176 15.196 20.482C15.9396 19.3251 16.6831 18.1682 17.4271 17.0109C17.4065 16.805 17.4014 16.5029 17.4842 16.1528C17.5929 15.6947 17.8025 15.3655 17.9419 15.1802C19.2643 14.0869 20.5863 12.9936 21.9087 11.9003L18.7812 10.0692L13.2125 11.328Z" transform="translate(0.03367162 0.04985996)" id="Fill-19" fill="url(#gradient_6)" fill-rule="evenodd" stroke="none" />
          </g>
        </g>
        <g id="Group-24" transform="translate(9.393906 0)">
          <path d="M11.7693 0.27211C16.1454 -0.576594 22.4903 0.523577 23.7458 4.0864C24.6935 6.77667 22.7696 10.957 20.5418 13.1642C19.7993 13.8991 18.6991 14.7521 17.948 16.4441C17.3442 17.8044 17.2593 19.0975 17.2806 19.9719L17.2806 19.9719L7.84047 24.835L7.7263 22.5465C7.23203 22.0638 6.50437 21.5265 5.59027 21.4785C4.56091 21.4247 4.01318 22.0345 3.4546 21.7076C2.90361 21.3849 2.87326 20.4639 2.84399 19.5715C2.81148 18.5761 2.99899 17.7748 3.1493 17.283C3.11786 17.1215 3.02067 16.745 2.69152 16.4441C2.04768 15.8548 1.139 16.1236 1.0895 16.1388C0.465892 16.3314 0.110007 16.357 0.0218489 16.2154C-0.0955749 16.0271 0.26031 15.5441 1.0895 14.7658C1.56642 14.2698 2.04298 13.774 2.51991 13.2783C2.82846 12.7566 3.2389 11.9365 3.4546 10.8757C3.8748 8.80683 3.17387 7.70197 3.22553 6.52737C3.35235 3.64127 7.99186 1.00483 11.7693 0.27211Z" transform="translate(0.16891965 0.07799409)" id="Clip-23" fill="none" fill-rule="evenodd" stroke="none" />
          <g clip-path="url(#mask_8)">
            <path d="M17.2806 19.9719C17.2593 19.0975 17.3442 17.8044 17.948 16.4441C18.6991 14.7521 19.7993 13.8991 20.5418 13.1642C22.7696 10.957 24.6935 6.77667 23.7458 4.0864C22.4903 0.523577 16.1454 -0.576594 11.7693 0.27211C7.99186 1.00483 3.35235 3.64127 3.22553 6.52737C3.17387 7.70197 3.8748 8.80683 3.4546 10.8757C3.2389 11.9365 2.82846 12.7566 2.51991 13.2783C2.04298 13.774 1.56642 14.2698 1.0895 14.7658C0.26031 15.5441 -0.0955749 16.0271 0.0218489 16.2154C0.110007 16.357 0.465892 16.3314 1.0895 16.1388C1.139 16.1236 2.04768 15.8548 2.69152 16.4441C3.02067 16.745 3.11786 17.1215 3.1493 17.283C2.99899 17.7748 2.81148 18.5761 2.84399 19.5715C2.87326 20.4639 2.90361 21.3849 3.4546 21.7076C4.01318 22.0345 4.56091 21.4247 5.59027 21.4785C6.50437 21.5265 7.23203 22.0638 7.7263 22.5465L7.84047 24.835L17.2806 19.9719Z" transform="translate(0.16891965 0.07799409)" id="Fill-22" fill="url(#gradient_7)" fill-rule="evenodd" stroke="none" />
          </g>
        </g>
        <g id="Group-27" transform="translate(26.013893 31.07215)">
          <path d="M4.44151 0C3.69722 1.10089 2.7217 2.8048 2.15301 5.03477C0.646734 10.9392 3.11408 16.1178 4.21244 18.9179C6.0746 23.6651 7.68096 30.9573 6.11977 41.8029C5.76352 43.5574 5.40764 45.3119 5.05211 47.0664C6.53418 35.3923 4.86424 27.0534 2.99196 21.5117C1.39138 16.7732 -1.68187 10.1588 1.16123 4.19546" transform="translate(0.33565184 0.019871723)" id="Clip-26" fill="none" fill-rule="evenodd" stroke="none" />
          <g clip-path="url(#mask_9)">
            <path d="M6.11977 41.8029C7.68096 30.9573 6.0746 23.6651 4.21244 18.9179C3.11408 16.1178 0.646734 10.9392 2.15301 5.03477C2.7217 2.8048 3.69722 1.10089 4.44151 0C3.46202 0.834612 2.11363 2.1989 1.16123 4.19546C-1.68187 10.1588 1.39138 16.7732 2.99196 21.5117C4.86424 27.0534 6.53418 35.3923 5.05211 47.0664C5.40764 45.3119 5.76352 43.5574 6.11977 41.8029" transform="translate(0.33565184 0.019871723)" id="Fill-25" fill="url(#gradient_8)" fill-rule="evenodd" stroke="none" />
          </g>
        </g>
      </g>
      <g id="Group-31" transform="translate(1.4452163 95.667534)">
        <path d="M1.01712 26.2188C2.40561 34.1555 4.95677 40.3862 7.08738 44.6286L7.08738 44.6286C44.6211 55.1874 77.4853 59.2206 102.863 60.6207L102.863 60.6207C107.601 60.8819 115.398 61.2349 125.589 61.2418L125.589 61.2418L126.19 61.2418C140.421 61.2324 159.206 60.5441 180.766 58.0171L180.766 58.0171C208.479 54.769 232.471 49.4553 251.923 44.0708L251.923 44.0708C253.63 41.9142 257.832 36.017 258.668 27.1487L258.668 27.1487C258.766 26.1107 258.81 25.1074 258.812 24.1438L258.812 24.1438L258.812 24.0029C258.802 19.2026 257.743 15.3999 256.982 13.2021L256.982 13.2021C237.514 16.1716 211.924 19.2539 181.777 20.6402L181.777 20.6402C172.866 21.0503 150.254 22.0461 125.627 21.0124L125.627 21.0124C96.2471 19.7796 53.6714 15.225 1.5233 0L1.5233 0C0.348703 5.51603 -0.95705 14.9356 1.01712 26.2188" transform="translate(0.22613211 0.17992942)" id="Clip-30" fill="none" fill-rule="evenodd" stroke="none" />
        <g clip-path="url(#mask_10)">
          <path d="M1.01712 26.2188C2.40561 34.1555 4.95677 40.3862 7.08738 44.6286L7.08738 44.6286C44.6211 55.1874 77.4853 59.2206 102.863 60.6207L102.863 60.6207C107.601 60.8819 115.398 61.2349 125.589 61.2418L125.589 61.2418L126.19 61.2418C140.421 61.2324 159.206 60.5441 180.766 58.0171L180.766 58.0171C208.479 54.769 232.471 49.4553 251.923 44.0708L251.923 44.0708C253.63 41.9142 257.832 36.017 258.668 27.1487L258.668 27.1487C258.766 26.1107 258.81 25.1074 258.812 24.1438L258.812 24.1438L258.812 24.0029C258.802 19.2026 257.743 15.3999 256.982 13.2021L256.982 13.2021C237.514 16.1716 211.924 19.2539 181.777 20.6402L181.777 20.6402C172.866 21.0503 150.254 22.0461 125.627 21.0124L125.627 21.0124C96.2471 19.7796 53.6714 15.225 1.5233 0L1.5233 0C0.348703 5.51603 -0.95705 14.9356 1.01712 26.2188" transform="translate(0.22613211 0.17992942)" id="Fill-29" fill="url(#gradient_9)" fill-rule="evenodd" stroke="none" />
        </g>
      </g>
      <g id="Group-36" transform="translate(0 92.7771)">
        <path d="M260.297 13.5279C223.924 17.5478 193.694 19.4168 171.519 20.3617C139.986 21.7057 124.856 21.1771 118.783 20.9199C84.82 19.4815 60.2166 14.9356 54.2858 13.8069C39.67 11.0259 21.5947 6.76506 1.17089 0C1.08273 0.0455243 0.217047 0.513413 0.032782 1.60383C-0.125108 2.5378 0.334471 3.23403 0.412151 3.34712C12.6423 7.45045 28.9935 12.3107 48.553 16.3638C55.0659 17.7137 83.296 23.3999 122.408 24.9177C149.274 25.9601 168.854 24.5539 197.444 22.5002C223.277 20.6446 244.818 18.187 260.297 16.1778L260.297 13.5279Z" transform="translate(9.667038E-05 0.28076938)" id="Fill-32" fill="#122057" fill-rule="evenodd" stroke="none" />
        <path d="M258.746 8.87941C228.475 14.3058 193.468 18.2643 154.582 18.549C93.908 18.993 41.4748 10.3633 0 0C0.0422726 0.65107 0.0841838 1.30178 0.126456 1.95249C42.6707 12.3711 96.3927 20.8722 158.46 19.8504C195.641 19.2387 229.281 15.3171 258.662 9.99512C258.69 9.62333 258.719 9.25119 258.746 8.87941" transform="translate(1.7189764 18.922434)" id="Fill-34" fill="#8B57A1" fill-rule="evenodd" stroke="none" />
      </g>
      <g id="Group-39" transform="translate(3.2517366 97.112755)">
        <path d="M0.00160653 0.0643121C-0.257448 1.07741 30.8422 15.2337 72.2548 22.8434L72.2548 22.8434C102.092 28.3262 127.546 28.6218 158.419 28.9802L158.419 28.9802C180.826 29.24 198.445 28.4249 208.162 27.8645L208.162 27.8645C226.015 26.8344 242.238 25.2194 256.556 23.4017L256.556 23.4017C256.769 21.5088 256.854 18.9468 256.345 16.0101L256.345 16.0101C256.094 14.5631 255.745 13.2866 255.376 12.1976L255.376 12.1976C237.659 14.4771 222.571 15.9772 210.86 16.9863L210.86 16.9863C198.811 18.0244 189.101 18.6505 183.122 19.0317L183.122 19.0317C169.011 19.931 156.64 20.5123 151.422 20.7053L151.422 20.7053C109.163 22.2643 68.7982 16.2424 68.7982 16.2424L68.7982 16.2424C29.0468 8.93613 2.75547 0.000361304 0.203937 0L0.203937 0C0.0803708 0 0.0124457 0.0209556 0.00160653 0.0643121" transform="translate(0.19422027 0.064673424)" id="Clip-38" fill="none" fill-rule="evenodd" stroke="none" />
        <g clip-path="url(#mask_11)">
          <path d="M0.00160653 0.0643121C-0.257448 1.07741 30.8422 15.2337 72.2548 22.8434L72.2548 22.8434C102.092 28.3262 127.546 28.6218 158.419 28.9802L158.419 28.9802C180.826 29.24 198.445 28.4249 208.162 27.8645L208.162 27.8645C226.015 26.8344 242.238 25.2194 256.556 23.4017L256.556 23.4017C256.769 21.5088 256.854 18.9468 256.345 16.0101L256.345 16.0101C256.094 14.5631 255.745 13.2866 255.376 12.1976L255.376 12.1976C237.659 14.4771 222.571 15.9772 210.86 16.9863L210.86 16.9863C198.811 18.0244 189.101 18.6505 183.122 19.0317L183.122 19.0317C169.011 19.931 156.64 20.5123 151.422 20.7053L151.422 20.7053C109.163 22.2643 68.7982 16.2424 68.7982 16.2424L68.7982 16.2424C29.0468 8.93613 2.75547 0.000361304 0.203937 0L0.203937 0C0.0803708 0 0.0124457 0.0209556 0.00160653 0.0643121" transform="translate(0.19422027 0.064673424)" id="Fill-37" fill="url(#gradient_10)" fill-rule="evenodd" stroke="none" />
        </g>
      </g>
      <g id="Group-42" transform="translate(58.531258 121.68143)">
        <path d="M133.211 8.3678C118.24 9.36717 79.0994 11.4349 29.0039 6.69424L29.0039 6.69424C14.7414 5.34441 0.158807 2.3875 0.00127808 3.34712L0.00127808 3.34712C-0.182626 4.46897 19.5146 9.72414 36.6762 13.2028L36.6762 13.2028C43.7888 14.6437 74.832 20.7186 119.89 20.7338L119.89 20.7338C140.215 20.7403 166.39 19.5148 196.78 14.876L196.78 14.876C197.811 13.3484 199.088 11.1123 200.068 8.18173L200.068 8.18173C201.16 4.91554 201.471 2.01427 201.544 0L201.544 0C174.781 4.77355 151.568 7.14226 133.211 8.3678" transform="translate(0.30619168 0.013368251)" id="Clip-41" fill="none" fill-rule="evenodd" stroke="none" />
        <g clip-path="url(#mask_12)">
          <path d="M133.211 8.3678C118.24 9.36717 79.0994 11.4349 29.0039 6.69424L29.0039 6.69424C14.7414 5.34441 0.158807 2.3875 0.00127808 3.34712L0.00127808 3.34712C-0.182626 4.46897 19.5146 9.72414 36.6762 13.2028L36.6762 13.2028C43.7888 14.6437 74.832 20.7186 119.89 20.7338L119.89 20.7338C140.215 20.7403 166.39 19.5148 196.78 14.876L196.78 14.876C197.811 13.3484 199.088 11.1123 200.068 8.18173L200.068 8.18173C201.16 4.91554 201.471 2.01427 201.544 0L201.544 0C174.781 4.77355 151.568 7.14226 133.211 8.3678" transform="translate(0.30619168 0.013368251)" id="Fill-40" fill="url(#gradient_11)" fill-rule="evenodd" stroke="none" />
        </g>
      </g>
    </g>
  </g>
</svg>